<?xml version="1.0" encoding="utf-8" ?>
<svg baseProfile="full" height="200mm" version="1.1" viewBox="0,0,200,200" width="200mm" xmlns="http://www.w3.org/2000/svg" xmlns:ev="http://www.w3.org/2001/xml-events" xmlns:xlink="http://www.w3.org/1999/xlink"><defs /><rect fill="#1a1a1a" height="200" width="200" x="0" y="0" /><text alignment-baseline="middle" fill="#e1ed5e" style="dominant-baseline: central; font-size:9.0px; font-family:Arial;" text-anchor="middle" x="100.0" y="100.0">2026</text><line stroke="#e1ed5e" stroke-width="0.3" x1="100.0" x2="100.0" y1="15.0" y2="10.0" /><path d="M 100.0 14.0 a86.0,86.0 0 0,1 42.46469731375804,11.215312516191453" fill="none" id="id109" stroke="none" /><text fill="#e1ed5e" style="font-size:6.75px; font-family:Arial;" text-anchor="middle"><textPath startOffset="22.20632615414155" xlink:href="#id109">January</textPath></text><path d="M 102.52436894288641 79.15227682838746 l 3.8379950732366273 -31.696420226657224 a52.92793857058476,52.92793857058476 0 0,0 0.9035184013331486,0.11730261964478954 l -4.383028203077622 31.625659283848297" fill="#ffe915" stroke="none" /><path d="M 104.307194497241 79.44645832069477 l 7.926765843229511 -37.82580801616273 a59.647449706403535,59.647449706403535 0 0,0 1.003091945214425,0.21923704715903725 l -8.576700512597464 37.68375747090782" fill="#a3ff21" stroke="none" /><path d="M 105.36241919743992 79.69619591428918 l 7.196394138032697 -27.24780949089734 a49.18210798790869,49.18210798790869 0 0,0 0.8166621365624357,0.22322461151344536 l -7.664354163818844 27.1198983385576" fill="#ffa40f" stroke="none" /><path d="M 106.40334571778207 80.00007090966166 l 8.68760097244551 -27.1344717389782 a49.491296341336295,49.491296341336295 0 0,0 0.8091053420700831,0.2667493102123021 l -9.153389136758012 26.980908704506664" fill="#ffaa0f" stroke="none" /><path d="M 107.4271985657038 80.35727306442388 l 19.07863083147525 -50.457293205788936 a74.94379104270178,74.94379104270178 0 0,0 1.2027294885779836,0.4666403560445496 l -19.9443434850529 50.12141014585384" fill="#3dffab" stroke="none" /><path d="M 108.76106565485865 80.91482961587045 l 11.690045667055932 -25.465682160513097 a49.02067336089781,49.02067336089781 0 0,0 0.7638396390691015,0.3586329525142991 l -12.126663517424632 25.260684225358794" fill="#ffa10e" stroke="none" /><path d="M 109.41281617654863 81.2277094730956 l 8.934833102922767 -17.819033079106518 a40.93361940168862,40.93361940168862 0 0,0 0.6271410832155595,0.3212460211148349 l -9.240234673727082 17.662594532679183" fill="#ff0000" stroke="none" /><line stroke="#e1ed5e" stroke-width="0.3" x1="143.23703022742887" x2="145.7803849466894" y1="26.81831364943548" y2="22.513508569990506" /><path d="M 143.74570117128098 25.957352633546492 a86.0,86.0 0 0,1 28.547481713284135,27.462654790039103" fill="none" id="id110" stroke="none" /><text fill="#e1ed5e" style="font-size:6.75px; font-family:Arial;" text-anchor="middle"><textPath startOffset="19.985693538727396" xlink:href="#id110">February</textPath></text><path d="M 110.99172775467656 82.1063720568725 l 14.535558398767533 -23.66269250277677 a48.7705864980369,48.7705864980369 0 0,0 0.7115416014557333,0.4455672855546282 l -14.940719152595529 23.408980875899196" fill="#ff9d0e" stroke="none" /><path d="M 111.60114157652 82.49532879139004 l 25.159958159181702 -37.96322907482101 a66.54371807789862,66.54371807789862 0 0,0 0.9493421691844267,0.6410000704054537 l -25.809705022772672 37.52451709211689" fill="#3cff2e" stroke="none" /><path d="M 114.16331599549186 84.49514656593476 l 14.550972858542087 -15.929228830774347 a42.574780236961885,42.574780236961885 0 0,0 0.5368317217102129,0.4989265792950643 l -14.823012464047146 15.676397665404643" fill="#ff2203" stroke="none" /><path d="M 114.94478906791727 85.2469230424477 l 20.623793335960215 -20.359230823488506 a49.979978110559045,49.979978110559045 0 0,0 0.5991307899887655,0.6174569441666935 l -20.971188389652088 20.001209683771698" fill="#ffb310" stroke="none" /><path d="M 115.4437574822437 85.77008943001954 l 22.14986078422558 -20.408928232616617 a51.11877627601543,51.11877627601543 0 0,0 0.5906807689191081,0.652244458159516 l -22.497885193760727 20.02463098718755" fill="#ffc812" stroke="none" /><path d="M 116.82858285166822 87.43820079747576 l 22.686661599632174 -16.93459812404503 a49.31016121746986,49.31016121746986 0 0,0 0.5018773826263766,0.6845601858812308 l -22.974801594772178 16.541575494492307" fill="#ffa70f" stroke="none" /><path d="M 117.04232023915458 87.72973835380427 l 27.773783019261533 -19.996783288231 a55.22359369028178,55.22359369028178 0 0,0 0.5487841472495109,0.7762162578007418 l -28.11387978631493 19.515740530098466" fill="#edff1a" stroke="none" /><line stroke="#e1ed5e" stroke-width="0.3" x1="172.23445277983987" x2="176.4835382374775" y1="55.19839476539836" y2="52.563006222186495" /><path d="M 173.08426987136738 54.67131705675599 a86.0,86.0 0 0,1 12.851231095245387,41.99856678651699" fill="none" id="id111" stroke="none" /><text fill="#e1ed5e" style="font-size:6.75px; font-family:Arial;" text-anchor="middle"><textPath startOffset="22.20632615414155" xlink:href="#id111">March</textPath></text><path d="M 118.03404312379186 89.2402003453031 l 22.875119430189002 -13.64817087641221 a47.63726069281819,47.63726069281819 0 0,0 0.4140819559147102,0.7078002892963722 l -23.10666106057404 13.252391174761943" fill="#ff870c" stroke="none" /><path d="M 119.04729006885535 91.15688171328212 l 44.741046006218205 -20.772002771743942 a70.32785518223828,70.32785518223828 0 0,0 0.5003246960554129,1.1023991472064534 l -45.09197301923697 19.998781615695425" fill="#35ff61" stroke="none" /><path d="M 119.47837535516314 92.15188598940014 l 41.491964708465346 -16.7177017394064 a65.73326152670164,65.73326152670164 0 0,0 0.41382672195919146,1.0531438691478294 l -41.77358498030623 16.001008865362785" fill="#47ff2c" stroke="none" /><path d="M 120.08093135843002 93.85539295169968 l 25.264255046341372 -7.730663327158696 a47.42055522740697,47.42055522740697 0 0,0 0.23212159205077507,0.7825986145705943 l -25.39358253550385 7.294635325841572" fill="#ff830c" stroke="none" /><path d="M 120.37134235888165 94.90015583598534 l 32.355015776853065 -8.099885391904262 a54.35348841249435,54.35348841249435 0 0,0 0.21939966708491165,0.9095532637609455 l -32.4896482441988 7.54174689648391" fill="#fcff18" stroke="none" /><path d="M 120.6074358757038 95.95851677861258 l 61.822307627111385 -12.124449664162288 a84.0,84.0 0 0,0 0.26605710436056285,1.4212876901497489 l -62.02185045538181 11.058483896549978" fill="#4dd2ff" stroke="none" /><line stroke="#e1ed5e" stroke-width="0.3" x1="184.98032266829074" x2="189.97916517819016" y1="98.17113171792111" y2="98.06355123074" /><path d="M 185.9800911702706 98.14961562048488 a86.0,86.0 0 0,1 -9.607161424134198,41.387399972396054" fill="none" id="id112" stroke="none" /><text fill="#e1ed5e" style="font-size:6.75px; font-family:Arial;" text-anchor="middle"><textPath startOffset="21.466115282336823" xlink:href="#id112">April</textPath></text><line stroke="#e1ed5e" stroke-width="0.3" x1="174.80103733775053" x2="179.2010983576182" y1="140.37084112569926" y2="142.7455964860345" /><path d="M 175.68104954172406 140.8457921977663 a86.0,86.0 0 0,1 -30.038265399797805,32.042727171017184" fill="none" id="id113" stroke="none" /><text fill="#e1ed5e" style="font-size:6.75px; font-family:Arial;" text-anchor="middle"><textPath startOffset="22.206326154141568" xlink:href="#id113">May</textPath></text><line stroke="#e1ed5e" stroke-width="0.3" x1="143.8653032363475" x2="146.44561519142675" y1="172.8068346515853" y2="177.08958963109032" /><path d="M 144.38136562736335 173.6633856474863 a86.0,86.0 0 0,1 -40.68145358897372,12.25698825130547" fill="none" id="id114" stroke="none" /><text fill="#e1ed5e" style="font-size:6.75px; font-family:Arial;" text-anchor="middle"><textPath startOffset="21.466115282336833" xlink:href="#id114">June</textPath></text><line stroke="#e1ed5e" stroke-width="0.3" x1="102.19456741930631" x2="102.32365962044197" y1="184.97166512339345" y2="189.96999836594603" /><path d="M 102.22038585953345 185.97133177190398 a86.0,86.0 0 0,1 -42.740103519485714,-10.115201625700543" fill="none" id="id115" stroke="none" /><text fill="#e1ed5e" style="font-size:6.75px; font-family:Arial;" text-anchor="middle"><textPath startOffset="22.20632615414155" xlink:href="#id115">July</textPath></text><line stroke="#e1ed5e" stroke-width="0.3" x1="58.666819895761336" x2="56.23545636021788" y1="174.27360380694188" y2="178.64263932499728" /><path d="M 58.180547188652646 175.14741091055294 a86.0,86.0 0 0,1 -31.652253787137756,-30.449443065178592" fill="none" id="id116" stroke="none" /><text fill="#e1ed5e" style="font-size:6.75px; font-family:Arial;" text-anchor="middle"><textPath startOffset="22.20632615414155" xlink:href="#id116">August</textPath></text><line stroke="#e1ed5e" stroke-width="0.3" x1="26.63291911575756" x2="22.317208475507996" y1="142.92168965132927" y2="145.44649492493687" /><path d="M 25.769776987707644 143.4266507060508 a86.0,86.0 0 0,1 -11.730757126820373,-40.83630448921669" fill="none" id="id117" stroke="none" /><text fill="#e1ed5e" style="font-size:6.75px; font-family:Arial;" text-anchor="middle"><textPath startOffset="21.46611528233685" xlink:href="#id117">September</textPath></text><line stroke="#e1ed5e" stroke-width="0.3" x1="15.007084014347285" x2="10.007500721073583" y1="101.09737516637583" y2="101.16192664675087" /><path d="M 14.007167355692545 101.11028546245083 a86.0,86.0 0 0,1 10.666146001902534,-42.60595125391555" fill="none" id="id118" stroke="none" /><text fill="#e1ed5e" style="font-size:6.75px; font-family:Arial;" text-anchor="middle"><textPath startOffset="22.20632615414155" xlink:href="#id118">October</textPath></text><line stroke="#e1ed5e" stroke-width="0.3" x1="26.266209847984243" x2="21.928928074336255" y1="57.711370442889674" y2="55.22380399835377" /><path d="M 25.398753493254645 57.213857153982495 a86.0,86.0 0 0,1 29.58750427330803,-30.492523968695096" fill="none" id="id119" stroke="none" /><text fill="#e1ed5e" style="font-size:6.75px; font-family:Arial;" text-anchor="middle"><textPath startOffset="21.46611528233685" xlink:href="#id119">November</textPath></text><line stroke="#e1ed5e" stroke-width="0.3" x1="56.762969772571076" x2="54.21961505331055" y1="26.818313649435495" y2="22.513508569990535" /><path d="M 56.25429882871897 25.957352633546506 a86.0,86.0 0 0,1 42.265352541879196,-11.944610805530505" fill="none" id="id120" stroke="none" /><text fill="#e1ed5e" style="font-size:6.75px; font-family:Arial;" text-anchor="middle"><textPath startOffset="22.20632615414155" xlink:href="#id120">December</textPath></text></svg>