<?xml version="1.0" encoding="utf-8" ?>
<svg baseProfile="full" height="200mm" version="1.1" viewBox="0,0,200,200" width="200mm" xmlns="http://www.w3.org/2000/svg" xmlns:ev="http://www.w3.org/2001/xml-events" xmlns:xlink="http://www.w3.org/1999/xlink"><defs /><rect fill="#1a1a1a" height="200" width="200" x="0" y="0" /><text alignment-baseline="middle" fill="#e1ed5e" style="dominant-baseline: central; font-size:9.0px; font-family:Arial;" text-anchor="middle" x="100.0" y="100.0">2018</text><line stroke="#e1ed5e" stroke-width="0.3" x1="100.0" x2="100.0" y1="15.0" y2="10.0" /><path d="M 100.0 14.0 a86.0,86.0 0 0,1 42.46469731375804,11.215312516191453" fill="none" id="id13" stroke="none" /><text fill="#e1ed5e" style="font-size:6.75px; font-family:Arial;" text-anchor="middle"><textPath startOffset="22.20632615414155" xlink:href="#id13">January</textPath></text><path d="M 100.36148047927253 79.00311137660856 l 0.2489732478928157 -14.461814277578801 a35.463957268927075,35.463957268927075 0 0,0 0.6102728365513145,0.015761546887874858 l -0.497872719638998 14.455385938548567" fill="#ffa00e" stroke="none" /><path d="M 100.72285384407766 79.0124445844662 l 0.24777804780739138 -7.194062190740339 a28.198327914537856,28.198327914537856 0 0,0 0.4849564113155795,0.020883243204158353 l -0.3715752915123024 7.188731221011985" fill="#ff3905" stroke="none" /><path d="M 101.80526077348638 79.07773832637324 l 1.7637892463815754 -20.441623000901462 a41.51757547607989,41.51757547607989 0 0,0 0.7114824856178783,0.06756383499738194 l -2.1153968590896977 20.408233621388902" fill="#fff016" stroke="none" /><path d="M 104.307194497241 79.44645832069477 l 3.6302867730949444 -17.323399383620266 a38.69969345099861,38.69969345099861 0 0,0 0.6508132531070583,0.14224256963070145 l -3.9279427503555304 17.258343315893693" fill="#ffcb13" stroke="none" /><path d="M 105.71112130821622 79.79150937346287 l 2.3873707280049206 -8.447580847135814 a29.778448676265675,29.778448676265675 0 0,0 0.49206728531833577,0.14364793395782546 l -2.5324282310466835 8.405234584259285" fill="#ff5007" stroke="none" /><path d="M 106.74666289553966 80.11325718540242 l 7.12582973732335 -21.004390692241017 a43.18021365536461,43.18021365536461 0 0,0 0.7018182851889864,0.2448506191391721 l -7.48633002657561 20.878619219929636" fill="#f9ff18" stroke="none" /><path d="M 108.76106565485865 80.91482961587045 l 6.103854380997667 -13.296681642449762 a35.63074779377612,35.63074779377612 0 0,0 0.5551979536101108,0.2606728836117368 l -6.331830545907375 13.189643776198022" fill="#ffa20f" stroke="none" /><path d="M 109.41281617654863 81.2277094730956 l 8.944492503147838 -17.838297140354467 a40.95516953088713,40.95516953088713 0 0,0 0.6274712512184515,0.32141514598971094 l -9.250224241955046 17.681689469052255" fill="#ffe915" stroke="none" /><line stroke="#e1ed5e" stroke-width="0.3" x1="143.23703022742887" x2="145.7803849466894" y1="26.81831364943548" y2="22.513508569990506" /><path d="M 143.74570117128098 25.957352633546492 a86.0,86.0 0 0,1 28.547481713284135,27.462654790039103" fill="none" id="id14" stroke="none" /><text fill="#e1ed5e" style="font-size:6.75px; font-family:Arial;" text-anchor="middle"><textPath startOffset="19.985693538727396" xlink:href="#id14">February</textPath></text><path d="M 110.99172775467656 82.1063720568725 l 9.725611413218227 -15.832494766213602 a39.58104969809568,39.58104969809568 0 0,0 0.577470264595149,0.36161182671225844 l -9.996700830185638 15.662738598178398" fill="#ffd714" stroke="none" /><path d="M 112.48926042617603 83.11751280151076 l 5.081556959280168 -6.869047276301245 a29.544356711565257,29.544356711565257 0 0,0 0.4062403159618477,0.3059717837374772 l -5.199043429000398 6.78055890305792" fill="#ff4d07" stroke="none" /><path d="M 113.34407831869373 83.78471172551755 l 16.21965592052426 -19.709596285550205 a46.52538783093358,46.52538783093358 0 0,0 0.6140076465427258,0.5142137460649222 l -16.556521104026103 19.427481382091464" fill="#d0ff1d" stroke="none" /><path d="M 113.89432698308785 84.25364557470407 l 7.937771569529981 -8.995827191413845 a32.997213190896424,32.997213190896424 0 0,0 0.4226613232525619,0.37946950921201433 l -8.091443880378533 8.857858673432533" fill="#ff7e0b" stroke="none" /><path d="M 114.42810811169701 84.74124197986012 l 6.2322993701245775 -6.591103092768269 a30.071063632141197,30.071063632141197 0 0,0 0.3730483789795237,0.3588722450124585 l -6.34483099271652 6.482847760993509" fill="#ff5407" stroke="none" /><path d="M 115.19652480421416 85.50635884689758 l 9.422833540931675 -8.98699997184938 a34.02136553646075,34.02136553646075 0 0,0 0.4005330148476662,0.4272606938826497 l -9.576133877749804 8.823469861088675" fill="#ff8c0c" stroke="none" /><line stroke="#e1ed5e" stroke-width="0.3" x1="172.23445277983987" x2="176.4835382374775" y1="55.19839476539836" y2="52.563006222186495" /><path d="M 173.08426987136738 54.67131705675599 a86.0,86.0 0 0,1 12.851231095245387,41.99856678651699" fill="none" id="id15" stroke="none" /><text fill="#e1ed5e" style="font-size:6.75px; font-family:Arial;" text-anchor="middle"><textPath startOffset="22.20632615414155" xlink:href="#id15">March</textPath></text><path d="M 120.28053869075195 94.5502522615342 l 13.196950629699714 -3.546259443376954 a34.6651184393869,34.6651184393869 0 0,0 0.14989142430698757,0.5775928024149491 l -13.256038385877005 3.3185702154131542" fill="#ff950d" stroke="none" /><path d="M 120.73433829027371 96.67025291283417 l 18.28820641580575 -2.936920445205718 a39.52252670692057,39.52252670692057 0 0,0 0.10208876905896741,0.6726374345505263 l -18.336051078304017 2.6216838982631097" fill="#ffd614" stroke="none" /><path d="M 120.83666639777658 97.38593545837742 l 14.575020712982598 -1.8285096143444501 a35.68927078495123,35.68927078495123 0 0,0 0.07122498762650635,0.6102121976169828 l -14.604336053612693 1.5773536784026148" fill="#ffa30f" stroke="none" /><path d="M 120.94382443527127 98.46500227214037 l 13.745296761281137 -1.0074090986835398 a34.78216442173711,34.78216442173711 0 0,0 0.03862378656676929,0.5974928828953443 l -13.760601138852323 0.7706571515351603" fill="#ff970d" stroke="none" /><path d="M 120.96714384426684 98.82574320788733 l 10.0209897890156 -0.5612216623706158 a31.036692986530422,31.036692986530422 0 0,0 0.025282182350680082,0.5336669106946654 l -10.029165579599777 0.38864364505295057" fill="#ff6209" stroke="none" /><line stroke="#e1ed5e" stroke-width="0.3" x1="184.98032266829074" x2="189.97916517819016" y1="98.17113171792111" y2="98.06355123074" /><path d="M 185.9800911702706 98.14961562048488 a86.0,86.0 0 0,1 -9.607161424134198,41.387399972396054" fill="none" id="id16" stroke="none" /><text fill="#e1ed5e" style="font-size:6.75px; font-family:Arial;" text-anchor="middle"><textPath startOffset="21.466115282336823" xlink:href="#id16">April</textPath></text><path d="M 120.99824983174949 100.27111621757518 l 13.751756740718434 0.17755404866744598 a34.75290292614956,34.75290292614956 0 0,0 -0.012871709546362489,0.5980977642079985 l -13.746662968487065 -0.41424162866555936" fill="#ff960d" stroke="none" /><path d="M 120.9764740272857 100.99374915477107 l 11.808400613595111 0.5594166166198465 a32.82164421737111,32.82164421737111 0 0,0 -0.03159262854782346,0.5641076054488158 l -11.797021634159758 -0.7625959384040857" fill="#ff7c0b" stroke="none" /><path d="M 120.92983693683757 101.71520430193887 l 9.449048538135681 0.7743514080281386 a30.48072457036693,30.48072457036693 0 0,0 -0.04735456880359479,0.5225537207550939 l -9.434319373055011 -0.9368865173318031" fill="#ff5a08" stroke="none" /><path d="M 120.70491114924044 103.5080841355445 l 4.76030237755412 0.8065497664164086 a25.828146771946123,25.828146771946123 0 0,0 -0.07804227621264669,0.4377025304498086 l -4.745713659002285 -0.8883710475994355" fill="#ff1602" stroke="none" /><path d="M 120.13307415673323 105.97154293290107 l 19.819248811308256 5.878461195405415 a41.67266140269392,41.67266140269392 0 0,0 -0.20989770927724036,0.6859578585182021 l -19.715124329524883 -6.218746026475674" fill="#fff216" stroke="none" /><path d="M 119.9155931802556 106.66101706037122 l 12.16136956151679 4.0675208312174895 a33.8235578262889,33.8235578262889 0 0,0 -0.18942669192825812,0.5505626354125273 l -12.0895520386453 -4.276256169719317" fill="#ff890c" stroke="none" /><path d="M 118.97047184881838 109.00673069616215 l 17.181802185413762 8.157512706695865 a40.019972131908965,40.019972131908965 0 0,0 -0.30081058435198665,0.6197589009170807 l -17.03883834444706 -8.452060563578222" fill="#ffdd14" stroke="none" /><line stroke="#e1ed5e" stroke-width="0.3" x1="174.80103733775053" x2="179.2010983576182" y1="140.37084112569926" y2="142.7455964860345" /><path d="M 175.68104954172406 140.8457921977663 a86.0,86.0 0 0,1 -30.038265399797805,32.042727171017184" fill="none" id="id17" stroke="none" /><text fill="#e1ed5e" style="font-size:6.75px; font-family:Arial;" text-anchor="middle"><textPath startOffset="22.206326154141568" xlink:href="#id17">May</textPath></text><path d="M 118.48025628344425 109.97397251340804 l 12.282975727639906 6.629240439705953 a34.95773339526242,34.95773339526242 0 0,0 -0.2903549226780259,0.5270785239490323 l -12.167044395510372 -6.8396894820527905" fill="#ff990e" stroke="none" /><path d="M 118.30583269289576 110.29060199501025 l 7.88179605495326 4.430742243090801 a30.041802136553645,30.041802136553645 0 0,0 -0.2572837212497311,0.4485958545083091 l -7.80436033755115 -4.565757943457426" fill="#ff5407" stroke="none" /><path d="M 118.12598468904814 110.60418214915192 l 12.350589660396482 7.225422764888937 a35.308871342313054,35.308871342313054 0 0,0 -0.3114227728622469,0.5219624803215528 l -12.224386011836009 -7.436947339096594" fill="#ff9e0e" stroke="none" /><path d="M 117.75023020441432 111.22182372390056 l 29.019276725319028 18.346196317253057 a55.33222015791918,55.33222015791918 0 0,0 -0.5158942669271864,0.8006793587801148 l -28.699177595014792 -18.842997275954623" fill="#6bff28" stroke="none" /><path d="M 117.14729908036423 112.12312394758627 l 16.10683314824218 11.387515534900404 a40.72575940548072,40.72575940548072 0 0,0 -0.4096239693946136,0.5689318667643125 l -15.908429386471965 -11.663081007115847" fill="#ffe615" stroke="none" /><path d="M 116.71984013943494 112.70617746262583 l 12.557353230592792 9.542911731103557 a36.77194612169066,36.77194612169066 0 0,0 -0.38731922855916484,0.500662314070152 l -12.391227184815557 -9.75765203928696" fill="#ffb210" stroke="none" /><path d="M 116.27256486870786 113.27417163493432 l 23.626131642214876 19.272765480959865 a51.48989317231769,51.48989317231769 0 0,0 -0.5661534427877278,0.6819682932521284 l -23.290882199533602 -19.676595031325764" fill="#96ff23" stroke="none" /><path d="M 114.81725581225074 114.88116024355365 l 8.382451267682951 8.418603426218459 a32.88016720854621,32.88016720854621 0 0,0 -0.4045044173437982,0.39589270926521586 l -8.236296897963358 -8.561646238406247" fill="#ff7c0b" stroke="none" /><path d="M 114.29624159901734 115.38237550388516 l 13.050084766278097 14.04154391502583 a40.16949837436135,40.16949837436135 0 0,0 -0.5105360578003391,0.466362584107514 l -12.806449159010894 -14.264099265719928" fill="#ffdf14" stroke="none" /><path d="M 113.75828350139079 115.86535959552629 l 9.968844524927839 11.495569423604742 a36.21597770552717,36.21597770552717 0 0,0 -0.4744888460145953,0.40436968838931653 l -9.769490202336195 -11.665463502217005" fill="#ffaa0f" stroke="none" /><path d="M 113.20401910651253 116.32954008644616 l 8.886494976932957 10.990015599284945 a35.13330236878774,35.13330236878774 0 0,0 -0.4735341900752909,0.3762041996068445 l -8.696003294140315 -11.141353712896915" fill="#ff9c0e" stroke="none" /><path d="M 112.63410532772338 116.77436683061366 l 20.335745614472348 26.99987437675342 a54.80141662796098,54.80141662796098 0 0,0 -0.7583864435447364,0.5610361604751717 l -19.867974200509046 -27.34592048596836" fill="#71ff27" stroke="none" /><path d="M 112.04921762599082 117.19931262002967 l 6.144933094908465 8.771409780210211 a31.709707385044126,31.709707385044126 0 0,0 -0.4497389540599194,0.30933455354114214 l -5.993037256225662 -8.875885123116449" fill="#ff6c09" stroke="none" /><path d="M 111.45004920935366 117.60387380957326 l 5.025683466251378 7.726735137039818 a30.217371110078957,30.217371110078957 0 0,0 -0.4384658510258288,0.27984965141841156 l -4.891935813178618 -7.8120992172820385" fill="#ff5708" stroke="none" /><path d="M 111.1453310114006 117.79835938074945 l 7.842627256048265 12.524159062626767 a35.77705527171389,35.77705527171389 0 0,0 -0.5247655804218726,0.3223538800155639 l -7.625882475694083 -12.657301409470708" fill="#ffa40f" stroke="none" /><line stroke="#e1ed5e" stroke-width="0.3" x1="143.8653032363475" x2="146.44561519142675" y1="172.8068346515853" y2="177.08958963109032" /><path d="M 144.38136562736335 173.6633856474863 a86.0,86.0 0 0,1 -40.68145358897372,12.25698825130547" fill="none" id="id18" stroke="none" /><text fill="#e1ed5e" style="font-size:6.75px; font-family:Arial;" text-anchor="middle"><textPath startOffset="21.466115282336833" xlink:href="#id18">June</textPath></text><path d="M 110.8373102113329 117.98757091392108 l 3.0654537476552437 5.087984526975352 a26.940083604273106,26.940083604273106 0 0,0 -0.39926759880149026,0.23589433503235663 l -2.9774182778253717 -5.139997434301458" fill="#ff2703" stroke="none" /><path d="M 110.5260780823613 118.17145234162733 l 19.11062521810516 32.99118747289374 a59.12655829075709,59.12655829075709 0 0,0 -0.8850717384002424,0.5025668320171193 l -18.53990471278372 -33.31525747070549" fill="#43ff2d" stroke="none" /><path d="M 109.89434966115114 118.52300852407294 l 4.16362322015928 7.794633405856976 a29.83697166744078,29.83697166744078 0 0,0 -0.45509778410192747,0.23808565139252733 l -4.028834533530857 -7.86514847619422" fill="#ff5107" stroke="none" /><path d="M 109.57404056367764 118.69057910512821 l 8.471224929775149 16.537646630408382 a39.58104969809568,39.58104969809568 0 0,0 -0.6090695971311463,0.3054001400789838 l -8.185301424961242 -16.681014611396666" fill="#ffd714" stroke="none" /><path d="M 109.2508944713604 118.85261126421891 l 3.970193447067815 8.0909488193861 a30.012540640966094,30.012540640966094 0 0,0 -0.46574794266757263,0.2235873159362999 l -3.8303328364000095 -8.15809041182196" fill="#ff5407" stroke="none" /><path d="M 108.92500713936063 119.00905698771935 l 7.523868071500018 16.024820451793133 a38.70320483046911,38.70320483046911 0 0,0 -0.6054876882465767,0.2779497003782596 l -7.246912387486022 -16.151957222505466" fill="#ffcb13" stroke="none" /><path d="M 106.2309692047433 120.05430185196036 l 1.7711812137960539 5.700526118625054 a26.96934509986066,26.96934509986066 0 0,0 -0.44451263152471915,0.13392800948567987 l -1.6727936078310888 -5.730169497216459" fill="#ff2703" stroke="none" /><path d="M 105.88484417918355 120.15858648285463 l 8.05253322922689 27.584024753218166 a49.73537389688806,49.73537389688806 0 0,0 -0.8238755438757682,0.2328354581696661 l -7.576526517246516 -27.718549004726352" fill="#aaff21" stroke="none" /><path d="M 105.53697534728816 120.25689768951611 l 3.140105387384505 11.488003752391627 a32.90942870413377,32.90942870413377 0 0,0 -0.5477218977956375,0.14465833137469006 l -2.9418930467773703 -11.5403534330699" fill="#ff7d0b" stroke="none" /><path d="M 105.18746579009965 120.34920634021253 l 1.409506496613236 5.529161964247248 a26.705991639572687,26.705991639572687 0 0,0 -0.44643098298796463,0.10972187400658893 l -1.3141222288820602 -5.552605096567866" fill="#ff2303" stroke="none" /><path d="M 104.48393922423573 120.51570834832081 l 1.905622104122476 8.71893782569138 a29.924756154203436,29.924756154203436 0 0,0 -0.5041730591429021,0.10565436652622928 l -1.7552575835501958 -8.750448172944152" fill="#ff5207" stroke="none" /><path d="M 104.13013068566511 120.58985236759428 l 2.382546359310757 11.877657519996323 a33.11425917324663,33.11425917324663 0 0,0 -0.559839734569932,0.10729461756012572 l -2.177739010169121 -11.916909335904915" fill="#ff800b" stroke="none" /><path d="M 103.41894727170886 120.7198165907248 l 6.035958467146019 36.57966691191127 a58.07431490942871,58.07431490942871 0 0,0 -0.987717263388244,0.15426112310976883 l -5.405405340149258 -36.678146342368144" fill="#4eff2c" stroke="none" /><path d="M 102.70371172650421 120.8252237178851 l 1.589827703555191 12.245579761654676 a33.34835113794705,33.34835113794705 0 0,0 -0.5698956528505948,0.06900642698003956 l -1.378804627653216 -12.271131717360067" fill="#ff830c" stroke="none" /><path d="M 101.98527174616119 120.90594882070398 l 1.6929674528341603 17.827831878686723 a38.90803529958198,38.90803529958198 0 0,0 -0.667283333269387,0.05757601377631754 l -1.3858398018232314 -17.854332144741704" fill="#ffce13" stroke="none" /><path d="M 101.26447882468166 120.96189622390904 l 0.7294392476798072 12.092278267577804 a33.11425917324663,33.11425917324663 0 0,0 -0.5692686984376389,0.029424689290443364 l -0.5211824808286887 -12.10304276363045" fill="#ff800b" stroke="none" /><path d="M 100.90346689309514 120.98055641714683 l 1.3344285741024398 30.98846697934367 a52.01718532280539,52.01718532280539 0 0,0 -0.8948928771570271,0.030821920108519203 l -0.8008153452707605 -31.006845697878283" fill="#90ff24" stroke="none" /><line stroke="#e1ed5e" stroke-width="0.3" x1="102.19456741930631" x2="102.32365962044197" y1="184.97166512339345" y2="189.96999836594603" /><path d="M 102.22038585953345 185.97133177190398 a86.0,86.0 0 0,1 -42.740103519485714,-10.115201625700543" fill="none" id="id19" stroke="none" /><text fill="#e1ed5e" style="font-size:6.75px; font-family:Arial;" text-anchor="middle"><textPath startOffset="22.20632615414155" xlink:href="#id19">July</textPath></text><path d="M 100.18074693466247 120.99922214144158 l 0.04634106267240101 5.383915755724919 a26.384115188109615,26.384115188109615 0 0,0 -0.4541759946697092,0.0 l 0.04634106267239731 -5.383915755724919" fill="#ff1e03" stroke="none" /><path d="M 99.45781275523022 120.99299961872073 l -0.4223167717040973 16.351723344447134 a37.35717603344171,37.35717603344171 0 0,0 -0.6426851152281083,-0.02213537483885778 l 0.7037222386068487 -16.34203117118218" fill="#ffba11" stroke="none" /><path d="M 98.73552117531835 120.96189622390904 l -1.5557846756069138 25.79101862384348 a46.837900603808635,46.837900603808635 0 0,0 -0.8043567221270681,-0.055473148923733694 l 1.999504158512912 -25.76041713040346" fill="#ccff1d" stroke="none" /><path d="M 98.37488393609728 120.93702456842531 l -3.72953946667131 48.049158565996045 a69.19368323269856,69.19368323269856 0 0,0 -1.1866903901261046,-0.10239264019282943 l 4.556074174538956 -47.97784167352456" fill="#3aff92" stroke="none" /><path d="M 97.65516085044442 120.86867818915974 l -1.388606556285819 12.358367250895805 a33.436135624709706,33.436135624709706 0 0,0 -0.5713958168972769,-0.06918807595425222 l 1.6011297962344853 -12.332633646216204" fill="#ff840c" stroke="none" /><path d="M 96.93821686468263 120.77559828337769 l -1.808912284311977 12.274296802813021 a33.40687412912216,33.40687412912216 0 0,0 -0.5681779689460422,-0.08873771357926742 l 2.0199261168665363 -12.241340781886647" fill="#ff840c" stroke="none" /><path d="M 96.22490169976321 120.6578951692458 l -2.9878158400387824 16.349769330420273 a37.62052949372968,37.62052949372968 0 0,0 -0.6360241108207023,-0.12189553458892634 l 3.26880756543118 -16.29591659748288" fill="#ffbd11" stroke="none" /><path d="M 95.86986931433489 120.58985236759428 l -9.789157867602881 48.80167981041968 a70.77380399442637,70.77380399442637 0 0,0 -1.1923988647786201,-0.24987877559136884 l 10.62774819381089 -48.62594505410177" fill="#3cffa4" stroke="none" /><path d="M 94.81253420990036 120.34920634021253 l -2.884067139223999 11.313516019152067 a32.67533673943335,32.67533673943335 0 0,0 -0.5438258321326107,-0.14362934502229516 l 3.078383414168099 -11.26219532482619" fill="#ff790b" stroke="none" /><path d="M 93.42475214034765 119.94407469862007 l -7.357070178310505 22.31550206640769 a44.496980956804464,44.496980956804464 0 0,0 -0.7253649225919071,-0.24608316477973188 l 7.740104833839638 -22.185555914729832" fill="#e9ff1a" stroke="none" /><path d="M 92.7421414339146 119.70592522655815 l -1.163010313655115 3.1577074794066706 a24.36507199256851,24.36507199256851 0 0,0 -0.39231221019080964,-0.14833890907274977 l 1.2171927446062079 -3.137220320227288" fill="#ff0000" stroke="none" /><path d="M 92.06813273071674 119.44442032107085 l -5.570359178428372 13.655347666260624 a35.747793776126336,35.747793776126336 0 0,0 -0.5677575944922437,-0.23732272054426304 l 5.804588232418078 -13.557439902696387" fill="#ffa40f" stroke="none" /><path d="M 90.7491055286396 118.85261126421891 l -27.752683414081172 56.55783379265673 a84.0,84.0 0 0,0 -1.292584369268958,-0.6481286363627916 l 28.72212169103289 -56.07173731538464" fill="#4dd2ff" stroke="none" /><line stroke="#e1ed5e" stroke-width="0.3" x1="58.666819895761336" x2="56.23545636021788" y1="174.27360380694188" y2="178.64263932499728" /><path d="M 58.180547188652646 175.14741091055294 a86.0,86.0 0 0,1 -31.652253787137756,-30.449443065178592" fill="none" id="id20" stroke="none" /><text fill="#e1ed5e" style="font-size:6.75px; font-family:Arial;" text-anchor="middle"><textPath startOffset="22.20632615414155" xlink:href="#id20">August</textPath></text><path d="M 89.4739219176387 118.17145234162733 l -4.341457193282314 7.494774584006069 a29.661402693915466,29.661402693915466 0 0,0 -0.4395991194624663,-0.2597229083393905 l 4.469824183773162 -7.418933103372929" fill="#ff4f07" stroke="none" /><path d="M 89.1626897886671 117.98757091392108 l -4.439622669017937 7.3688051769987855 a29.60287970274036,29.60287970274036 0 0,0 -0.4342048900164621,-0.2667241073738376 l 4.565806758966708 -7.29129260279657" fill="#ff4e07" stroke="none" /><path d="M 88.54995079064634 117.60387380957326 l -10.226866990054397 15.723292770928651 a39.756618671621,39.756618671621 0 0,0 -0.5704607189669837,-0.3780702582590739 l 10.496002407761344 -15.544924491578259" fill="#ffd914" stroke="none" /><path d="M 88.24862548938628 117.40417183066458 l -5.239813994514242 7.760336719664653 a30.36367858801672,30.36367858801672 0 0,0 -0.43064822023638766,-0.29620377273870885 l 5.37261909937352 -7.668992157560843" fill="#ff5908" stroke="none" /><path d="M 87.65650970185807 116.9893568818739 l -7.017386031084873 9.658603262152186 a32.93869019972132,32.93869019972132 0 0,0 -0.4558323060364647,-0.33721384259443005 l 7.182603307539901 -9.53637947081799" fill="#ff7d0b" stroke="none" /><path d="M 87.07902340077011 116.55440617244103 l -5.3652359868609 6.873961504023356 a29.719925685090573,29.719925685090573 0 0,0 -0.4005715372458012,-0.31823825546974777 l 5.482765016824059 -6.780589334548478" fill="#ff4f07" stroke="none" /><path d="M 86.51685102203217 116.09983520530335 l -16.70207074976322 19.94345587205946 a47.01346957733395,47.01346957733395 0 0,0 -0.6159537403151821,-0.5249291403276237 l 17.04288996665546 -19.653002341508884" fill="#caff1d" stroke="none" /><path d="M 85.97065885151581 115.62618273729859 l -5.766821605391783 6.423210275201694 a29.632141198327915,29.632141198327915 0 0,0 -0.37661103981407135,-0.34402525550858437 l 5.876532194672709 -6.322992253106533" fill="#ff4e07" stroke="none" /><path d="M 85.70375840098266 115.38237550388516 l -6.812793256196836 7.330384239194693 a31.00743149094287,31.00743149094287 0 0,0 -0.3878352914405912,-0.36672247551541387 l 6.937964382028245 -7.212027126933348" fill="#ff6209" stroke="none" /><path d="M 85.44109423537348 115.13401014063109 l -3.2458312898377764 3.37404777868227 a25.681839294008363,25.681839294008363 0 0,0 -0.31594782879448857,-0.3092214486785295 l 3.3034290710080594 -3.317676227081171" fill="#ff1402" stroke="none" /><path d="M 85.18274418774928 114.88116024355367 l -5.657122284101299 5.6815205388765015 a29.017649790989317,29.017649790989317 0 0,0 -0.3509192477750992,-0.35547934528914193 l 5.754082156931931 -5.583300699606696" fill="#ff4506" stroke="none" /><path d="M 84.9287848128048 114.62390073753433 l -23.016328627727724 22.333202798426782 a53.07059916395727,53.07059916395727 0 0,0 -0.6305127050381293,-0.6610900504759019 l 23.39734788414481 -21.93370563136838" fill="#84ff25" stroke="none" /><path d="M 84.67929136418377 114.36230785411682 l -9.414443811047319 8.825514765906437 a33.90431955411054,33.90431955411054 0 0,0 -0.3954754694876201,-0.42921051477497807 l 9.564965688530668 -8.662152996330114" fill="#ff8b0c" stroke="none" /><path d="M 83.95833913139862 113.55231037782056 l -6.839872121400872 5.7784583961167115 a29.95401764979099,29.95401764979099 0 0,0 -0.32935726164744533,-0.396732038738337 l 6.938325382941854 -5.659865100264613" fill="#ff5307" stroke="none" /><path d="M 83.50135304334701 112.99209946851258 l -14.552220422983755 11.459357589737758 a39.52252670692057,39.52252670692057 0 0,0 -0.416291117804174,-0.5381123863692987 l 14.747318358005998 -11.207167209255207" fill="#ffd614" stroke="none" /><line stroke="#e1ed5e" stroke-width="0.3" x1="26.63291911575756" x2="22.317208475507996" y1="142.92168965132927" y2="145.44649492493687" /><path d="M 25.769776987707644 143.4266507060508 a86.0,86.0 0 0,1 -11.730757126820373,-40.83630448921669" fill="none" id="id21" stroke="none" /><text fill="#e1ed5e" style="font-size:6.75px; font-family:Arial;" text-anchor="middle"><textPath startOffset="21.46611528233685" xlink:href="#id21">September</textPath></text><path d="M 80.73074385275274 108.34839909993369 l -15.438674804459598 6.688800950945476 a37.82535996284254,37.82535996284254 0 0,0 -0.2536983255625801,-0.599667900356078 l 15.551524111214485 -6.422058524923239" fill="#ffc011" stroke="none" /><path d="M 80.58989483394504 108.01547362559985 l -6.0853790000404535 2.512979422796051 a27.58383650719926,27.58383650719926 0 0,0 -0.17745258099401176,-0.4404227532468864 l 6.127734195291853 -2.4078573017063594" fill="#ff3004" stroke="none" /><path d="M 79.58551787078972 104.9243191809786 l -19.71282319861969 4.755067151534843 a41.278216442173715,41.278216442173715 0 0,0 -0.16066943101806344,-0.6921597037161328 l 19.791753195568308 -4.4150387904701365" fill="#ffed16" stroke="none" /><path d="M 79.29508885075956 103.50808413554451 l -23.830362205210314 4.037637012484578 a45.169995355318164,45.169995355318164 0 0,0 -0.12328880425121343,-0.7677195017606724 l 23.89633276382282 -3.6268382810306914" fill="#e0ff1b" stroke="none" /><path d="M 79.18660465613746 102.79330883721812 l -8.526435064229801 1.1443095190090034 a29.60287970274036,29.60287970274036 0 0,0 -0.06343261469382998,-0.5056203510161239 l 8.544869188170479 -0.9973714137054709" fill="#ff4e07" stroke="none" /><path d="M 79.0095281055655 100.63252640178507 l -29.306715520051146 0.8831278977082848 a50.32001857872736,50.32001857872736 0 0,0 -0.018637426199742933,-0.8660079611419997 l 29.317575008935897 -0.37853012077615616" fill="#a3ff22" stroke="none" /><line stroke="#e1ed5e" stroke-width="0.3" x1="15.007084014347285" x2="10.007500721073583" y1="101.09737516637583" y2="101.16192664675087" /><path d="M 14.007167355692545 101.11028546245083 a86.0,86.0 0 0,1 10.666146001902534,-42.60595125391555" fill="none" id="id22" stroke="none" /><text fill="#e1ed5e" style="font-size:6.75px; font-family:Arial;" text-anchor="middle"><textPath startOffset="22.20632615414155" xlink:href="#id22">October</textPath></text><path d="M 79.46518482838121 95.60439243477599 l -14.421105684852588 -3.0869292329859266 a35.747793776126336,35.747793776126336 0 0,0 0.13397866773689376,-0.6006000968877843 l 14.365832630113657 3.3347074994236703" fill="#ffa40f" stroke="none" /><path d="M 80.65960295795068 91.81776055985345 l -16.492786330330965 -6.977515843989343 a38.90803529958198,38.90803529958198 0 0,0 0.2662593397294689,-0.6145632662536255 l 16.370236280758817 7.2603782548295674" fill="#ffce13" stroke="none" /><path d="M 81.43458229118936 90.18545643968196 l -11.175467417844208 -5.907872017729764 a33.64096609382257,33.64096609382257 0 0,0 0.2750419720369209,-0.5096110025482125 l 11.072117346588815 6.099364003610448" fill="#ff870c" stroke="none" /><line stroke="#e1ed5e" stroke-width="0.3" x1="26.266209847984243" x2="21.928928074336255" y1="57.711370442889674" y2="55.22380399835377" /><path d="M 25.398753493254645 57.213857153982495 a86.0,86.0 0 0,1 29.58750427330803,-30.492523968695096" fill="none" id="id23" stroke="none" /><text fill="#e1ed5e" style="font-size:6.75px; font-family:Arial;" text-anchor="middle"><textPath startOffset="21.46611528233685" xlink:href="#id23">November</textPath></text><path d="M 81.78341655067845 89.55222093294921 l -4.619718793929195 -2.6495528892753026 a26.325592196934508,26.325592196934508 0 0,0 0.2288324842566618,-0.39114889273425263 l 4.573426635202209 2.7286811943634475" fill="#ff1e03" stroke="none" /><path d="M 82.34701348167596 88.62581576622439 l -23.466255185993223 -15.119793440346388 a48.915466790524846,48.915466790524846 0 0,0 0.46214253306085923,-0.7038747836284254 l 23.202516017574442 15.52148628795248" fill="#b3ff20" stroke="none" /><path d="M 82.54541684631803 88.32363383020206 l -4.426475802094914 -2.961122122020284 a26.325592196934508,26.325592196934508 0 0,0 0.2552022141941801,-0.37447775903072356 l 4.374849122231994 3.036877904321423" fill="#ff1e03" stroke="none" /><path d="M 82.95767976084542 87.72973835380427 l -9.07129539901122 -6.531221480046593 a32.17789131444496,32.17789131444496 0 0,0 0.32750563925570064,-0.4467173238865394 l 8.957527147241887 6.686401247604634" fill="#ff720a" stroke="none" /><path d="M 84.80347519578584 85.50635884689758 l -12.81081863430037 -12.218280860604215 a38.70320483046911,38.70320483046911 0 0,0 0.46395141738319845,-0.47814271809433784 l 12.598602953214053 12.436987774248678" fill="#ffcb13" stroke="none" /><path d="M 86.37877921826538 84.01681056812374 l -9.603814745319623 -11.269150746673553 a35.80631676730144,35.80631676730144 0 0,0 0.47254527720534406,-0.3957430799848187 l 9.408411931155168 11.432794984052185" fill="#ffa50f" stroke="none" /><path d="M 88.09926311788651 82.69761687909137 l -9.866611859996551 -14.34498554148718 a38.41058987459359,38.41058987459359 0 0,0 0.5479824957859022,-0.3700002272957991 l 9.618224669804109 14.512697681081644" fill="#ffc812" stroke="none" /><path d="M 88.70189139769569 82.29822771554957 l -8.028846336054619 -12.579522338694447 a35.923362749651645,35.923362749651645 0 0,0 0.5241062061370328,-0.32819525820141565 l 7.811120977545344 12.715861938218792" fill="#ffa60f" stroke="none" /><line stroke="#e1ed5e" stroke-width="0.3" x1="56.762969772571076" x2="54.21961505331055" y1="26.818313649435495" y2="22.513508569990535" /><path d="M 56.25429882871897 25.957352633546506 a86.0,86.0 0 0,1 42.265352541879196,-11.944610805530505" fill="none" id="id24" stroke="none" /><text fill="#e1ed5e" style="font-size:6.75px; font-family:Arial;" text-anchor="middle"><textPath startOffset="22.20632615414155" xlink:href="#id24">December</textPath></text><path d="M 89.3179101791058 81.91981866633112 l -8.424611479739136 -14.259241943599513 a37.562006502554574,37.562006502554574 0 0,0 0.5595008747218078,-0.32409901992147155 l 8.177913872552008 14.402145120911031" fill="#ffbc11" stroke="none" /><path d="M 90.26544431104013 81.39251694778311 l -5.547747250512664 -10.604450397152869 a32.96795169530887,32.96795169530887 0 0,0 0.505099652554565,-0.2587316602153889 l 5.364387110369335 10.698374582680763" fill="#ff7e0b" stroke="none" /><path d="M 94.63758080256005 79.69619591428918 l -3.5940412921067577 -13.608169668221421 a35.074779377612636,35.074779377612636 0 0,0 0.5850658784434474,-0.1491463194504264 l 3.359266524978311 13.668018983840712" fill="#ff9b0e" stroke="none" /><path d="M 95.33964822691252 79.52364482259891 l -3.402727815742463 -14.950687570308643 a36.33302368787738,36.33302368787738 0 0,0 0.6110129366131605,-0.13354376200320062 l 3.144872154975782 15.007044830407711" fill="#ffac0f" stroke="none" /></svg>