<?xml version="1.0" encoding="utf-8" ?>
<svg baseProfile="full" height="200mm" version="1.1" viewBox="0,0,200,200" width="200mm" xmlns="http://www.w3.org/2000/svg" xmlns:ev="http://www.w3.org/2001/xml-events" xmlns:xlink="http://www.w3.org/1999/xlink"><defs /><rect fill="#1a1a1a" height="200" width="200" x="0" y="0" /><text alignment-baseline="middle" fill="#e1ed5e" style="dominant-baseline: central; font-size:9.0px; font-family:Arial;" text-anchor="middle" x="100.0" y="100.0">2017</text><line stroke="#e1ed5e" stroke-width="0.3" x1="100.0" x2="100.0" y1="15.0" y2="10.0" /><path d="M 100.0 14.0 a86.0,86.0 0 0,1 42.46469731375804,11.215312516191453" fill="none" id="id1" stroke="none" /><text fill="#e1ed5e" style="font-size:6.75px; font-family:Arial;" text-anchor="middle"><textPath startOffset="22.20632615414155" xlink:href="#id1">January</textPath></text><line stroke="#e1ed5e" stroke-width="0.3" x1="143.23703022742887" x2="145.7803849466894" y1="26.81831364943548" y2="22.513508569990506" /><path d="M 143.74570117128098 25.957352633546492 a86.0,86.0 0 0,1 28.547481713284135,27.462654790039103" fill="none" id="id2" stroke="none" /><text fill="#e1ed5e" style="font-size:6.75px; font-family:Arial;" text-anchor="middle"><textPath startOffset="19.985693538727396" xlink:href="#id2">February</textPath></text><line stroke="#e1ed5e" stroke-width="0.3" x1="172.23445277983987" x2="176.4835382374775" y1="55.19839476539836" y2="52.563006222186495" /><path d="M 173.08426987136738 54.67131705675599 a86.0,86.0 0 0,1 12.851231095245387,41.99856678651699" fill="none" id="id3" stroke="none" /><text fill="#e1ed5e" style="font-size:6.75px; font-family:Arial;" text-anchor="middle"><textPath startOffset="22.20632615414155" xlink:href="#id3">March</textPath></text><line stroke="#e1ed5e" stroke-width="0.3" x1="184.98032266829074" x2="189.97916517819016" y1="98.17113171792111" y2="98.06355123074" /><path d="M 185.9800911702706 98.14961562048488 a86.0,86.0 0 0,1 -9.607161424134198,41.387399972396054" fill="none" id="id4" stroke="none" /><text fill="#e1ed5e" style="font-size:6.75px; font-family:Arial;" text-anchor="middle"><textPath startOffset="21.466115282336823" xlink:href="#id4">April</textPath></text><path d="M 120.8583938346157 102.4346265915055 l 16.76954706750441 1.9573695626694774 a37.88339434041954,37.88339434041954 0 0,0 -0.08117597952025594,0.647052426535137 l -16.733369578737307 -2.245739743492009" fill="#ffac0f" stroke="none" /><path d="M 119.79798401119884 107.00284435728193 l 19.268004390537428 6.8153826039072465 a41.43784316485991,41.43784316485991 0 0,0 -0.24364610986336152,0.6704094525035994 l -19.14783401966884 -7.146039853416976" fill="#ffdd14" stroke="none" /><path d="M 119.67450827220406 107.3425965602758 l 16.992663984782993 6.341722720504485 a39.13747712234267,39.13747712234267 0 0,0 -0.2409856987712937,0.6291376157195178 l -16.880984006418192 -6.633283903057147" fill="#ffbd11" stroke="none" /><line stroke="#e1ed5e" stroke-width="0.3" x1="174.80103733775053" x2="179.2010983576182" y1="140.37084112569926" y2="142.7455964860345" /><path d="M 175.68104954172406 140.8457921977663 a86.0,86.0 0 0,1 -30.038265399797805,32.042727171017184" fill="none" id="id5" stroke="none" /><text fill="#e1ed5e" style="font-size:6.75px; font-family:Arial;" text-anchor="middle"><textPath startOffset="22.206326154141568" xlink:href="#id5">May</textPath></text><path d="M 117.55443506779139 111.5257021239791 l 4.432917642493547 2.910517375820088 a26.303005772208927,26.303005772208927 0 0,0 -0.2517534513608511,0.3763372514276366 l -4.382161085721975 -2.986391541453531" fill="#ff0000" stroke="none" /><line stroke="#e1ed5e" stroke-width="0.3" x1="143.8653032363475" x2="146.44561519142675" y1="172.8068346515853" y2="177.08958963109032" /><path d="M 144.38136562736335 173.6633856474863 a86.0,86.0 0 0,1 -40.68145358897372,12.25698825130547" fill="none" id="id6" stroke="none" /><text fill="#e1ed5e" style="font-size:6.75px; font-family:Arial;" text-anchor="middle"><textPath startOffset="21.466115282336833" xlink:href="#id6">June</textPath></text><path d="M 102.70371172650421 120.8252237178851 l 0.7920922118244512 6.1010563199970465 a27.152259608616077,27.152259608616077 0 0,0 -0.4640095893200939,0.056185099295448654 l -0.6869551994529771 -6.113786948017846" fill="#ff0d01" stroke="none" /><path d="M 102.34483914955558 120.86867818915974 l 1.36124795624278 12.114880263691422 a33.1911164296776,33.1911164296776 0 0,0 -0.5683068357323949,0.05890732719012083 l -1.1525085239047823 -12.136516959337301" fill="#ff6909" stroke="none" /><path d="M 100.90346689309514 120.98055641714683 l 0.4442743616615963 10.317061289982902 a31.326622553850484,31.326622553850484 0 0,0 -0.5389367228321909,0.018562070431773253 l -0.2666172871547531 -10.32318015884077" fill="#ff4d07" stroke="none" /><line stroke="#e1ed5e" stroke-width="0.3" x1="102.19456741930631" x2="102.32365962044197" y1="184.97166512339345" y2="189.96999836594603" /><path d="M 102.22038585953345 185.97133177190398 a86.0,86.0 0 0,1 -42.740103519485714,-10.115201625700543" fill="none" id="id7" stroke="none" /><text fill="#e1ed5e" style="font-size:6.75px; font-family:Arial;" text-anchor="middle"><textPath startOffset="22.20632615414155" xlink:href="#id7">July</textPath></text><path d="M 100.18074693466247 120.99922214144158 l 0.06673451941432842 7.753232442369402 a28.753519639588905,28.753519639588905 0 0,0 -0.4949629081535624,0.0 l 0.06673451941432308 -7.753232442369402" fill="#ff2603" stroke="none" /><path d="M 99.45781275523022 120.99299961872073 l -0.2414358568740876 9.348177959176024 a30.351295227368716,30.351295227368716 0 0,0 -0.5221573936172788,-0.01798415640682317 l 0.4023136021660094 -9.342637004343107" fill="#ff3e05" stroke="none" /><path d="M 95.16358092515715 120.4354850818985 l -3.9734050739825615 16.78896283741682 a38.25274531887935,38.25274531887935 0 0,0 -0.6394524092260535,-0.15716184438794245 l 4.261810767951825 -16.718079734714845" fill="#ffb110" stroke="none" /><path d="M 94.11515582081647 120.15858648285463 l -4.875848048221978 16.70226119240722 a38.39940870054906,38.39940870054906 0 0,0 -0.6329045865693804,-0.1906889601378642 l 5.162627609231604 -16.61585686316363" fill="#ffb310" stroke="none" /><path d="M 93.42475214034765 119.94407469862007 l -4.988862362088152 15.132242271986527 a36.9334084189779,36.9334084189779 0 0,0 -0.602067788933677,-0.20425408273580042 l 5.248599883959054 -15.044125202352603" fill="#ff9f0e" stroke="none" /><path d="M 92.7421414339146 119.70592522655815 l -5.519262712193478 14.985436450971958 a36.96951992116007,36.96951992116007 0 0,0 -0.5952616956923893,-0.22507703879228563 l 5.776394628646151 -14.88821116207304" fill="#ff9f0e" stroke="none" /><path d="M 91.7346041902142 119.30500536409082 l -3.81510496238177 8.910719275675959 a30.693087427847388,30.693087427847388 0 0,0 -0.4838974608706007,-0.21212642641014587 l 3.967923097910114 -8.84372829597136" fill="#ff4406" stroke="none" /><path d="M 90.7491055286396 118.85261126421891 l -9.897718441708621 20.1707887558232 a43.46832324369984,43.46832324369984 0 0,0 -0.6688866093230589,-0.3353936317728121 l 10.24345895871444 -19.997427283141086" fill="#fff817" stroke="none" /><line stroke="#e1ed5e" stroke-width="0.3" x1="58.666819895761336" x2="56.23545636021788" y1="174.27360380694188" y2="178.64263932499728" /><path d="M 58.180547188652646 175.14741091055294 a86.0,86.0 0 0,1 -31.652253787137756,-30.449443065178592" fill="none" id="id8" stroke="none" /><text fill="#e1ed5e" style="font-size:6.75px; font-family:Arial;" text-anchor="middle"><textPath startOffset="22.20632615414155" xlink:href="#id8">August</textPath></text><path d="M 89.4739219176387 118.17145234162733 l -6.954439070122649 12.005635635294094 a34.87441925946783,34.87441925946783 0 0,0 -0.5168590358463317,-0.3053694287551097 l 7.1600659769973625 -11.884147634245235" fill="#ff810b" stroke="none" /><path d="M 85.18274418774928 114.88116024355367 l -7.018088420959043 7.0483563028838665 a30.946501478248628,30.946501478248628 0 0,0 -0.37424543676828753,-0.37910865158670826 l 7.138374482782864 -6.926507157316493" fill="#ff4706" stroke="none" /><path d="M 84.67929136418377 114.36230785411682 l -22.11513062243973 20.731698629850204 a51.31307194143319,51.31307194143319 0 0,0 -0.5985391089917921,-0.6495959899008747 l 22.46871613942725 -20.347951385147987" fill="#a4ff21" stroke="none" /><path d="M 84.19399662182784 113.82643327865904 l -9.312463837433276 8.146155408647399 a33.372624243277485,33.372624243277485 0 0,0 -0.37450042277181717,-0.4356285983885459 l 9.451306769775872 -7.9846497110973225" fill="#ff6b09" stroke="none" /><path d="M 83.72743513129214 113.27417163493432 l -11.69730715620572 9.541953841376813 a36.0955582148388,36.0955582148388 0 0,0 -0.388598055559813,-0.4848358239934109 l 11.859823123820394 -9.339190183805142" fill="#ff930d" stroke="none" /><path d="M 83.28015986056508 112.70617746262583 l -12.257410610456498 9.314971503907982 a36.39522032943827,36.39522032943827 0 0,0 -0.3747645877329057,-0.5020584084218699 l 12.41593646488449 -9.102600215976805" fill="#ff970d" stroke="none" /><path d="M 83.06392112726016 112.41649034213515 l -25.430942311266357 18.64440122013627 a52.53326059411516,52.53326059411516 0 0,0 -0.5283850576131106,-0.7338806311614935 l 25.748107161255074 -18.20388698352364" fill="#96ff23" stroke="none" /><line stroke="#e1ed5e" stroke-width="0.3" x1="26.63291911575756" x2="22.317208475507996" y1="142.92168965132927" y2="145.44649492493687" /><path d="M 25.769776987707644 143.4266507060508 a86.0,86.0 0 0,1 -11.730757126820373,-40.83630448921669" fill="none" id="id9" stroke="none" /><text fill="#e1ed5e" style="font-size:6.75px; font-family:Arial;" text-anchor="middle"><textPath startOffset="21.46611528233685" xlink:href="#id9">September</textPath></text><path d="M 79.76711848015287 105.62410040840567 l -11.658495515850847 3.240692598717292 a33.100520906659156,33.100520906659156 0 0,0 -0.1478677876353806,-0.5502710459584449 l 11.712551379828001 -3.0395306195833083" fill="#ff6709" stroke="none" /><path d="M 79.35854240842038 103.8639653848113 l -6.382864593844385 1.1948365437435624 a27.493735041531746,27.493735041531746 0 0,0 -0.08307501436994774,-0.465928798742397 l 6.402486050553522 -1.0847889942679516" fill="#ff1302" stroke="none" /><path d="M 79.23777060512086 103.15116336523772 l -24.16849024505066 3.6681446681295675 a45.44526960439251,45.44526960439251 0 0,0 -0.11072620695786908,-0.774418833571587 l 24.228050503025127 -3.2515803625775797" fill="#edff1a" stroke="none" /><path d="M 79.1416061653843 102.43462659150553 l -15.794503889167173 1.8435608931876526 a36.90173166267774,36.90173166267774 0 0,0 -0.06821144256051961,-0.6315532423041512 l 15.823897633228743 -1.5714113289987195" fill="#ff9e0e" stroke="none" /><path d="M 79.07016306316243 101.71520430193888 l -16.241344673960775 1.3309814280024097 a37.29579051105166,37.29579051105166 0 0,0 -0.04692776822076248,-0.6402921130868253 l 16.261849000845874 -1.0512161784188236" fill="#ffa40f" stroke="none" /><line stroke="#e1ed5e" stroke-width="0.3" x1="15.007084014347285" x2="10.007500721073583" y1="101.09737516637583" y2="101.16192664675087" /><path d="M 14.007167355692545 101.11028546245083 a86.0,86.0 0 0,1 10.666146001902534,-42.60595125391555" fill="none" id="id10" stroke="none" /><text fill="#e1ed5e" style="font-size:6.75px; font-family:Arial;" text-anchor="middle"><textPath startOffset="22.20632615414155" xlink:href="#id10">October</textPath></text><path d="M 79.00175016825051 100.2711162175752 l -18.57908640786986 0.239881498375567 a39.58063494298183,39.58063494298183 0 0,0 -0.0029321762411423135,-0.6813344942175401 l 18.580462881400504 0.07996247404564844" fill="#ffc312" stroke="none" /><path d="M 79.00486145842228 99.54816195383935 l -9.500826958136367 -0.20446805250527106 a30.503026890046456,30.503026890046456 0 0,0 0.01581553699078574,-0.5248406766319961 l 9.495899726689936 0.3679788765622615" fill="#ff4106" stroke="none" /><path d="M 79.05617556472873 98.46500227214037 l -9.509198057686868 -0.6969404015693814 a30.534703646346614,30.534703646346614 0 0,0 0.04293108983700326,-0.5238680364744566 l 9.49579248403037 0.8605223552516164" fill="#ff4106" stroke="none" /><path d="M 79.08570108090925 98.10471618934814 l -16.91859983807523 -1.5331878202587679 a37.987927636210046,37.987927636210046 0 0,0 0.06462085545432969,-0.6507231956463888 l 16.88970185693867 1.824186546609587" fill="#ffad10" stroke="none" /><path d="M 79.21141760316559 97.0276538004421 l -9.407355120145898 -1.3450612314726735 a30.503026890046456,30.503026890046456 0 0,0 0.07879092576416713,-0.5191337564395471 l 9.382808300942427 1.5067941003043126" fill="#ff4106" stroke="none" /><path d="M 79.32604984820605 96.31383870115002 l -9.41785102749608 -1.6792010100149255 a30.566380402646768,30.566380402646768 0 0,0 0.09681431738942106,-0.5171859547466091 l 9.387550986196798 1.8410650422241073" fill="#ff4206" stroke="none" /><path d="M 79.3925641242962 95.95851677861259 l -9.35646638028224 -1.8349688003624383 a30.534703646346614,30.534703646346614 0 0,0 0.10559293703927017,-0.5149086615717836 l 9.323494147327976 1.9957531180976242" fill="#ff4106" stroke="none" /><path d="M 79.46518482838121 95.60439243477599 l -29.87204159714826 -6.3943001646583655 a51.54874700830635,51.54874700830635 0 0,0 0.19319884440788726,-0.866072536994129 l 29.757548365738337 6.907550871202454" fill="#a1ff22" stroke="none" /><path d="M 79.91906864156998 93.8553929516997 l -23.650758036838802 -7.236945933277004 a45.733211319160915,45.733211319160915 0 0,0 0.23682075907755512,-0.7507865233841116 l 23.52268179399304 7.64298262308753" fill="#e9ff1a" stroke="none" /><path d="M 80.02781315780177 93.51064311812611 l -9.06804203380111 -2.9463854630498805 a30.534703646346614,30.534703646346614 0 0,0 0.16672341685557296,-0.49848179544111737 l 9.015981323173763 3.10204036141332" fill="#ff4106" stroke="none" /><path d="M 80.14247586403 93.16781622104843 l -6.7332307031104 -2.3166367204056484 a28.120618048711812,28.120618048711812 0 0,0 0.161421612928394,-0.456360637016746 l 6.6923560093721965 2.432194983849006" fill="#ff1c02" stroke="none" /><path d="M 80.803312248108 91.48605970444005 l -11.505908788360484 -5.102995982242025 a33.586759115866535,33.586759115866535 0 0,0 0.2389420948866899,-0.5264772331079146 l 11.416364376510444 5.300295224192011" fill="#ff6e0a" stroke="none" /><line stroke="#e1ed5e" stroke-width="0.3" x1="26.266209847984243" x2="21.928928074336255" y1="57.711370442889674" y2="55.22380399835377" /><path d="M 25.398753493254645 57.213857153982495 a86.0,86.0 0 0,1 29.58750427330803,-30.492523968695096" fill="none" id="id11" stroke="none" /><text fill="#e1ed5e" style="font-size:6.75px; font-family:Arial;" text-anchor="middle"><textPath startOffset="21.46611528233685" xlink:href="#id11">November</textPath></text><path d="M 82.15384107792192 88.93136811851018 l -18.705517462718557 -11.601627434319747 a43.0112276502886,43.0112276502886 0 0,0 0.3956467730294459,-0.6258181801545265 l 18.50304309344315 11.921893262188489" fill="#fff116" stroke="none" /><path d="M 82.34701348167596 88.62581576622439 l -45.8490000857473 -29.54145879896097 a75.54198930029564,75.54198930029564 0 0,0 0.7137040404254592,-1.0870202179877 l 45.33369940996392 30.326297080926338" fill="#42ffd5" stroke="none" /><path d="M 82.7489923806493 88.02491185347247 l -15.366862150094573 -10.667175671321514 a39.70639166549345,39.70639166549345 0 0,0 0.3945820406529977,-0.5581083136714523 l 15.180967489637696 10.930110485324754" fill="#ffc512" stroke="none" /><path d="M 82.95767976084542 87.72973835380427 l -18.9406052709218 -13.637003597525021 a44.3391172743911,44.3391172743911 0 0,0 0.45128224236571346,-0.6155484714256539 l 18.703060416042455 13.961014512622176" fill="#fbff18" stroke="none" /><path d="M 83.17141714833178 87.43820079747576 l -7.640740489459383 -5.703477745761038 a30.534703646346614,30.534703646346614 0 0,0 0.31803211169441137,-0.4184929796847469 l 7.541432437540863 5.834155501326812" fill="#ff4106" stroke="none" /><path d="M 83.39014120810768 87.1503855733568 l -25.801470227587895 -19.96037101934008 a53.62104040546248,53.62104040546248 0 0,0 0.571053660999404,-0.7251801580620143 l 25.45406248599452 20.40154357135514" fill="#89ff24" stroke="none" /><path d="M 83.84228863543731 86.58626213691792 l -48.47313409368807 -40.241213589246236 a84.0,84.0 0 0,0 0.9331575460515031,-1.1045642014835364 l 47.77326593414944 41.06963674035889" fill="#4dd2ff" stroke="none" /><path d="M 84.5562425177563 85.77008943001954 l -13.005249023972052 -11.98306375661641 a38.68418273968746,38.68418273968746 0 0,0 0.455428290291295,-0.48581914626351624 l 12.797053411710301 12.205152319757977" fill="#ffb711" stroke="none" /><path d="M 86.93701828274178 83.55741782278169 l -8.399601546277486 -10.57271162663355 a34.50316767563002,34.50316767563002 0 0,0 0.4682037872109612,-0.3654404824435665 l 8.216365203907099 10.715730498300339" fill="#ff7c0b" stroke="none" /><path d="M 88.70189139769569 82.29822771554957 l -12.732271480030901 -19.948805444952203 a44.6657046318457,44.6657046318457 0 0,0 0.6516531640474262,-0.40806515154372397 l 12.386999163611232 20.165014937818857" fill="#f7ff19" stroke="none" /><line stroke="#e1ed5e" stroke-width="0.3" x1="56.762969772571076" x2="54.21961505331055" y1="26.818313649435495" y2="22.513508569990535" /><path d="M 56.25429882871897 25.957352633546506 a86.0,86.0 0 0,1 42.265352541879196,-11.944610805530505" fill="none" id="id12" stroke="none" /><text fill="#e1ed5e" style="font-size:6.75px; font-family:Arial;" text-anchor="middle"><textPath startOffset="22.20632615414155" xlink:href="#id12">December</textPath></text><path d="M 89.63071344664047 81.73862282372117 l -10.090299544112797 -17.77005243788727 a41.43499225679291,41.43499225679291 0 0,0 0.6232531392098666,-0.34683969718843677 l 9.782922315830884 17.94110753263589" fill="#ffdd14" stroke="none" /><path d="M 90.91171255644093 81.06846463323043 l -7.9237597932118335 -16.505743210101578 a39.309165141489515,39.309165141489515 0 0,0 0.6125150157103466,-0.28758401280569285 l 7.6384665662018785 16.63969220554728" fill="#ffc011" stroke="none" /><path d="M 91.90106846888425 80.62456947434976 l -6.715324018029131 -16.065365347103853 a38.41239617063212,38.41239617063212 0 0,0 0.6122499336224807,-0.2497521206049272 l 6.4377902148182695 16.178578353892355" fill="#ffb310" stroke="none" /><path d="M 93.94186890950719 79.89281104454417 l -4.587370237063899 -15.225672536210283 a36.90173166267774,36.90173166267774 0 0,0 0.6097743747568826,-0.17800986110585798 l 4.324605644583595 15.302380726234839" fill="#ff9e0e" stroke="none" /><path d="M 96.04723909329186 79.375362276772 l -3.32392522818073 -17.343511350252133 a38.659158102210334,38.659158102210334 0 0,0 0.6546373921524099,-0.11963079907894882 l 3.0248927149254268 17.39815763068182" fill="#ffb710" stroke="none" /><path d="M 99.63851952072746 79.00311137660856 l -0.5588894176246882 -32.46354790243055 a53.46835844009573,53.46835844009573 0 0,0 0.9203698968972159,-0.007921914273740715 l 7.952454247446437e-15 32.46835844009573" fill="#8bff24" stroke="none" /></svg>