<?xml version="1.0" encoding="utf-8" ?>
<svg baseProfile="full" height="200mm" version="1.1" viewBox="0,0,200,200" width="200mm" xmlns="http://www.w3.org/2000/svg" xmlns:ev="http://www.w3.org/2001/xml-events" xmlns:xlink="http://www.w3.org/1999/xlink"><defs /><rect fill="#1a1a1a" height="200" width="200" x="0" y="0" /><text alignment-baseline="middle" fill="#e1ed5e" style="dominant-baseline: central; font-size:9.0px; font-family:Arial;" text-anchor="middle" x="100.0" y="100.0">2021</text><line stroke="#e1ed5e" stroke-width="0.3" x1="100.0" x2="100.0" y1="15.0" y2="10.0" /><path d="M 100.0 14.0 a86.0,86.0 0 0,1 42.46469731375804,11.215312516191453" fill="none" id="id49" stroke="none" /><text fill="#e1ed5e" style="font-size:6.75px; font-family:Arial;" text-anchor="middle"><textPath startOffset="22.20632615414155" xlink:href="#id49">January</textPath></text><path d="M 100.0 79.0 l 0.0 -53.86958332920068 a74.86958332920068,74.86958332920068 0 0,0 1.2887568030844745,0.011092736679191622 l -0.927276323811946 53.86160196913005" fill="#40ffc3" stroke="none" /><path d="M 100.36148047927253 79.00311137660856 l 0.19302526252020255 -11.212029891058075 a32.21369132043284,32.21369132043284 0 0,0 0.5543414297742236,0.014317003664545939 l -0.385993327489294 11.207046095251169" fill="#ff0c01" stroke="none" /><path d="M 107.76421540070413 80.48803036053334 l 23.23974144843236 -58.40295589039731 a83.85690765004017,83.85690765004017 0 0,0 1.3365837922335901,0.5452260884724721 l -24.241609110254334 57.99426891574126" fill="#4dd4ff" stroke="none" /><path d="M 108.43124777332544 80.76684994638697 l 10.995752652812964 -25.083233989760057 a48.38750086785754,48.38750086785754 0 0,0 0.7599553823296956,0.3409698278836484 l -11.42589015360944 24.890243831359875" fill="#f4ff19" stroke="none" /><path d="M 109.08828744355905 81.06846463323043 l 17.044764316699382 -35.50543053174828 a60.38476339724071,60.38476339724071 0 0,0 0.9331709884372086,0.45790295130903125 l -17.653406572147023 35.20677242030442" fill="#57ff2a" stroke="none" /><path d="M 109.41281617654863 81.2277094730956 l 8.662016580307647 -17.27494606763057 a40.324965533657995,40.324965533657995 0 0,0 0.6178159404190172,0.31646932078393464 l -8.95809300831542 17.123284221534135" fill="#ff910d" stroke="none" /><path d="M 110.36928655335952 81.73862282372117 l 5.187780093079566 -9.136212843556104 a31.506352717137958,31.506352717137958 0 0,0 0.46929952752479215,0.2718485775308626 l -5.344276353069687 9.045560108635192" fill="#ff0000" stroke="none" /><line stroke="#e1ed5e" stroke-width="0.3" x1="143.23703022742887" x2="145.7803849466894" y1="26.81831364943548" y2="22.513508569990506" /><path d="M 143.74570117128098 25.957352633546492 a86.0,86.0 0 0,1 28.547481713284135,27.462654790039103" fill="none" id="id50" stroke="none" /><text fill="#e1ed5e" style="font-size:6.75px; font-family:Arial;" text-anchor="middle"><textPath startOffset="19.985693538727396" xlink:href="#id50">February</textPath></text><path d="M 111.60114157652 82.49532879139004 l 22.503842029789613 -33.95548214489852 a61.735705146643134,61.735705146643134 0 0,0 0.8807489261636274,0.5946856065241709 l -23.084995650359783 33.56308462607568" fill="#47ff2c" stroke="none" /><path d="M 112.19680574252982 82.90503203632743 l 12.536617366174884 -17.571245846794046 a42.58507483411523,42.58507483411523 0 0,0 0.5930573613648288,0.43088139457818897 l -12.8372200438935 17.35284521739918" fill="#ffb410" stroke="none" /><path d="M 112.48926042617603 83.11751280151076 l 19.285187997274583 -26.068952714130692 a53.42697598762187,53.42697598762187 0 0,0 0.7346307052135396,0.553308616675105 l -19.731064856246505 25.73312750794974" fill="#afff20" stroke="none" /><path d="M 113.6212207817346 84.01681056812373 l 20.51917353729441 -24.07727199252948 a52.63465677474386,52.63465677474386 0 0,0 0.6845167224419836,0.5936061563618956 l -20.930584058383157 23.720500842747914" fill="#baff1f" stroke="none" /><path d="M 114.16331599549186 84.49514656593476 l 41.4907348438798 -45.420702526921175 a82.51846304910588,82.51846304910588 0 0,0 1.0404875455604516,0.9670197771692473 l -42.2664302732351 44.69977816367729" fill="#4be2ff" stroke="none" /><path d="M 114.94478906791727 85.2469230424477 l 27.00076314178913 -26.654396708656297 a58.940717891750886,58.940717891750886 0 0,0 0.7065469055403449,0.7281586933857219 l -27.45557431103258 26.18567381972046" fill="#69ff28" stroke="none" /><path d="M 115.9244219780498 86.31012108654704 l 47.773265934149435 -41.069636740358895 a84.0,84.0 0 0,0 0.9331575460515311,1.1045642014835737 l -48.47313409368808 40.241213589246215" fill="#4dd2ff" stroke="none" /><path d="M 116.38621287248628 86.86637796730983 l 27.559125701225188 -22.088761041242968 a56.318816143141945,56.318816143141945 0 0,0 0.5997844483901181,0.7616653403910819 l -27.93526423020927 21.611103306898848" fill="#89ff24" stroke="none" /><path d="M 116.60985879189232 87.15038557335679 l 26.064116018409255 -20.163557403108904 a53.9531059381292,53.9531059381292 0 0,0 0.5619448746812432,0.7394535846427139 l -26.40733683331461 19.711919042585155" fill="#a8ff21" stroke="none" /><path d="M 116.82858285166822 87.43820079747576 l 27.563537238118137 -20.574971947933 a55.39590172877221,55.39590172877221 0 0,0 0.5638178720456981,0.7690469438390632 l -27.91361772267746 20.097462560422443" fill="#95ff23" stroke="none" /><path d="M 117.2510076193507 88.02491185347247 l 50.80597380006823 -35.26785380023413 a82.84713805381708,82.84713805381708 0 0,0 0.803126209386763,1.178488611705989 l -51.40552447512373 34.38808716525773" fill="#4bdeff" stroke="none" /><path d="M 117.65298651832404 88.62581576622439 l 51.94519491851916 -33.469363183919484 a82.79402517282762,82.79402517282762 0 0,0 0.7615962313860936,1.204662340322224 l -52.5136187461512 32.57025319588305" fill="#4bdfff" stroke="none" /><line stroke="#e1ed5e" stroke-width="0.3" x1="172.23445277983987" x2="176.4835382374775" y1="55.19839476539836" y2="52.563006222186495" /><path d="M 173.08426987136738 54.67131705675599 a86.0,86.0 0 0,1 12.851231095245387,41.99856678651699" fill="none" id="id51" stroke="none" /><text fill="#e1ed5e" style="font-size:6.75px; font-family:Arial;" text-anchor="middle"><textPath startOffset="22.20632615414155" xlink:href="#id51">March</textPath></text><path d="M 118.3937258080291 89.86733742301442 l 23.4663535426953 -12.927051584980637 a47.791386885928816,47.791386885928816 0 0,0 0.390733050258612,0.7239690000633192 l -23.685394692172373 12.521201601584858" fill="#fdff18" stroke="none" /><path d="M 119.34039704204932 91.81776055985345 l 41.220752201133216 -17.439045521108987 a65.75791238110352,65.75791238110352 0 0,0 0.432055515439519,1.04625670097287 l -41.51482940345893 16.726914249682814" fill="#32ff4b" stroke="none" /><path d="M 119.47837535516314 92.15188598940014 l 29.89248546416672 -12.044106846970374 a53.227646469555566,53.227646469555566 0 0,0 0.3350970565662753,0.8527854581779695 l -30.095376070614698 11.52777238389662" fill="#b2ff20" stroke="none" /><line stroke="#e1ed5e" stroke-width="0.3" x1="184.98032266829074" x2="189.97916517819016" y1="98.17113171792111" y2="98.06355123074" /><path d="M 185.9800911702706 98.14961562048488 a86.0,86.0 0 0,1 -9.607161424134198,41.387399972396054" fill="none" id="id52" stroke="none" /><text fill="#e1ed5e" style="font-size:6.75px; font-family:Arial;" text-anchor="middle"><textPath startOffset="21.466115282336823" xlink:href="#id52">April</textPath></text><line stroke="#e1ed5e" stroke-width="0.3" x1="174.80103733775053" x2="179.2010983576182" y1="140.37084112569926" y2="142.7455964860345" /><path d="M 175.68104954172406 140.8457921977663 a86.0,86.0 0 0,1 -30.038265399797805,32.042727171017184" fill="none" id="id53" stroke="none" /><text fill="#e1ed5e" style="font-size:6.75px; font-family:Arial;" text-anchor="middle"><textPath startOffset="22.206326154141568" xlink:href="#id53">May</textPath></text><line stroke="#e1ed5e" stroke-width="0.3" x1="143.8653032363475" x2="146.44561519142675" y1="172.8068346515853" y2="177.08958963109032" /><path d="M 144.38136562736335 173.6633856474863 a86.0,86.0 0 0,1 -40.68145358897372,12.25698825130547" fill="none" id="id54" stroke="none" /><text fill="#e1ed5e" style="font-size:6.75px; font-family:Arial;" text-anchor="middle"><textPath startOffset="21.466115282336833" xlink:href="#id54">June</textPath></text><line stroke="#e1ed5e" stroke-width="0.3" x1="102.19456741930631" x2="102.32365962044197" y1="184.97166512339345" y2="189.96999836594603" /><path d="M 102.22038585953345 185.97133177190398 a86.0,86.0 0 0,1 -42.740103519485714,-10.115201625700543" fill="none" id="id55" stroke="none" /><text fill="#e1ed5e" style="font-size:6.75px; font-family:Arial;" text-anchor="middle"><textPath startOffset="22.20632615414155" xlink:href="#id55">July</textPath></text><line stroke="#e1ed5e" stroke-width="0.3" x1="58.666819895761336" x2="56.23545636021788" y1="174.27360380694188" y2="178.64263932499728" /><path d="M 58.180547188652646 175.14741091055294 a86.0,86.0 0 0,1 -31.652253787137756,-30.449443065178592" fill="none" id="id56" stroke="none" /><text fill="#e1ed5e" style="font-size:6.75px; font-family:Arial;" text-anchor="middle"><textPath startOffset="22.20632615414155" xlink:href="#id56">August</textPath></text><line stroke="#e1ed5e" stroke-width="0.3" x1="26.63291911575756" x2="22.317208475507996" y1="142.92168965132927" y2="145.44649492493687" /><path d="M 25.769776987707644 143.4266507060508 a86.0,86.0 0 0,1 -11.730757126820373,-40.83630448921669" fill="none" id="id57" stroke="none" /><text fill="#e1ed5e" style="font-size:6.75px; font-family:Arial;" text-anchor="middle"><textPath startOffset="21.46611528233685" xlink:href="#id57">September</textPath></text><line stroke="#e1ed5e" stroke-width="0.3" x1="15.007084014347285" x2="10.007500721073583" y1="101.09737516637583" y2="101.16192664675087" /><path d="M 14.007167355692545 101.11028546245083 a86.0,86.0 0 0,1 10.666146001902534,-42.60595125391555" fill="none" id="id58" stroke="none" /><text fill="#e1ed5e" style="font-size:6.75px; font-family:Arial;" text-anchor="middle"><textPath startOffset="22.20632615414155" xlink:href="#id58">October</textPath></text><line stroke="#e1ed5e" stroke-width="0.3" x1="26.266209847984243" x2="21.928928074336255" y1="57.711370442889674" y2="55.22380399835377" /><path d="M 25.398753493254645 57.213857153982495 a86.0,86.0 0 0,1 29.58750427330803,-30.492523968695096" fill="none" id="id59" stroke="none" /><text fill="#e1ed5e" style="font-size:6.75px; font-family:Arial;" text-anchor="middle"><textPath startOffset="21.46611528233685" xlink:href="#id59">November</textPath></text><line stroke="#e1ed5e" stroke-width="0.3" x1="56.762969772571076" x2="54.21961505331055" y1="26.818313649435495" y2="22.513508569990535" /><path d="M 56.25429882871897 25.957352633546506 a86.0,86.0 0 0,1 42.265352541879196,-11.944610805530505" fill="none" id="id60" stroke="none" /><text fill="#e1ed5e" style="font-size:6.75px; font-family:Arial;" text-anchor="middle"><textPath startOffset="22.20632615414155" xlink:href="#id60">December</textPath></text></svg>