<?xml version="1.0" encoding="utf-8" ?>
<svg baseProfile="full" height="200mm" version="1.1" viewBox="0,0,200,200" width="200mm" xmlns="http://www.w3.org/2000/svg" xmlns:ev="http://www.w3.org/2001/xml-events" xmlns:xlink="http://www.w3.org/1999/xlink"><defs /><rect fill="#1a1a1a" height="200" width="200" x="0" y="0" /><text alignment-baseline="middle" fill="#e1ed5e" style="dominant-baseline: central; font-size:9.0px; font-family:Arial;" text-anchor="middle" x="100.0" y="100.0">2021</text><line stroke="#e1ed5e" stroke-width="0.3" x1="100.0" x2="100.0" y1="15.0" y2="10.0" /><path d="M 100.0 14.0 a86.0,86.0 0 0,1 42.46469731375804,11.215312516191453" fill="none" id="id49" stroke="none" /><text fill="#e1ed5e" style="font-size:6.75px; font-family:Arial;" text-anchor="middle"><textPath startOffset="22.20632615414155" xlink:href="#id49">January</textPath></text><path d="M 100.0 79.0 l 0.0 -8.184835287380572 a29.184835287380572,29.184835287380572 0 0,0 0.5023689641510537,0.004324048277990446 l -0.14088848487852532 8.18362261571114" fill="#ff5e08" stroke="none" /><path d="M 100.36148047927253 79.00311137660856 l 0.029327867089234745 -1.7035330927787893 a22.703785526989964,22.703785526989964 0 0,0 0.3906925414144012,0.010090435689461151 l -0.05864704369850374 1.7027758649469684" fill="#ff0200" stroke="none" /><path d="M 107.76421540070413 80.48803036053334 l 3.5309992043993126 -8.873626724339987 a30.550351125712048,30.550351125712048 0 0,0 0.4869378719768756,0.19863418426120064 l -3.6832209459645755 8.811531653895207" fill="#ff710a" stroke="none" /><path d="M 108.43124777332544 80.76684994638697 l 1.6706723676339872 -3.8110957240266092 a25.161201362307484,25.161201362307484 0 0,0 0.3951721014355723,0.17730220292386975 l -1.7360265875363396 3.7817731905862084" fill="#ff2503" stroke="none" /><path d="M 109.08828744355905 81.06846463323043 l 2.589746937373914 -5.394623138886732 a26.98404111034088,26.98404111034088 0 0,0 0.4170046034513022,0.20462234788244496 l -2.682222807835648 5.349245630869455" fill="#ff3f06" stroke="none" /><path d="M 109.41281617654863 81.2277094730956 l 1.3160892396943213 -2.624720285989205 a23.936196087886916,23.936196087886916 0 0,0 0.36672476468079396,0.1878506681366403 l -1.3610744919638709 2.601677092540064" fill="#ff1402" stroke="none" /><path d="M 110.36928655335952 81.73862282372117 l 0.7882207907480042 -1.388137658648326 a22.59631393351216,22.59631393351216 0 0,0 0.3365809920305635,0.1949694353838905 l -0.8119985152438961 1.374364065874386" fill="#ff0000" stroke="none" /><line stroke="#e1ed5e" stroke-width="0.3" x1="143.23703022742887" x2="145.7803849466894" y1="26.81831364943548" y2="22.513508569990506" /><path d="M 143.74570117128098 25.957352633546492 a86.0,86.0 0 0,1 28.547481713284135,27.462654790039103" fill="none" id="id50" stroke="none" /><text fill="#e1ed5e" style="font-size:6.75px; font-family:Arial;" text-anchor="middle"><textPath startOffset="19.985693538727396" xlink:href="#id50">February</textPath></text><path d="M 111.60114157652 82.49532879139004 l 3.4191881385356364 -5.159127123022247 a27.189300461135055,27.189300461135055 0 0,0 0.3878946085964814,0.2619081712485665 l -3.5074874415386597 5.099507039475011" fill="#ff4206" stroke="none" /><path d="M 112.19680574252982 82.90503203632743 l 1.9047882285630215 -2.6697394737805777 a24.27959251333675,24.27959251333675 0 0,0 0.3381276451212771,0.2456641140749107 l -1.9504611900380875 2.636556124888992" fill="#ff1902" stroke="none" /><path d="M 112.48926042617603 83.11751280151076 l 2.9301523696452807 -3.960863828772414 a25.92688899605172,25.92688899605172 0 0,0 0.3564994723185424,0.2685080115411736 l -2.997897995722206 3.909839227725393" fill="#ff3004" stroke="none" /><path d="M 113.6212207817346 84.01681056812373 l 3.117641631077842 -3.658251897439344 a25.806505621025348,25.806505621025348 0 0,0 0.3356150819218648,0.29104209183670615 l -3.1801505116464712 3.6040448121829667" fill="#ff2f04" stroke="none" /><path d="M 114.16331599549186 84.49514656593476 l 6.304018142747659 -6.901129465734006 a30.34699056632207,30.34699056632207 0 0,0 0.3826497072625829,0.35563120022895284 l -6.421875733805089 6.791593679430412" fill="#ff6e0a" stroke="none" /><path d="M 114.94478906791727 85.2469230424477 l 4.102441216197904 -4.049815002496841 a26.7646357635854,26.7646357635854 0 0,0 0.3208388233649653,0.33065261000637897 l -4.1715443032659785 3.9785981969403474" fill="#ff3c05" stroke="none" /><path d="M 115.9244219780498 86.31012108654704 l 7.258573180744972 -6.240037350542821 a30.572092287290154,30.572092287290154 0 0,0 0.33962593591034074,0.40200998458324727 l -7.36490973014243 6.114168416330466" fill="#ff720a" stroke="none" /><path d="M 116.38621287248628 86.86637796730983 l 4.187277691573928 -3.356121574582175 a26.366269326983936,26.366269326983936 0 0,0 0.280795644997166,0.3565819539021972 l -4.244427417165058 3.2835472267269394" fill="#ff3705" stroke="none" /><path d="M 116.60985879189232 87.15038557335679 l 3.9601289510293785 -3.063610036549697 a26.0068281141686,26.0068281141686 0 0,0 0.2708723346202199,0.3564362410620415 l -4.012277225873712 2.994989019606622" fill="#ff3204" stroke="none" /><path d="M 116.82858285166822 87.43820079747576 l 4.187947971546438 -3.12611952847652 a26.22604358178366,26.22604358178366 0 0,0 0.2669279066321055,0.36408936466657693 l -4.24113849069217 3.0535677201384495" fill="#ff3505" stroke="none" /><path d="M 117.2510076193507 88.02491185347247 l 7.719356666030137 -5.358526211912662 a30.396928780252566,30.396928780252566 0 0,0 0.29467004849854156,0.4323919357974152 l -7.810451180197412 5.22485625284484" fill="#ff6f0a" stroke="none" /><path d="M 117.65298651832404 88.62581576622439 l 7.892447613354618 -5.085267193544583 a30.388858916784713,30.388858916784713 0 0,0 0.27953756782370603,0.4421613012049852 l -7.97881277742428 4.948658244625392" fill="#ff6f0a" stroke="none" /><line stroke="#e1ed5e" stroke-width="0.3" x1="172.23445277983987" x2="176.4835382374775" y1="55.19839476539836" y2="52.563006222186495" /><path d="M 173.08426987136738 54.67131705675599 a86.0,86.0 0 0,1 12.851231095245387,41.99856678651699" fill="none" id="id51" stroke="none" /><text fill="#e1ed5e" style="font-size:6.75px; font-family:Arial;" text-anchor="middle"><textPath startOffset="22.20632615414155" xlink:href="#id51">March</textPath></text><path d="M 118.3937258080291 89.86733742301442 l 3.5654301866167866 -1.9641100122856359 a25.070629012327075,25.070629012327075 0 0,0 0.20497256899595892,0.37978304041134386 l -3.5987108548312103 1.9024459885418334" fill="#ff2403" stroke="none" /><path d="M 119.34039704204932 91.81776055985345 l 6.262997527313743 -2.6496532242906223 a27.800426474577293,27.800426474577293 0 0,0 0.18265980708602253,0.4423252113047382 l -6.3076790212859635 2.541453442532581" fill="#ff4b07" stroke="none" /><path d="M 119.47837535516314 92.15188598940014 l 4.541803643801321 -1.8299571786854543 a25.896603273154707,25.896603273154707 0 0,0 0.16303323756503432,0.4149018067177137 l -4.572630431248056 1.7515063670719562" fill="#ff3004" stroke="none" /><path d="M 119.7369772167798 92.82701384747503 l 9.060634185132788 -3.2928955041706027 a30.640448777841407,30.640448777841407 0 0,0 0.17588627156064846,0.49725417480200423 l -9.115973537503246 3.136443702941984" fill="#ff720a" stroke="none" /><path d="M 119.85752413597 93.16781622104841 l 59.57257240790998 -20.496551336854747 a84.0,84.0 0 0,0 0.45865082491291975,1.371307588310744 l -59.91656052659467 19.46807064562169" fill="#4dd2ff" stroke="none" /><path d="M 120.18372546131832 94.20196356495316 l 7.615388540154511 -2.1876189461392963 a28.923371711022035,28.923371711022035 0 0,0 0.1333411914977876,0.4796992111410011 l -7.651916502218661 2.0562084315793436" fill="#ff5b08" stroke="none" /><path d="M 120.37134235888165 94.90015583598534 l 6.145294569933106 -1.538437874957238 a27.334937761837306,27.334937761837306 0 0,0 0.11033838710074916,0.457423848627648 l -6.170865757294675 1.432428794670184" fill="#ff4406" stroke="none" /><path d="M 120.45610955862082 95.25157060432595 l 7.976458525412369 -1.8515568674924823 a29.188537930618764,29.188537930618764 0 0,0 0.10939532239731559,0.4903977800400582 l -8.007148234811721 1.7139809179024603" fill="#ff5e08" stroke="none" /><path d="M 120.53481517161879 95.60439243477599 l 14.469868434442834 -3.097367209135642 a35.797661171222764,35.797661171222764 0 0,0 0.12379292185002731,0.6036582511020844 l -14.521040652207859 2.847833301870146" fill="#ffb711" stroke="none" /><path d="M 120.67395015179393 96.31383870115 l 7.760161815845844 -1.3836353453673331 a28.8825476958317,28.8825476958317 0 0,0 0.0830553947573642,0.490197641354289 l -7.782829072123431 1.2498519156972063" fill="#ff5a08" stroke="none" /><path d="M 120.78858239683441 97.02765380044208 l 6.220973413957308 -0.8894731892513518 a27.284240031345128,27.284240031345128 0 0,0 0.06247311539873441,0.46549727399695173 l -6.235362528413878 0.7822575731897357" fill="#ff4406" stroke="none" /><path d="M 120.87857604477298 97.74499172005257 l 20.057912524209065 -2.166371821696927 a41.17456373007023,41.17456373007023 0 0,0 0.07004160786754117,0.7053094326798064 l -20.092231257758833 1.8207868583126858" fill="#fffb17" stroke="none" /><path d="M 120.96714384426684 98.82574320788733 l 6.196110451751172 -0.34701077250626927 a27.20581994635161,27.20581994635161 0 0,0 0.02216159115863079,0.467796162754382 l -6.201165651143299 0.24030350312888746" fill="#ff4306" stroke="none" /><line stroke="#e1ed5e" stroke-width="0.3" x1="184.98032266829074" x2="189.97916517819016" y1="98.17113171792111" y2="98.06355123074" /><path d="M 185.9800911702706 98.14961562048488 a86.0,86.0 0 0,1 -9.607161424134198,41.387399972396054" fill="none" id="id52" stroke="none" /><text fill="#e1ed5e" style="font-size:6.75px; font-family:Arial;" text-anchor="middle"><textPath startOffset="21.466115282336823" xlink:href="#id52">April</textPath></text><path d="M 120.9764740272857 100.99374915477107 l 6.292183542498597 0.2980888050531666 a27.299240483438318,27.299240483438318 0 0,0 -0.026277012769960816,0.4691937149063772 l -6.286120178841107 -0.4063542362949671" fill="#ff4406" stroke="none" /><path d="M 120.95626037817324 101.35467743843564 l 7.855802757937408 0.5078233694816291 a28.872199282678803,28.872199282678803 0 0,0 -0.03632870780844834,0.4956763547535423 l -7.845897491464622 -0.6429728607319416" fill="#ff5a08" stroke="none" /><path d="M 120.89721153311464 102.0752229133903 l 9.446731256001687 0.9381190944078613 a30.493197504445583,30.493197504445583 0 0,0 -0.056365511761735515,0.5218746352662496 l -9.4291834427389 -1.1005900515589024" fill="#ff700a" stroke="none" /><path d="M 120.81339534386255 102.79330883721812 l 9.28341166655174 1.2459012774847122 a30.366643057355553,30.366643057355553 0 0,0 -0.07398752902236816,0.5174686056585406 l -9.26059008651277 -1.405515355123662" fill="#ff6f0a" stroke="none" /><line stroke="#e1ed5e" stroke-width="0.3" x1="174.80103733775053" x2="179.2010983576182" y1="140.37084112569926" y2="142.7455964860345" /><path d="M 175.68104954172406 140.8457921977663 a86.0,86.0 0 0,1 -30.038265399797805,32.042727171017184" fill="none" id="id53" stroke="none" /><text fill="#e1ed5e" style="font-size:6.75px; font-family:Arial;" text-anchor="middle"><textPath startOffset="22.206326154141568" xlink:href="#id53">May</textPath></text><line stroke="#e1ed5e" stroke-width="0.3" x1="143.8653032363475" x2="146.44561519142675" y1="172.8068346515853" y2="177.08958963109032" /><path d="M 144.38136562736335 173.6633856474863 a86.0,86.0 0 0,1 -40.68145358897372,12.25698825130547" fill="none" id="id54" stroke="none" /><text fill="#e1ed5e" style="font-size:6.75px; font-family:Arial;" text-anchor="middle"><textPath startOffset="21.466115282336833" xlink:href="#id54">June</textPath></text><line stroke="#e1ed5e" stroke-width="0.3" x1="102.19456741930631" x2="102.32365962044197" y1="184.97166512339345" y2="189.96999836594603" /><path d="M 102.22038585953345 185.97133177190398 a86.0,86.0 0 0,1 -42.740103519485714,-10.115201625700543" fill="none" id="id55" stroke="none" /><text fill="#e1ed5e" style="font-size:6.75px; font-family:Arial;" text-anchor="middle"><textPath startOffset="22.20632615414155" xlink:href="#id55">July</textPath></text><line stroke="#e1ed5e" stroke-width="0.3" x1="58.666819895761336" x2="56.23545636021788" y1="174.27360380694188" y2="178.64263932499728" /><path d="M 58.180547188652646 175.14741091055294 a86.0,86.0 0 0,1 -31.652253787137756,-30.449443065178592" fill="none" id="id56" stroke="none" /><text fill="#e1ed5e" style="font-size:6.75px; font-family:Arial;" text-anchor="middle"><textPath startOffset="22.20632615414155" xlink:href="#id56">August</textPath></text><line stroke="#e1ed5e" stroke-width="0.3" x1="26.63291911575756" x2="22.317208475507996" y1="142.92168965132927" y2="145.44649492493687" /><path d="M 25.769776987707644 143.4266507060508 a86.0,86.0 0 0,1 -11.730757126820373,-40.83630448921669" fill="none" id="id57" stroke="none" /><text fill="#e1ed5e" style="font-size:6.75px; font-family:Arial;" text-anchor="middle"><textPath startOffset="21.46611528233685" xlink:href="#id57">September</textPath></text><line stroke="#e1ed5e" stroke-width="0.3" x1="15.007084014347285" x2="10.007500721073583" y1="101.09737516637583" y2="101.16192664675087" /><path d="M 14.007167355692545 101.11028546245083 a86.0,86.0 0 0,1 10.666146001902534,-42.60595125391555" fill="none" id="id58" stroke="none" /><text fill="#e1ed5e" style="font-size:6.75px; font-family:Arial;" text-anchor="middle"><textPath startOffset="22.20632615414155" xlink:href="#id58">October</textPath></text><line stroke="#e1ed5e" stroke-width="0.3" x1="26.266209847984243" x2="21.928928074336255" y1="57.711370442889674" y2="55.22380399835377" /><path d="M 25.398753493254645 57.213857153982495 a86.0,86.0 0 0,1 29.58750427330803,-30.492523968695096" fill="none" id="id59" stroke="none" /><text fill="#e1ed5e" style="font-size:6.75px; font-family:Arial;" text-anchor="middle"><textPath startOffset="21.46611528233685" xlink:href="#id59">November</textPath></text><line stroke="#e1ed5e" stroke-width="0.3" x1="56.762969772571076" x2="54.21961505331055" y1="26.818313649435495" y2="22.513508569990535" /><path d="M 56.25429882871897 25.957352633546506 a86.0,86.0 0 0,1 42.265352541879196,-11.944610805530505" fill="none" id="id60" stroke="none" /><text fill="#e1ed5e" style="font-size:6.75px; font-family:Arial;" text-anchor="middle"><textPath startOffset="22.20632615414155" xlink:href="#id60">December</textPath></text></svg>