<?xml version="1.0" encoding="utf-8" ?>
<svg baseProfile="full" height="200mm" version="1.1" viewBox="0,0,200,200" width="200mm" xmlns="http://www.w3.org/2000/svg" xmlns:ev="http://www.w3.org/2001/xml-events" xmlns:xlink="http://www.w3.org/1999/xlink"><defs /><rect fill="#1a1a1a" height="200" width="200" x="0" y="0" /><text alignment-baseline="middle" fill="#e1ed5e" style="dominant-baseline: central; font-size:9.0px; font-family:Arial;" text-anchor="middle" x="100.0" y="100.0">2018</text><line stroke="#e1ed5e" stroke-width="0.3" x1="100.0" x2="100.0" y1="15.0" y2="10.0" /><path d="M 100.0 14.0 a86.0,86.0 0 0,1 42.46469731375804,11.215312516191453" fill="none" id="id13" stroke="none" /><text fill="#e1ed5e" style="font-size:6.75px; font-family:Arial;" text-anchor="middle"><textPath startOffset="22.20632615414155" xlink:href="#id13">January</textPath></text><path d="M 100.36148047927253 79.00311137660856 l 0.4114012730346536 -23.896578666748916 a44.90011972738994,44.90011972738994 0 0,0 0.772652730763819,0.01995534048803184 l -0.8226806389933404 23.885956534118524" fill="#ffde14" stroke="none" /><path d="M 101.80526077348638 79.07773832637324 l 2.9144703194722257 -33.777563640434735 a54.903066863142385,54.903066863142385 0 0,0 0.9408682957013901,0.08934678164260255 l -3.49546374226386 33.722391314276955" fill="#97ff23" stroke="none" /><path d="M 104.307194497241 79.44645832069477 l 5.998654926070957 -28.625037509159473 a50.2468226192669,50.2468226192669 0 0,0 0.8450014760076758,0.18468459379897617 l -6.4904991262321605 28.517539417264626" fill="#d5ff1c" stroke="none" /><path d="M 109.41281617654863 81.2277094730956 l 7.627866046919445 -15.212505465668796 a38.01777491250691,38.01777491250691 0 0,0 0.5824676363481149,0.29836254650323973 l -7.888594170856316 15.078950393853056" fill="#ff750a" stroke="none" /><line stroke="#e1ed5e" stroke-width="0.3" x1="143.23703022742887" x2="145.7803849466894" y1="26.81831364943548" y2="22.513508569990506" /><path d="M 143.74570117128098 25.957352633546492 a86.0,86.0 0 0,1 28.547481713284135,27.462654790039103" fill="none" id="id14" stroke="none" /><text fill="#e1ed5e" style="font-size:6.75px; font-family:Arial;" text-anchor="middle"><textPath startOffset="19.985693538727396" xlink:href="#id14">February</textPath></text><path d="M 113.34407831869373 83.78471172551755 l 6.277542093561204 -7.628264183648586 a30.879167434149934,30.879167434149934 0 0,0 0.4075204056834345,0.3412866201004126 l -6.407920036203755 7.519076406154354" fill="#ff0000" stroke="none" /><line stroke="#e1ed5e" stroke-width="0.3" x1="172.23445277983987" x2="176.4835382374775" y1="55.19839476539836" y2="52.563006222186495" /><path d="M 173.08426987136738 54.67131705675599 a86.0,86.0 0 0,1 12.851231095245387,41.99856678651699" fill="none" id="id15" stroke="none" /><text fill="#e1ed5e" style="font-size:6.75px; font-family:Arial;" text-anchor="middle"><textPath startOffset="22.20632615414155" xlink:href="#id15">March</textPath></text><line stroke="#e1ed5e" stroke-width="0.3" x1="184.98032266829074" x2="189.97916517819016" y1="98.17113171792111" y2="98.06355123074" /><path d="M 185.9800911702706 98.14961562048488 a86.0,86.0 0 0,1 -9.607161424134198,41.387399972396054" fill="none" id="id16" stroke="none" /><text fill="#e1ed5e" style="font-size:6.75px; font-family:Arial;" text-anchor="middle"><textPath startOffset="21.466115282336823" xlink:href="#id16">April</textPath></text><path d="M 120.13307415673323 105.97154293290107 l 32.7491578335073 9.713519182252606 a55.15932952661632,55.15932952661632 0 0,0 -0.2778276338299038,0.9079567823554365 l -32.57710342717126 -10.2758029371601" fill="#94ff23" stroke="none" /><path d="M 119.9155931802556 106.66101706037122 l 20.095343422626662 6.721136757545321 a42.18953766807883,42.18953766807883 0 0,0 -0.23627983181104836,0.686739791380549 l -19.976672759872386 -7.06604925201517" fill="#ffb610" stroke="none" /><line stroke="#e1ed5e" stroke-width="0.3" x1="174.80103733775053" x2="179.2010983576182" y1="140.37084112569926" y2="142.7455964860345" /><path d="M 175.68104954172406 140.8457921977663 a86.0,86.0 0 0,1 -30.038265399797805,32.042727171017184" fill="none" id="id17" stroke="none" /><text fill="#e1ed5e" style="font-size:6.75px; font-family:Arial;" text-anchor="middle"><textPath startOffset="22.206326154141568" xlink:href="#id17">May</textPath></text><path d="M 117.75023020441432 111.22182372390056 l 47.95120555474601 30.315098445881556 a77.73026800515748,77.73026800515748 0 0,0 -0.7247242116099192,1.1247880704325681 l -47.42227647975904 -31.136008116235576" fill="#44ffe6" stroke="none" /><path d="M 117.14729908036423 112.12312394758627 l 26.61479382956147 18.816633623933633 a53.59467673604715,53.59467673604715 0 0,0 -0.5390608927500157,0.748708432431728 l -26.286953144435852 -19.271975661816494" fill="#a8ff21" stroke="none" /><path d="M 116.27256486870786 113.27417163493432 l 39.03961858053097 31.846153435643917 a71.38123963897587,71.38123963897587 0 0,0 -0.7848673221522424,0.9454232504212117 l -38.48565525848518 -32.5134379431789" fill="#3bff99" stroke="none" /><path d="M 114.29624159901734 115.38237550388516 l 21.563848853224005 23.202127501266823 a52.67551574875668,52.67551574875668 0 0,0 -0.6694818516861172,0.6115557982537736 l -21.161267452071023 -23.56987606610718" fill="#b4ff20" stroke="none" /><path d="M 112.63410532772338 116.77436683061366 l 33.60261274940057 44.61436232359406 a76.85317277583349,76.85317277583349 0 0,0 -1.0635565276036207,0.7867936930756109 l -32.829671251378386 -45.186165965409444" fill="#43ffdc" stroke="none" /><line stroke="#e1ed5e" stroke-width="0.3" x1="143.8653032363475" x2="146.44561519142675" y1="172.8068346515853" y2="177.08958963109032" /><path d="M 144.38136562736335 173.6633856474863 a86.0,86.0 0 0,1 -40.68145358897372,12.25698825130547" fill="none" id="id18" stroke="none" /><text fill="#e1ed5e" style="font-size:6.75px; font-family:Arial;" text-anchor="middle"><textPath startOffset="21.466115282336833" xlink:href="#id18">June</textPath></text><path d="M 110.5260780823613 118.17145234162733 l 31.578234247083873 54.514357024881974 a84.0,84.0 0 0,0 -1.2574049323152037,0.7139873368214862 l -30.635180547847472 -55.049847527498095" fill="#4dd2ff" stroke="none" /><path d="M 105.88484417918355 120.15858648285463 l 13.305937283205544 45.579607427456494 a68.4820869405047,68.4820869405047 0 0,0 -1.1344182661786764,0.32059793341987924 l -12.519387848922262 -45.80189415421489" fill="#37ff73" stroke="none" /><line stroke="#e1ed5e" stroke-width="0.3" x1="102.19456741930631" x2="102.32365962044197" y1="184.97166512339345" y2="189.96999836594603" /><path d="M 102.22038585953345 185.97133177190398 a86.0,86.0 0 0,1 -42.740103519485714,-10.115201625700543" fill="none" id="id19" stroke="none" /><text fill="#e1ed5e" style="font-size:6.75px; font-family:Arial;" text-anchor="middle"><textPath startOffset="22.20632615414155" xlink:href="#id19">July</textPath></text><line stroke="#e1ed5e" stroke-width="0.3" x1="58.666819895761336" x2="56.23545636021788" y1="174.27360380694188" y2="178.64263932499728" /><path d="M 58.180547188652646 175.14741091055294 a86.0,86.0 0 0,1 -31.652253787137756,-30.449443065178592" fill="none" id="id20" stroke="none" /><text fill="#e1ed5e" style="font-size:6.75px; font-family:Arial;" text-anchor="middle"><textPath startOffset="22.20632615414155" xlink:href="#id20">August</textPath></text><line stroke="#e1ed5e" stroke-width="0.3" x1="26.63291911575756" x2="22.317208475507996" y1="142.92168965132927" y2="145.44649492493687" /><path d="M 25.769776987707644 143.4266507060508 a86.0,86.0 0 0,1 -11.730757126820373,-40.83630448921669" fill="none" id="id21" stroke="none" /><text fill="#e1ed5e" style="font-size:6.75px; font-family:Arial;" text-anchor="middle"><textPath startOffset="21.46611528233685" xlink:href="#id21">September</textPath></text><line stroke="#e1ed5e" stroke-width="0.3" x1="15.007084014347285" x2="10.007500721073583" y1="101.09737516637583" y2="101.16192664675087" /><path d="M 14.007167355692545 101.11028546245083 a86.0,86.0 0 0,1 10.666146001902534,-42.60595125391555" fill="none" id="id22" stroke="none" /><text fill="#e1ed5e" style="font-size:6.75px; font-family:Arial;" text-anchor="middle"><textPath startOffset="22.20632615414155" xlink:href="#id22">October</textPath></text><line stroke="#e1ed5e" stroke-width="0.3" x1="26.266209847984243" x2="21.928928074336255" y1="57.711370442889674" y2="55.22380399835377" /><path d="M 25.398753493254645 57.213857153982495 a86.0,86.0 0 0,1 29.58750427330803,-30.492523968695096" fill="none" id="id23" stroke="none" /><text fill="#e1ed5e" style="font-size:6.75px; font-family:Arial;" text-anchor="middle"><textPath startOffset="21.46611528233685" xlink:href="#id23">November</textPath></text><line stroke="#e1ed5e" stroke-width="0.3" x1="56.762969772571076" x2="54.21961505331055" y1="26.818313649435495" y2="22.513508569990535" /><path d="M 56.25429882871897 25.957352633546506 a86.0,86.0 0 0,1 42.265352541879196,-11.944610805530505" fill="none" id="id24" stroke="none" /><text fill="#e1ed5e" style="font-size:6.75px; font-family:Arial;" text-anchor="middle"><textPath startOffset="22.20632615414155" xlink:href="#id24">December</textPath></text></svg>