<?xml version="1.0" encoding="utf-8" ?>
<svg baseProfile="full" height="200mm" version="1.1" viewBox="0,0,200,200" width="200mm" xmlns="http://www.w3.org/2000/svg" xmlns:ev="http://www.w3.org/2001/xml-events" xmlns:xlink="http://www.w3.org/1999/xlink"><defs /><rect fill="#1a1a1a" height="200" width="200" x="0" y="0" /><text alignment-baseline="middle" fill="#e1ed5e" style="dominant-baseline: central; font-size:9.0px; font-family:Arial;" text-anchor="middle" x="100.0" y="100.0">2024</text><line stroke="#e1ed5e" stroke-width="0.3" x1="100.0" x2="100.0" y1="15.0" y2="10.0" /><path d="M 100.0 14.0 a86.0,86.0 0 0,1 42.35913384403234,11.155469271406648" fill="none" id="id85" stroke="none" /><text fill="#e1ed5e" style="font-size:6.75px; font-family:Arial;" text-anchor="middle"><textPath startOffset="22.145653131862478" xlink:href="#id85">January</textPath></text><path d="M 101.80034050326958 79.07731436759882 l 1.6200501500046338 -18.827438440513614 a39.897010364601584,39.897010364601584 0 0,0 0.6818597352137226,0.06457282585163326 l -1.9430094486033693 18.796853859156798" fill="#ffc812" stroke="none" /><path d="M 106.72888874123014 80.10723608172694 l 8.672032593241706 -25.637323442709974 a48.064303105832465,48.064303105832465 0 0,0 0.7793151322959359,0.27108625701681727 l -9.11085349758266 25.484678753124566" fill="#cbff1d" stroke="none" /><path d="M 107.06938296918511 80.22567764915836 l 5.112815642773355 -14.301455315311626 a36.18790663432071,36.18790663432071 0 0,0 0.5831609611419906,0.21414478255231786 l -5.35756575556947 14.211579683750585" fill="#ff940d" stroke="none" /><path d="M 107.74402155503746 80.48000691201159 l 8.697947191975562 -21.92450884341963 a44.58682626763468,44.58682626763468 0 0,0 0.7090272248454056,0.2883551998014228 l -9.073028878011408 21.771966387038916" fill="#f8ff18" stroke="none" /><path d="M 109.3889696526874 81.21577127319529 l 26.797032722873485 -53.612016066326234 a80.93604282438719,80.93604282438719 0 0,0 1.2374457206254645,0.6318486021012032 l -27.713405665212527 53.1441095125522" fill="#49f0ff" stroke="none" /><line stroke="#e1ed5e" stroke-width="0.3" x1="143.13028292997686" x2="145.6673583964461" y1="26.7553504044142" y2="22.446841604673864" /><path d="M 143.63769802327073 25.89364864446614 a86.0,86.0 0 0,1 29.32050498858742,28.57503671076993" fill="none" id="id86" stroke="none" /><text fill="#e1ed5e" style="font-size:6.75px; font-family:Arial;" text-anchor="middle"><textPath startOffset="20.669276256404974" xlink:href="#id86">February</textPath></text><path d="M 110.65571695917076 81.90426304109057 l 6.938581114411224 -11.783227650991714 a34.674368788224186,34.674368788224186 0 0,0 0.510319599023209,0.3064322565404119 l -7.139833469991867 11.66238139391538" fill="#ff7f0b" stroke="none" /><path d="M 111.5731344415666 82.4767994020092 l 15.119822114974106 -22.893337778487254 a48.43563258662668,48.43563258662668 0 0,0 0.6898703569061856,0.46417556406229793 l -15.510588759977292 22.63041254036784" fill="#c7ff1e" stroke="none" /><path d="M 112.16784306229584 82.88440491214696 l 13.489107878696709 -18.97411951864701 a44.28031878800243,44.28031878800243 0 0,0 0.6157473310852895,0.445753582625622 l -13.812836220155965 18.739765164648315" fill="#fcff18" stroke="none" /><path d="M 113.03279911837588 83.53348406188908 l 14.314987627473986 -18.086519233562445 a44.066015016919536,44.066015016919536 0 0,0 0.5891190366435107,0.474552594371507 l -14.623357434472757 17.83811834539753" fill="#feff18" stroke="none" /><path d="M 113.59037401385872 83.9905735841838 l 26.901501610950447 -31.689901254835988 a62.568505271000845,62.568505271000845 0 0,0 0.8128558170711748,0.7021254947630211 l -27.44153690778448 31.22343162760825" fill="#30ff3a" stroke="none" /><path d="M 114.13192950727249 84.46653392183569 l 13.650271001321212 -15.004039005972695 a41.284257070503244,41.284257070503244 0 0,0 0.520123111156005,0.4814181866988224 l -13.905823883791182 14.767503073141498" fill="#ffdb14" stroke="none" /><path d="M 114.65682725009322 84.96080404539774 l 9.505528951412906 -9.753510095545026 a34.61932596827199,34.61932596827199 0 0,0 0.42203938893010656,0.4184322363408334 l -9.671560260472974 9.588897848975535" fill="#ff7e0b" stroke="none" /><path d="M 115.41159269507618 85.73525988315684 l 23.943233439379636 -22.161499419769797 a53.62530435206826,53.62530435206826 0 0,0 0.6195058156602777,0.6809454128562028 l -24.32013695588179 21.747216431355923" fill="#89ff24" stroke="none" /><path d="M 115.8921839302757 86.27271002978787 l 17.07444699356074 -14.748500645975007 a43.56224748202715,43.56224748202715 0 0,0 0.48396710301931184,0.5701120304387821 l -17.325108660087167 14.453221833086673" fill="#fff917" stroke="none" /><path d="M 116.35404254752997 86.82634096563983 l 11.235076874997171 -9.050182641134914 a35.4268069310224,35.4268069310224 0 0,0 0.37743647455476126,0.47687865572310845 l -11.388779780193492 8.855984041497127" fill="#ff890c" stroke="none" /><path d="M 117.01052211995028 87.68569379921539 l 22.286462912381516 -16.133680465552814 a48.513307225950086,48.513307225950086 0 0,0 0.48255701904182535,0.678776879553453 l -22.5601350299533 15.748726359289858" fill="#c6ff1e" stroke="none" /><path d="M 117.42321728460499 88.27688183743584 l 11.681442735534532 -7.859795998693056 a35.079506295486496,35.079506295486496 0 0,0 0.3318781236018934,0.5025057786482859 l -11.81464529805715 7.6581103417057115" fill="#ff850c" stroke="none" /><path d="M 117.81537515405839 88.88188828441811 l 20.197880054272936 -12.604970982616324 a44.80839457333056,44.80839457333056 0 0,0 0.4016369200011198,0.6560437246354793 l -20.411284938729455 12.25639014185629" fill="#f5ff19" stroke="none" /><line stroke="#e1ed5e" stroke-width="0.3" x1="172.87174338648825" x2="177.1583165268699" y1="56.24261187166439" y2="53.66864786411523" /><path d="M 173.72905801456457 55.72781907015455 a86.0,86.0 0 0,1 12.242430191666344,42.057860355516425" fill="none" id="id87" stroke="none" /><text fill="#e1ed5e" style="font-size:6.75px; font-family:Arial;" text-anchor="middle"><textPath startOffset="22.145653131862474" xlink:href="#id87">March</textPath></text><path d="M 118.36410011445183 89.81374322990088 l 23.701913203036842 -13.147051710894166 a48.10397864102644,48.10397864102644 0 0,0 0.39434874405033316,0.7255572726279069 l -23.924107296702516 12.738239604791657" fill="#cbff1d" stroke="none" /><path d="M 119.0197475246899 91.09779779509293 l 20.254248320878624 -9.4800109111228 a43.36303159052506,43.36303159052506 0 0,0 0.30976801855047276,0.6768990247593725 l -20.414000804284147 9.130922904148743" fill="#fff617" stroke="none" /><path d="M 119.4528033332814 92.08871423366111 l 25.22819267570289 -10.260086333380713 a48.234740264060065,48.234740264060065 0 0,0 0.30535191825566543,0.7696863046406863 l -25.400603268924677 9.825499011526462" fill="#c9ff1d" stroke="none" /><path d="M 119.71291397450082 92.76114493625339 l 18.93770028182036 -6.954185857965843 a41.174171430598854,41.174171430598854 0 0,0 0.2379471639713813,0.665580566698469 l -19.054287615835683 6.628070334886457" fill="#ffd914" stroke="none" /><path d="M 120.26092885502905 94.47779374421319 l 34.81385393295243 -9.48867069975813 a57.08378163820134,57.08378163820134 0 0,0 0.24956626808726998,0.9476437696763358 l -34.971609681844434 8.889646425708996" fill="#62ff29" stroke="none" /><path d="M 120.43855184770803 95.1765574152323 l 19.914351610278846 -4.699732756057664 a41.46139995298897,41.46139995298897 0 0,0 0.1575318752791429,0.694114509061571 l -19.992094347115657 4.357183913057066" fill="#ffdd14" stroke="none" /><path d="M 120.592083275326 95.88100663000786 l 22.96263088986056 -4.593169283957011 a44.41750673011678,44.41750673011678 0 0,0 0.14313796990520244,0.7489583428928495 l -23.03809515204792 4.198308376030847" fill="#faff18" stroke="none" /><path d="M 120.77682067341334 96.94652285012252 l 27.332587213227093 -4.016949071010643 a48.62618691762869,48.62618691762869 0 0,0 0.11428423635219825,0.8269038036158687 l -27.397515966134502 3.5471569591946888" fill="#c5ff1e" stroke="none" /><path d="M 120.93736805541906 98.37931529534042 l 26.698605526005768 -2.066640921495286 a47.77847160932947,47.77847160932947 0 0,0 0.056278577581055304,0.8182781665786094 l -26.73014806475189 1.6080193307623423" fill="#cfff1d" stroke="none" /><line stroke="#e1ed5e" stroke-width="0.3" x1="184.99686870605535" x2="189.99668451229388" y1="99.2704041080226" y2="99.22748670261217" /><path d="M 185.99683186730306 99.26182062694052 a86.0,86.0 0 0,1 -10.086455211305974,41.156179273409016" fill="none" id="id88" stroke="none" /><text fill="#e1ed5e" style="font-size:6.75px; font-family:Arial;" text-anchor="middle"><textPath startOffset="21.40746469413373" xlink:href="#id88">April</textPath></text><path d="M 120.99922638620191 99.81974689727618 l 22.98274380278317 -0.19727921416574548 a43.98359048957995,43.98359048957995 0 0,0 0.0,0.7550646337791419 l -22.98274380278317 -0.19727921416574268" fill="#ffff18" stroke="none" /><path d="M 120.99303781780057 100.54070618675476 l 18.087442510841072 0.46586835850359853 a39.093441074335075,39.093441074335075 0 0,0 -0.02303778903167911,0.6707200912245243 l -18.076780034812547 -0.7762947142922335" fill="#ffbd11" stroke="none" /><path d="M 120.98066250479742 100.90099992219065 l 28.199240890355167 1.210996737697657 a49.22523161802208,49.22523161802208 0 0,0 -0.04350200273631206,0.843927231431026 l -28.174297298162283 -1.6948957625054135" fill="#bdff1f" stroke="none" /><path d="M 120.9064616781168 101.97986365728391 l 25.43195000113369 2.4084321066060808 a46.54573596654234,46.54573596654234 0 0,0 -0.08215900345046624,0.7948138297435615 l -25.386858605201557 -2.844650458632574" fill="#dfff1b" stroke="none" /><path d="M 120.77682067341334 103.0534771498775 l 16.44820502426524 2.4173197135191353 a37.62488746180354,37.62488746180354 0 0,0 -0.09939869594506986,0.638210931780648 l -16.4042848361819 -2.699318827231234" fill="#ffa90f" stroke="none" /><path d="M 120.7213421655516 103.40968896794604 l 22.72355027256323 3.7391515500252566 a44.029133533499795,44.029133533499795 0 0,0 -0.1291210583009224,0.744735951693757 l -22.656014396770072 -4.128680534639601" fill="#ffff18" stroke="none" /><path d="M 120.51834098615036 104.47187691870673 l 35.361262573490976 7.70682259474384 a57.19135263150892,57.19135263150892 0 0,0 -0.21729755965809136,0.9574531419440471 l -35.22375415227522 -8.312710070626904" fill="#60ff29" stroke="none" /><path d="M 120.16314734710363 105.8691983318838 l 9.608120342513272 2.7967838014593576 a31.006896429379232,31.006896429379232 0 0,0 -0.15314997156769186,0.5097864460200816 l -9.55869405094195 -2.961307851070163" fill="#ff4906" stroke="none" /><path d="M 119.94978838288452 106.5578916946017 l 27.182901666557022 8.935559698829945 a49.61388421981648,49.61388421981648 0 0,0 -0.27291080570521875,0.8068123039952476 l -27.02550543927944 -9.400873677299352" fill="#b8ff1f" stroke="none" /><path d="M 119.83427380445688 106.89939002012753 l 25.69916826187666 8.939504757251441 a48.20959379809206,48.20959379809206 0 0,0 -0.2786051478850962,0.7793081838822561 l -25.541922943947622 -9.379347897514618" fill="#caff1d" stroke="none" /><path d="M 119.4528033332814 107.91128576633889 l 20.2917242953791 8.252467618271346 a42.905645315084776,42.905645315084776 0 0,0 -0.2833287680326894,0.6798859010620646 l -20.147069682809924 -8.599586028774688" fill="#fff016" stroke="none" /><path d="M 119.16976305983485 108.57439118712176 l 10.982364134931789 4.912271787522685 a33.03090753462628,33.03090753462628 0 0,0 -0.23595948905381534,0.5156140674903973 l -10.896420181022918 -5.100074837227771" fill="#ff6709" stroke="none" /><path d="M 118.8641267826498 109.22738970284198 l 56.592380347949444 27.682169108525912 a84.0,84.0 0 0,0 -0.6447203471530707,1.2898725753450169 l -56.10884008758464 -28.649573540034673" fill="#4dd2ff" stroke="none" /><line stroke="#e1ed5e" stroke-width="0.3" x1="174.33088141563837" x2="178.70328620479359" y1="141.23008692659167" y2="143.65538615756765" /><path d="M 175.20536237346943 141.71514677278685 a86.0,86.0 0 0,1 -30.301960400862466,31.631185727798858" fill="none" id="id89" stroke="none" /><text fill="#e1ed5e" style="font-size:6.75px; font-family:Arial;" text-anchor="middle"><textPath startOffset="22.145653131862474" xlink:href="#id89">May</textPath></text><path d="M 117.81537515405839 111.11811171558189 l 23.41608682918302 14.613370027704178 a48.60187866719295,48.60187866719295 0 0,0 -0.44779065123080514,0.7040012797850699 l -23.161778486326323 -15.01318498216792" fill="#c5ff1e" stroke="none" /><path d="M 117.01052211995028 112.31430620078461 l 13.689728774778573 9.910307911160576 a37.90038096674191,37.90038096674191 0 0,0 -0.3860388069423627,0.5237357825168777 l -13.517587948252382 -10.143850002946332" fill="#ffac10" stroke="none" /><path d="M 116.79662413953412 112.60449989151573 l 16.09475038347394 12.077800740029954 a41.12248147277573,41.12248147277573 0 0,0 -0.4285511312667248,0.5609871875042731 l -15.88504727485291 -12.352308840775104" fill="#ffd914" stroke="none" /><path d="M 116.1254893667686 113.45245675266167 l 21.45819547298012 17.901189850728326 a48.944708819890096,48.944708819890096 0 0,0 -0.5437650788210305,0.6405538955733313 l -21.147735830651975 -18.266910528751215" fill="#c1ff1e" stroke="none" /><path d="M 115.6541949942343 113.99807769240083 l 14.931952166631644 13.35224370238825 a41.031115979758646,41.031115979758646 0 0,0 -0.474011574938711,0.521021755463657 l -14.700542890851054 -13.606603033409579" fill="#ffd714" stroke="none" /><path d="M 114.91283532996324 114.78537596483092 l 14.483332127302326 14.359543707655694 a41.39518092593988,41.39518092593988 0 0,0 -0.5046428945105987,0.5003297332954646 l -14.234697312661764 -14.606053451179822" fill="#ffdc14" stroke="none" /><path d="M 114.13192950727249 115.5334660781643 l 16.640251571901803 18.290551420543025 a45.727358201872455,45.727358201872455 0 0,0 -0.5851685895151422,0.5232613610730248 l -16.323817955563282 -18.573508311499438" fill="#e9ff1a" stroke="none" /><path d="M 113.03279911837588 116.46651593811092 l 8.808969722403587 11.129845477919977 a35.194062418229635,35.194062418229635 0 0,0 -0.4769466748626247,0.37087661915935155 l -8.616613102905731 -11.279423148700122" fill="#ff860c" stroke="none" /><path d="M 111.27062007382361 117.71928675628689 l 12.942526106000672 20.34780073507997 a45.11518145814022,45.11518145814022 0 0,0 -0.6570400393362102,0.410041579016996 l -12.591321937874746 -20.566978110938514" fill="#f1ff19" stroke="none" /><line stroke="#e1ed5e" stroke-width="0.3" x1="143.1302829299769" x2="145.66735839644613" y1="173.24464959558577" y2="177.55315839532614" /><path d="M 143.63769802327073 174.10635135553383 a86.0,86.0 0 0,1 -40.68552437913181,11.842963189579606" fill="none" id="id90" stroke="none" /><text fill="#e1ed5e" style="font-size:6.75px; font-family:Arial;" text-anchor="middle"><textPath startOffset="21.407464694133747" xlink:href="#id90">June</textPath></text><path d="M 110.02825361518725 118.45085714620011 l 9.450296662524885 17.387481449949593 a40.78970990646579,40.78970990646579 0 0,0 -0.6180829472885438,0.32909435577069585 l -9.150424899449787 -17.547146273442856" fill="#ffd413" stroke="none" /><path d="M 108.07796709384702 119.3841803445677 l 9.30410533193977 22.326465756037628 a45.187547399092594,45.187547399092594 0 0,0 -0.7185799935082128,0.2922402276535274 l -8.919470877241116 -22.482893240270446" fill="#f0ff19" stroke="none" /><path d="M 107.407793817531 119.65005319985036 l 6.719182645690382 17.823430254614383 a40.04788916040962,40.04788916040962 0 0,0 -0.6453638164397957,0.23698653261699584 l -6.41222967759646 -17.9361476362401" fill="#ffca12" stroke="none" /><path d="M 107.06938296918513 119.77432235084164 l 5.128053071194739 14.344077114514695 a36.23317027306312,36.23317027306312 0 0,0 -0.5874850161184711,0.2043577847690833 l -4.8810622830312465 -14.42999333185237" fill="#ff950d" stroke="none" /><path d="M 105.3480935250658 120.30758222061773 l 4.840985370577328 18.3820099594457 a40.00877243557049,40.00877243557049 0 0,0 -0.6656596815970456,0.16920808802003015 l -4.524720395754885 -18.462403279301" fill="#ffca12" stroke="none" /><path d="M 104.29559338865022 120.5559693870025 l 1.8483249906503227 8.84490418144033 a30.035963437836784,30.035963437836784 0 0,0 -0.5056104112256634,0.10113624269055582 l -1.6962180938937006 -8.875329820793747" fill="#ff3a05" stroke="none" /><path d="M 103.2317021107853 120.74984581791261 l 4.1639952609245725 26.73583662378706 a48.058156191929186,48.058156191929186 0 0,0 -0.8162446564021761,0.11995985556264743 l -3.704425498914711 -26.803377552648588" fill="#ccff1d" stroke="none" /><path d="M 102.51750503828377 120.84855314841334 l 2.1627661487359506 17.910806260093857 a39.04091290097969,39.04091290097969 0 0,0 -0.666045593388153,0.07463179797730571 l -1.8549846537469983 -17.945293818578133" fill="#ffbc11" stroke="none" /><path d="M 101.80034050326958 120.92268563240118 l 1.7189303862682785 19.976576670112184 a41.05039493700079,41.05039493700079 0 0,0 -0.7026087960514174,0.054386364422966946 l -1.3757525954416254 -20.003140801530208" fill="#ffd814" stroke="none" /><path d="M 100.72087961077811 120.9876233191556 l 0.830425151532244 24.17692221354288 a45.19117966639909,45.19117966639909 0 0,0 -0.7755380701527217,0.01997510966421004 l -0.4152737673087786 -24.187615040557137" fill="#f0ff19" stroke="none" /><line stroke="#e1ed5e" stroke-width="0.3" x1="101.45913802915013" x2="101.54496967792366" y1="184.9874750549273" y2="189.98673829345242" /><path d="M 101.47630435890484 185.9873277026323 a86.0,86.0 0 0,1 -42.54439059252881,-10.42667462771756" fill="none" id="id91" stroke="none" /><text fill="#e1ed5e" style="font-size:6.75px; font-family:Arial;" text-anchor="middle"><textPath startOffset="22.145653131862474" xlink:href="#id91">July</textPath></text><path d="M 100.36049292484886 120.99690560180557 l 0.34022510031393605 19.816406431975604 a40.81932685527255,40.81932685527255 0 0,0 -0.7007180251627858,0.0060148214913811355 l -2.4271675194564705e-15 -19.81932685527255" fill="#ffd513" stroke="none" /><path d="M 98.55909050195518 120.95050786540614 l -1.4498688916746432 21.080775482467136 a42.13057535291534,42.13057535291534 0 0,0 -0.721096907133144,-0.05581746114767907 l 1.8115347935830233 -21.052780254324404" fill="#ffe615" stroke="none" /><path d="M 93.95794788825049 120.11202640906438 l -5.748255086956858 19.13407166583339 a40.97886721158068,40.97886721158068 0 0,0 -0.6719741323151088,-0.2081793039023646 l 6.075869852143601 -19.032575774124375" fill="#ffd714" stroke="none" /><path d="M 93.61358852112213 120.00534299687104 l -4.518091766704139 14.152858108688077 a35.856532093897876,35.856532093897876 0 0,0 -0.5847641404268555,-0.1922235878499936 l 4.760378644778738 -14.073213599436063" fill="#ff900d" stroke="none" /><path d="M 92.93061703081489 119.77432235084164 l -6.1293026115994955 17.144750278197915 a39.207438386723375,39.207438386723375 0 0,0 -0.6318201183771391,-0.23201309908862153 l 6.422711881630754 -17.037006330100574" fill="#ffbf11" stroke="none" /><path d="M 91.92203290615298 119.3841803445677 l -5.660405824460997 13.58291338031926 a35.7151530741222,35.7151530741222 0 0,0 -0.5638996211570415,-0.2406952167277696 l 5.89274052078847 -13.483743513932087" fill="#ff8e0d" stroke="none" /><path d="M 90.93487009805054 118.94263497670748 l -18.476133754672485 38.608013484762076 a63.80124091378798,63.80124091378798 0 0,0 -0.9838751406805599,-0.48126263391889984 l 19.136169144615117 -38.285157100745955" fill="#32ff4a" stroke="none" /><line stroke="#e1ed5e" stroke-width="0.3" x1="58.13341422392154" x2="55.67067388415222" y1="173.97424548756322" y2="178.32567169271397" /><path d="M 57.64086615596768 174.84453072859336 a86.0,86.0 0 0,1 -31.369924170532247,-30.572349798747897" fill="none" id="id92" stroke="none" /><text fill="#e1ed5e" style="font-size:6.75px; font-family:Arial;" text-anchor="middle"><textPath startOffset="22.145653131862474" xlink:href="#id92">August</textPath></text><path d="M 89.65649057296885 118.27599006163327 l -9.53531021963075 16.847979502309094 a40.35914652805805,40.35914652805805 0 0,0 -0.6000204541326438,-0.34642197071276604 l 9.823123141623793 -16.681810634320154" fill="#ffce13" stroke="none" /><path d="M 88.72937992617639 117.7192867562869 l -14.575393672166898 22.914939761187163 a48.157624435091506,48.157624435091506 0 0,0 -0.6937320622850519,-0.4496687413401782 l 14.96661136670896 -22.661357178143092" fill="#caff1d" stroke="none" /><path d="M 88.4268655584334 117.5232005979908 l -13.885513212367687 21.024436781141695 a46.195920684409636,46.195920684409636 0 0,0 -0.6579700643563446,-0.4427116235699437 l 14.244379564821037 -20.78297548351463" fill="#e3ff1b" stroke="none" /><path d="M 87.54013794807813 116.9041958592261 l -10.704156477949743 14.522244055114278 a39.04091290097969,39.04091290097969 0 0,0 -0.5360633592948856,-0.402271938572136 l 10.951872826155396 -14.336353089278127" fill="#ffbc11" stroke="none" /><path d="M 86.40962598614128 116.0094264158162 l -11.732870005241077 13.821291364292005 a39.12976374739998,39.12976374739998 0 0,0 -0.5083525001105687,-0.4391027820163809 l 11.96840198511451 -13.617844449810901" fill="#ffbe11" stroke="none" /><path d="M 85.86807049272751 115.53346607816431 l -12.402534171590807 13.632557658778072 a39.430124313128935,39.430124313128935 0 0,0 -0.4967636669830106,-0.45979703390855065 l 12.634727609887785 -13.417642878737144" fill="#ffc212" stroke="none" /><path d="M 85.60350026404147 115.28858382429668 l -12.826656251607373 13.621464445161669 a39.710088300906065,39.710088300906065 0 0,0 -0.4922680273068446,-0.471581634606675 l 13.058596764779532 -13.399270680249412" fill="#ffc512" stroke="none" /><path d="M 85.34317274990678 115.03919595460226 l -5.414235717360658 5.555482814145583 a28.757405345952396,28.757405345952396 0 0,0 -0.3505775297457916,-0.3475811586076158 l 5.508805167236412 -5.461721645309308" fill="#ff2703" stroke="none" /><path d="M 84.83555147118756 114.52719865689866 l -19.968293807157714 19.12917376617694 a48.652451004306386,48.652451004306386 0 0,0 -0.572579497149862,-0.6080595838434513 l 20.29372913804383 -18.783572722389" fill="#c4ff1e" stroke="none" /><path d="M 84.3458050057657 113.99807769240083 l -14.662855444552639 13.111615754172467 a40.67012449052905,40.67012449052905 0 0,0 -0.4609066502939332,-0.524427160567677 l 14.885773158805165 -12.85797631579349" fill="#ffd313" stroke="none" /><path d="M 83.8745106332314 113.45245675266167 l -23.00724482872592 19.19346191714095 a50.96201420087901,50.96201420087901 0 0,0 -0.5546443068389053,-0.6765758704406645 l 23.333335954803452 -18.795683765001794" fill="#a8ff21" stroke="none" /><path d="M 83.4222238831116 112.89097897827486 l -28.50327002856769 22.16431517470174 a57.106692862749966,57.106692862749966 0 0,0 -0.5951279434689724,-0.7790415818645104 l 28.87954994939096 -21.67175267959636" fill="#61ff29" stroke="none" /><path d="M 82.98947788004972 112.3143062007846 l -4.267360524549904 3.0892399303144913 a26.268184620297234,26.268184620297234 0 0,0 -0.2612870074384567,-0.3675328978305947 l 4.319762630518321 -3.015529805774393" fill="#ff0000" stroke="none" /><path d="M 82.78059297857968 112.02048342749411 l -22.18715313854604 15.488356031854119 a48.058435597106595,48.058435597106595 0 0,0 -0.46641916225190705,-0.680519496831071 l 22.449762037613276 -15.105201799952997" fill="#ccff1d" stroke="none" /><path d="M 82.37810715431573 111.42229804090323 l -18.300731057924054 11.862312768586445 a42.808971123696665,42.808971123696665 0 0,0 -0.3944180262920691,-0.6200906484240063 l 18.50166677584201 -11.546408445483767" fill="#ffef16" stroke="none" /><path d="M 81.99639281039703 110.81064883170644 l -11.665028622434269 7.004514524276415 a34.60647333011056,34.60647333011056 0 0,0 -0.30144922722715173,-0.5119266909275696 l 11.78355155979119 -6.8032366650552865" fill="#ff7e0b" stroke="none" /><line stroke="#e1ed5e" stroke-width="0.3" x1="26.387840678322732" x2="22.057713659400548" y1="142.50000000000003" y2="145.00000000000006" /><path d="M 25.521815274538298 143.00000000000003 a86.0,86.0 0 0,1 -11.493303480769221,-40.785679425670985" fill="none" id="id93" stroke="none" /><text fill="#e1ed5e" style="font-size:6.75px; font-family:Arial;" text-anchor="middle"><textPath startOffset="21.40746469413373" xlink:href="#id93">September</textPath></text><path d="M 81.81346652052679 110.50000000000001 l -39.0208856962308 22.528718860736497 a66.05743772147295,66.05743772147295 0 0,0 -0.5585522348338963,-0.9869082795100499 l 39.40187129608607 -21.855553811127326" fill="#35ff66" stroke="none" /><path d="M 81.4637452351635 109.86951160357371 l -15.997085702877264 8.51754709734661 a39.12333742831926,39.12333742831926 0 0,0 -0.3105497459081515,-0.5955200852977366 l 16.140943517760363 -8.24168076894437" fill="#ffbd11" stroke="none" /><path d="M 81.1358732173502 109.22738970284198 l -24.82591335493204 12.14359826428015 a48.636804314370735,48.636804314370735 0 0,0 -0.3604235989457585,-0.753146700120921 l 25.03071621183771 -11.715639062094125" fill="#c4ff1e" stroke="none" /><path d="M 80.83023694016515 108.57439118712176 l -16.591253558543233 7.42105668451081 a39.17530679131981,39.17530679131981 0 0,0 -0.2693136648693881,-0.6162423695876523 l 16.71620110542959 -7.1351522451473075" fill="#ffbe11" stroke="none" /><path d="M 80.68587082218212 108.24405325689762 l -49.709947585512914 21.21822068805581 a75.04897573609958,75.04897573609958 0 0,0 -0.4955882537431142,-1.1892313964144774 l 50.06686168379252 -20.36175678220005" fill="#41ffcf" stroke="none" /><path d="M 80.41425534168474 107.57618678355246 l -21.56265586813346 8.340898508399878 a44.11966081098461,44.11966081098461 0 0,0 -0.26717462360342575,-0.7087124313628774 l 21.70266117555132 -7.969517796842855" fill="#feff18" stroke="none" /><path d="M 80.16572619554312 106.89939002012753 l -39.834713607594885 13.856581200221266 a63.175932126716894,63.175932126716894 0 0,0 -0.34751148411383037,-1.0273559540384685 l 40.06671051328108 -13.170723571708637" fill="#31ff42" stroke="none" /><path d="M 79.94057633289273 106.21446072829308 l -12.988774630104478 4.023955582522179 a34.59781176961047,34.59781176961047 0 0,0 -0.17088630269360627,-0.5688249239091802 l 13.055937252801714 -3.800393055022275" fill="#ff7e0b" stroke="none" /><path d="M 79.83685265289637 105.86919833188381 l -56.22474040554563 16.36620250390775 a79.5582958945179,79.5582958945179 0 0,0 -0.37044429240681453,-1.3145761077704068 l 56.497403190027015 -15.398618472234348" fill="#47ffff" stroke="none" /><path d="M 79.64726062577567 105.17358676015961 l -26.2515216027492 6.673034135642156 a48.08637611484883,48.08637611484883 0 0,0 -0.1964957559658572,-0.8017697386818343 l 26.36220488523135 -6.221408572352222" fill="#cbff1d" stroke="none" /><path d="M 79.48165901384964 104.47187691870673 l -31.080947311468545 6.773947805405558 a52.81055885470487,52.81055885470487 0 0,0 -0.18544626202811632,-0.887427496107096 l 31.19265128432103 -6.239403858013053" fill="#92ff23" stroke="none" /><line stroke="#e1ed5e" stroke-width="0.3" x1="15.003131293944662" x2="10.003315487706104" y1="100.72959589197737" y2="100.7725132973878" /><path d="M 14.003168132696942 100.73817937305945 a86.0,86.0 0 0,1 10.791469493833604,-42.45332614584628" fill="none" id="id94" stroke="none" /><text fill="#e1ed5e" style="font-size:6.75px; font-family:Arial;" text-anchor="middle"><textPath startOffset="22.145653131862435" xlink:href="#id94">October</textPath></text><line stroke="#e1ed5e" stroke-width="0.3" x1="26.387840678322718" x2="22.05771365940052" y1="57.49999999999999" y2="54.99999999999999" /><path d="M 25.521815274538284 56.99999999999999 a86.0,86.0 0 0,1 29.574782752854787,-30.34633250058573" fill="none" id="id95" stroke="none" /><text fill="#e1ed5e" style="font-size:6.75px; font-family:Arial;" text-anchor="middle"><textPath startOffset="21.40746469413373" xlink:href="#id95">November</textPath></text><line stroke="#e1ed5e" stroke-width="0.3" x1="56.869717070023135" x2="54.33264160355391" y1="26.7553504044142" y2="22.446841604673864" /><path d="M 56.362301976729285 25.89364864446614 a86.0,86.0 0 0,1 42.16139366436587,-11.88097634709845" fill="none" id="id96" stroke="none" /><text fill="#e1ed5e" style="font-size:6.75px; font-family:Arial;" text-anchor="middle"><textPath startOffset="22.145653131862474" xlink:href="#id96">December</textPath></text></svg>