<?xml version="1.0" encoding="utf-8" ?>
<svg baseProfile="full" height="200mm" version="1.1" viewBox="0,0,200,200" width="200mm" xmlns="http://www.w3.org/2000/svg" xmlns:ev="http://www.w3.org/2001/xml-events" xmlns:xlink="http://www.w3.org/1999/xlink"><defs /><rect fill="#1a1a1a" height="200" width="200" x="0" y="0" /><text alignment-baseline="middle" fill="#e1ed5e" style="dominant-baseline: central; font-size:9.0px; font-family:Arial;" text-anchor="middle" x="100.0" y="100.0">2021</text><line stroke="#e1ed5e" stroke-width="0.3" x1="100.0" x2="100.0" y1="15.0" y2="10.0" /><path d="M 100.0 14.0 a86.0,86.0 0 0,1 42.46469731375804,11.215312516191453" fill="none" id="id49" stroke="none" /><text fill="#e1ed5e" style="font-size:6.75px; font-family:Arial;" text-anchor="middle"><textPath startOffset="22.20632615414155" xlink:href="#id49">January</textPath></text><path d="M 100.0 79.0 l 0.0 -53.487616083826566 a74.48761608382657,74.48761608382657 0 0,0 1.2821818648499868,0.011036144110025303 l -0.9207013855774583 53.4796913163251" fill="#3fffbf" stroke="none" /><path d="M 100.36148047927253 79.00311137660856 l 0.19165659910653005 -11.132529959782046 a32.1341796086387,32.1341796086387 0 0,0 0.5529731719250588,0.01428166560105587 l -0.3832564062264566 11.12758150203863" fill="#ff0c01" stroke="none" /><path d="M 107.76421540070413 80.48803036053334 l 23.074957919849673 -57.98884434906914 a83.41121495327103,83.41121495327103 0 0,0 1.329479957242386,0.5423282558128859 l -24.069721746680447 57.583055207072675" fill="#4cd8ff" stroke="none" /><path d="M 108.43124777332544 80.76684994638697 l 10.917786255227455 -24.905379007411423 a48.19330726884178,48.19330726884178 0 0,0 0.7569054527375675,0.3396014133789742 l -11.344873826431803 24.713757263515916" fill="#f6ff19" stroke="none" /><path d="M 109.08828744355905 81.06846463323043 l 16.92390684441647 -35.25367600427855 a60.10550210255754,60.10550210255754 0 0,0 0.9288553544307059,0.45578528844463306 l -17.528233465857607 34.95713555569909" fill="#5aff2a" stroke="none" /><path d="M 109.41281617654863 81.2277094730956 l 8.600597753428179 -17.152456470428454 a40.18794008449622,40.18794008449622 0 0,0 0.6157165832189581,0.31539394848658836 l -8.894574824235892 17.001869996629363" fill="#ff900d" stroke="none" /><path d="M 110.36928655335952 81.73862282372117 l 5.150995660208592 -9.07143168436876 a31.43185645490088,31.43185645490088 0 0,0 0.46818987637017895,0.27120579595908456 l -5.306382269044099 8.981421731019626" fill="#ff0000" stroke="none" /><line stroke="#e1ed5e" stroke-width="0.3" x1="143.23703022742887" x2="145.7803849466894" y1="26.81831364943548" y2="22.513508569990506" /><path d="M 143.74570117128098 25.957352633546492 a86.0,86.0 0 0,1 28.547481713284135,27.462654790039103" fill="none" id="id50" stroke="none" /><text fill="#e1ed5e" style="font-size:6.75px; font-family:Arial;" text-anchor="middle"><textPath startOffset="19.985693538727396" xlink:href="#id50">February</textPath></text><path d="M 111.60114157652 82.49532879139004 l 22.34427646385746 -33.71471766931353 a61.44686487497908,61.44686487497908 0 0,0 0.8766282028561565,0.591903275752454 l -22.92130936112016 33.325102481262405" fill="#4aff2c" stroke="none" /><path d="M 112.19680574252982 82.90503203632743 l 12.447725325328681 -17.446655308699924 a42.432023871660284,42.432023871660284 0 0,0 0.5909259103740426,0.4293328047870236 l -12.746196552056514 17.229803269096227" fill="#ffb310" stroke="none" /><path d="M 112.48926042617603 83.11751280151076 l 19.148444594400555 -25.884108402320187 a53.19704952581665,53.19704952581665 0 0,0 0.7314691742516832,0.5509274171000453 l -19.591159922410622 25.550664395714296" fill="#b2ff20" stroke="none" /><path d="M 113.6212207817346 84.01681056812373 l 20.373680446221147 -23.90654987643461 a52.41034832534,52.41034832534 0 0,0 0.6815995782254063,0.5910764376432962 l -20.78217382309332 23.55230844537164" fill="#bcff1f" stroke="none" /><path d="M 114.16331599549186 84.49514656593476 l 41.19654096456175 -45.098642849549194 a82.08226071713463,82.08226071713463 0 0,0 1.0349874056282473,0.9619079965291677 l -41.96673625398484 44.38283026694538" fill="#4ae7ff" stroke="none" /><path d="M 114.94478906791727 85.2469230424477 l 26.809311742262935 -26.465401252246377 a58.67169573481185,58.67169573481185 0 0,0 0.703322025028096,0.7248351705428494 l -27.26089803099414 26.000001886153413" fill="#6cff28" stroke="none" /><path d="M 115.9244219780498 86.31012108654704 l 47.43452518911937 -40.77842869595348 a83.55329269373566,83.55329269373566 0 0,0 0.9281950663644248,1.0986901907807076 l -48.129430868970914 39.95587955554367" fill="#4cd7ff" stroke="none" /><path d="M 116.38621287248628 86.86637796730983 l 27.363715180510987 -21.932138645315188 a56.06838482219356,56.06838482219356 0 0,0 0.5971174034843291,0.7582784642033805 l -27.73718666458928 21.45786778715877" fill="#8cff24" stroke="none" /><path d="M 116.60985879189232 87.15038557335679 l 25.879306001635527 -20.020585841009712 a53.71944890342023,53.71944890342023 0 0,0 0.5595112358609222,0.7362512012231075 l -26.220093177720564 19.57214986390557" fill="#abff21" stroke="none" /><path d="M 116.82858285166822 87.43820079747576 l 27.36809543699502 -20.429083213086567 a55.15201441753741,55.15201441753741 0 0,0 0.5613355941054884,0.7656611195182573 l -27.715693643614134 19.954959649896814" fill="#98ff23" stroke="none" /><path d="M 117.2510076193507 88.02491185347247 l 50.44572936041165 -35.01778383247496 a82.40860522143328,82.40860522143328 0 0,0 0.7988750400689375,1.1722505452988217 l -51.04102886614932 34.144255263905734" fill="#4be3ff" stroke="none" /><path d="M 117.65298651832404 88.62581576622439 l 51.576872726528244 -33.232045579629464 a82.35586894222152,82.35586894222152 0 0,0 0.7575657698486654,1.1982871180874446 l -52.141266092622864 32.33931081382781" fill="#4be4ff" stroke="none" /><line stroke="#e1ed5e" stroke-width="0.3" x1="172.23445277983987" x2="176.4835382374775" y1="55.19839476539836" y2="52.563006222186495" /><path d="M 173.08426987136738 54.67131705675599 a86.0,86.0 0 0,1 12.851231095245387,41.99856678651699" fill="none" id="id51" stroke="none" /><text fill="#e1ed5e" style="font-size:6.75px; font-family:Arial;" text-anchor="middle"><textPath startOffset="22.20632615414155" xlink:href="#id51">March</textPath></text><path d="M 118.3937258080291 89.86733742301442 l 23.299963200173003 -12.835391134322428 a47.60142008804152,47.60142008804152 0 0,0 0.38917991880077146,0.7210912833517293 l -23.51745121819224 12.43241886763824" fill="#ffff18" stroke="none" /><path d="M 119.34039704204932 91.81776055985345 l 40.92847265862594 -17.315392361608097 a65.44055227834514,65.44055227834514 0 0,0 0.429970333933413,1.041207268560721 l -41.22046467944555 16.608310522594074" fill="#32ff47" stroke="none" /><path d="M 119.47837535516314 92.15188598940014 l 29.68053004100412 -11.9587069973518 a52.99913337206898,52.99913337206898 0 0,0 0.33365844202226397,0.84912434108065 l -29.881982032908084 11.446033651375366" fill="#b4ff20" stroke="none" /><path d="M 119.7369772167798 92.82701384747503 l 59.21093165033941 -21.518958457574904 a84.0,84.0 0 0,0 0.4821876767607618,1.3632094942935418 l -59.57257240790998 20.496551336854747" fill="#4dd2ff" stroke="none" /><line stroke="#e1ed5e" stroke-width="0.3" x1="184.98032266829074" x2="189.97916517819016" y1="98.17113171792111" y2="98.06355123074" /><path d="M 185.9800911702706 98.14961562048488 a86.0,86.0 0 0,1 -9.607161424134198,41.387399972396054" fill="none" id="id52" stroke="none" /><text fill="#e1ed5e" style="font-size:6.75px; font-family:Arial;" text-anchor="middle"><textPath startOffset="21.466115282336823" xlink:href="#id52">April</textPath></text><line stroke="#e1ed5e" stroke-width="0.3" x1="174.80103733775053" x2="179.2010983576182" y1="140.37084112569926" y2="142.7455964860345" /><path d="M 175.68104954172406 140.8457921977663 a86.0,86.0 0 0,1 -30.038265399797805,32.042727171017184" fill="none" id="id53" stroke="none" /><text fill="#e1ed5e" style="font-size:6.75px; font-family:Arial;" text-anchor="middle"><textPath startOffset="22.206326154141568" xlink:href="#id53">May</textPath></text><line stroke="#e1ed5e" stroke-width="0.3" x1="143.8653032363475" x2="146.44561519142675" y1="172.8068346515853" y2="177.08958963109032" /><path d="M 144.38136562736335 173.6633856474863 a86.0,86.0 0 0,1 -40.68145358897372,12.25698825130547" fill="none" id="id54" stroke="none" /><text fill="#e1ed5e" style="font-size:6.75px; font-family:Arial;" text-anchor="middle"><textPath startOffset="21.466115282336833" xlink:href="#id54">June</textPath></text><line stroke="#e1ed5e" stroke-width="0.3" x1="102.19456741930631" x2="102.32365962044197" y1="184.97166512339345" y2="189.96999836594603" /><path d="M 102.22038585953345 185.97133177190398 a86.0,86.0 0 0,1 -42.740103519485714,-10.115201625700543" fill="none" id="id55" stroke="none" /><text fill="#e1ed5e" style="font-size:6.75px; font-family:Arial;" text-anchor="middle"><textPath startOffset="22.20632615414155" xlink:href="#id55">July</textPath></text><line stroke="#e1ed5e" stroke-width="0.3" x1="58.666819895761336" x2="56.23545636021788" y1="174.27360380694188" y2="178.64263932499728" /><path d="M 58.180547188652646 175.14741091055294 a86.0,86.0 0 0,1 -31.652253787137756,-30.449443065178592" fill="none" id="id56" stroke="none" /><text fill="#e1ed5e" style="font-size:6.75px; font-family:Arial;" text-anchor="middle"><textPath startOffset="22.20632615414155" xlink:href="#id56">August</textPath></text><line stroke="#e1ed5e" stroke-width="0.3" x1="26.63291911575756" x2="22.317208475507996" y1="142.92168965132927" y2="145.44649492493687" /><path d="M 25.769776987707644 143.4266507060508 a86.0,86.0 0 0,1 -11.730757126820373,-40.83630448921669" fill="none" id="id57" stroke="none" /><text fill="#e1ed5e" style="font-size:6.75px; font-family:Arial;" text-anchor="middle"><textPath startOffset="21.46611528233685" xlink:href="#id57">September</textPath></text><line stroke="#e1ed5e" stroke-width="0.3" x1="15.007084014347285" x2="10.007500721073583" y1="101.09737516637583" y2="101.16192664675087" /><path d="M 14.007167355692545 101.11028546245083 a86.0,86.0 0 0,1 10.666146001902534,-42.60595125391555" fill="none" id="id58" stroke="none" /><text fill="#e1ed5e" style="font-size:6.75px; font-family:Arial;" text-anchor="middle"><textPath startOffset="22.20632615414155" xlink:href="#id58">October</textPath></text><line stroke="#e1ed5e" stroke-width="0.3" x1="26.266209847984243" x2="21.928928074336255" y1="57.711370442889674" y2="55.22380399835377" /><path d="M 25.398753493254645 57.213857153982495 a86.0,86.0 0 0,1 29.58750427330803,-30.492523968695096" fill="none" id="id59" stroke="none" /><text fill="#e1ed5e" style="font-size:6.75px; font-family:Arial;" text-anchor="middle"><textPath startOffset="21.46611528233685" xlink:href="#id59">November</textPath></text><line stroke="#e1ed5e" stroke-width="0.3" x1="56.762969772571076" x2="54.21961505331055" y1="26.818313649435495" y2="22.513508569990535" /><path d="M 56.25429882871897 25.957352633546506 a86.0,86.0 0 0,1 42.265352541879196,-11.944610805530505" fill="none" id="id60" stroke="none" /><text fill="#e1ed5e" style="font-size:6.75px; font-family:Arial;" text-anchor="middle"><textPath startOffset="22.20632615414155" xlink:href="#id60">December</textPath></text></svg>