<?xml version="1.0" encoding="utf-8" ?>
<svg baseProfile="full" height="200mm" version="1.1" viewBox="0,0,200,200" width="200mm" xmlns="http://www.w3.org/2000/svg" xmlns:ev="http://www.w3.org/2001/xml-events" xmlns:xlink="http://www.w3.org/1999/xlink"><defs /><rect fill="#1a1a1a" height="200" width="200" x="0" y="0" /><text alignment-baseline="middle" fill="#e1ed5e" style="dominant-baseline: central; font-size:9.0px; font-family:Arial;" text-anchor="middle" x="100.0" y="100.0">2019</text><line stroke="#e1ed5e" stroke-width="0.3" x1="100.0" x2="100.0" y1="15.0" y2="10.0" /><path d="M 100.0 14.0 a86.0,86.0 0 0,1 42.46469731375804,11.215312516191453" fill="none" id="id25" stroke="none" /><text fill="#e1ed5e" style="font-size:6.75px; font-family:Arial;" text-anchor="middle"><textPath startOffset="22.20632615414155" xlink:href="#id25">January</textPath></text><line stroke="#e1ed5e" stroke-width="0.3" x1="143.23703022742887" x2="145.7803849466894" y1="26.81831364943548" y2="22.513508569990506" /><path d="M 143.74570117128098 25.957352633546492 a86.0,86.0 0 0,1 28.547481713284135,27.462654790039103" fill="none" id="id26" stroke="none" /><text fill="#e1ed5e" style="font-size:6.75px; font-family:Arial;" text-anchor="middle"><textPath startOffset="19.985693538727396" xlink:href="#id26">February</textPath></text><line stroke="#e1ed5e" stroke-width="0.3" x1="172.23445277983987" x2="176.4835382374775" y1="55.19839476539836" y2="52.563006222186495" /><path d="M 173.08426987136738 54.67131705675599 a86.0,86.0 0 0,1 12.851231095245387,41.99856678651699" fill="none" id="id27" stroke="none" /><text fill="#e1ed5e" style="font-size:6.75px; font-family:Arial;" text-anchor="middle"><textPath startOffset="22.20632615414155" xlink:href="#id27">March</textPath></text><path d="M 120.28053869075195 94.5502522615342 l 10.221245882389427 -2.7466337300623884 a31.583849216394725,31.583849216394725 0 0,0 0.13656806488113843,0.526252463606793 l -10.267010279140868 2.5702848409067447" fill="#ff6909" stroke="none" /><path d="M 120.45610955862082 95.25157060432595 l 7.54163982070526 -1.7506234073297204 a28.74215819391066,28.74215819391066 0 0,0 0.10772234188267366,0.4828981364314316 l -7.570656549589971 1.6205471013483248" fill="#ff4006" stroke="none" /><path d="M 120.98425023603335 99.18683210126433 l 21.15182289688309 -0.8196615645553188 a42.16769843278945,42.16769843278945 0 0,0 0.021863561173258494,0.7255451551498528 l -21.162798152511993 0.4554462619804669" fill="#fff817" stroke="none" /><line stroke="#e1ed5e" stroke-width="0.3" x1="184.98032266829074" x2="189.97916517819016" y1="98.17113171792111" y2="98.06355123074" /><path d="M 185.9800911702706 98.14961562048488 a86.0,86.0 0 0,1 -9.607161424134198,41.387399972396054" fill="none" id="id28" stroke="none" /><text fill="#e1ed5e" style="font-size:6.75px; font-family:Arial;" text-anchor="middle"><textPath startOffset="21.466115282336823" xlink:href="#id28">April</textPath></text><path d="M 120.9764740272857 100.99374915477107 l 6.806625176276171 0.32246020026861216 a27.81425908452811,27.81425908452811 0 0,0 -0.02677274635514294,0.47804537108479 l -6.800066079033498 -0.43957728768882554" fill="#ff3204" stroke="none" /><path d="M 120.92983693683757 101.71520430193887 l 37.74335540401336 3.0930754861558447 a58.869882401675376,58.869882401675376 0 0,0 -0.09145969907027414,1.009250158026672 l -37.684521108666004 -3.742307032731087" fill="#46ff2d" stroke="none" /><path d="M 120.8583938346157 102.4346265915055 l 11.779738676304724 1.3749507871848934 a32.85971049179573,32.85971049179573 0 0,0 -0.07041130374839609,0.561247369174445 l -11.75432586330948 -1.5775159106467331" fill="#ff7b0b" stroke="none" /><path d="M 120.76222939487914 103.15116336523771 l 13.101519573046422 1.9884679878217346 a34.25155915586956,34.25155915586956 0 0,0 -0.09348758481928532,0.5821472799105581 l -13.065350233865848 -2.213694497425498" fill="#ff8e0d" stroke="none" /><path d="M 120.70491114924044 103.5080841355445 l 11.149861249907401 1.8891484770151954 a32.30877039559984,32.30877039559984 0 0,0 -0.09762411548795749,0.5475278843171278 l -11.115690692080253 -2.0807951120655415" fill="#ff730a" stroke="none" /><path d="M 120.64145759157962 103.86396538481128 l 32.63452780110741 6.109001034141142 a54.20139000759441,54.20139000759441 0 0,0 -0.17956163503050057,0.915580908525275 l -32.524536233101244 -6.669845669734361" fill="#78ff26" stroke="none" /><path d="M 120.5718875245553 104.21870165774334 l 18.40689910834027 3.774724885578922 a39.78995696499666,39.78995696499666 0 0,0 -0.14336882585092922,0.669771424435794 l -18.339196243764896 -4.091010129430885" fill="#ffd914" stroke="none" /><path d="M 120.02730092923936 106.31721596034902 l 26.8794373275318 8.478586859539153 a49.18493544749499,49.18493544749499 0 0,0 -0.2616351629881365,0.8052302338747577 l -26.729509913527416 -8.940015993391706" fill="#b1ff20" stroke="none" /><path d="M 119.54520255179757 107.68017299344265 l 13.817886507058688 5.42965766134808 a35.84638575012082,35.84638575012082 0 0,0 -0.23060728586487536,0.5723483715507558 l -13.72237660693642 -5.666705400741649" fill="#ffa40f" stroke="none" /><path d="M 119.41010516605496 108.01547362559984 l 12.837926552192474 5.301468529209473 a34.889489793570064,34.889489793570064 0 0,0 -0.23400716210120456,0.553123806609041 l -12.744768408898961 -5.521666861484678" fill="#ff970d" stroke="none" /><path d="M 119.26925614724726 108.34839909993367 l 11.919950411663326 5.16431472639903 a33.990587531355715,33.990587531355715 0 0,0 -0.23722017323534353,0.534868866348924 l -11.82928915369671 -5.368731929240641" fill="#ff8b0c" stroke="none" /><path d="M 118.97047184881838 109.00673069616215 l 22.762994550373737 10.807330644556064 a46.19826018916991,46.19826018916991 0 0,0 -0.34724975813936015,0.7154373537479903 l -22.573591535619663 -11.19755695426933" fill="#d4ff1c" stroke="none" /><path d="M 118.64920377521936 109.65438752849418 l 5.613688016474563 2.9061143965365774 a27.32131268266863,27.32131268266863 0 0,0 -0.21980320236858492,0.4157848238817934 l -5.562832305881085 -3.0023142355045054" fill="#ff2b04" stroke="none" /><line stroke="#e1ed5e" stroke-width="0.3" x1="174.80103733775053" x2="179.2010983576182" y1="140.37084112569926" y2="142.7455964860345" /><path d="M 175.68104954172406 140.8457921977663 a86.0,86.0 0 0,1 -30.038265399797805,32.042727171017184" fill="none" id="id29" stroke="none" /><text fill="#e1ed5e" style="font-size:6.75px; font-family:Arial;" text-anchor="middle"><textPath startOffset="22.206326154141568" xlink:href="#id29">May</textPath></text><path d="M 118.48025628344425 109.97397251340804 l 19.59750096750767 10.576960242511284 a43.269578625181225,43.269578625181225 0 0,0 -0.35939215549163445,0.6524011547255498 l -19.412532402564526 -10.912731915634637" fill="#f9ff18" stroke="none" /><path d="M 118.30583269289576 110.29060199501025 l 11.500914379123522 6.465225288559587 a34.193565461533154,34.193565461533154 0 0,0 -0.2928402139376036,0.5105915965753028 l -11.387922169033539 -6.662236730993205" fill="#ff8e0d" stroke="none" /><path d="M 117.75023020441432 111.22182372390056 l 53.25069061324299 33.665471171701654 a84.0,84.0 0 0,0 -0.7831805464917987,1.2155136003141882 l -52.663305203374144 -34.5771063719373" fill="#4dd2ff" stroke="none" /><path d="M 113.75828350139079 115.86535959552629 l 12.614319257483006 14.546197645404625 a40.25390651968794,40.25390651968794 0 0,0 -0.5273923517241158,0.4494552036720155 l -12.362061429181843 -14.761177239299588" fill="#ffdf14" stroke="none" /><path d="M 113.20401910651253 116.32954008644616 l 6.62865886344523 8.197727506817799 a31.54238372494419,31.54238372494419 0 0,0 -0.4251350178656963,0.3377529700560293 l -6.486566352862182 -8.310614390878953" fill="#ff6809" stroke="none" /><line stroke="#e1ed5e" stroke-width="0.3" x1="143.8653032363475" x2="146.44561519142675" y1="172.8068346515853" y2="177.08958963109032" /><path d="M 144.38136562736335 173.6633856474863 a86.0,86.0 0 0,1 -40.68145358897372,12.25698825130547" fill="none" id="id30" stroke="none" /><text fill="#e1ed5e" style="font-size:6.75px; font-family:Arial;" text-anchor="middle"><textPath startOffset="21.466115282336833" xlink:href="#id30">June</textPath></text><path d="M 110.5260780823613 118.17145234162733 l 3.1590588514503857 5.4535684529759045 a27.302464732009298,27.302464732009298 0 0,0 -0.4086934978379808,0.23206683431749844 l -3.064716586691206 -5.507138453088031" fill="#ff2b04" stroke="none" /><path d="M 109.2508944713604 118.85261126421891 l 5.211651592730133 10.62094501525968 a32.83071364462753,32.83071364462753 0 0,0 -0.5094816036807629,0.24458213091283426 l -5.028057321049138 -10.709081422672075" fill="#ff7b0b" stroke="none" /><path d="M 108.92500713936063 119.00905698771935 l 4.276313456872673 9.107968758988259 a31.06190596736704,31.06190596736704 0 0,0 -0.4859442963210975,0.22307319237838671 l -4.118901164784156 -9.18022902170072" fill="#ff6209" stroke="none" /><path d="M 106.91757812671514 119.82793768551818 l 3.581927780615622 10.266922834422461 a31.873817688076773,31.873817688076773 0 0,0 -0.519589167689022,0.17627285630700046 l -3.404668879989373 -10.327058677627585" fill="#ff6d0a" stroke="none" /><path d="M 106.57524785965236 119.94407469862006 l 3.9766532518275874 12.062004535469018 a33.70061905967367,33.70061905967367 0 0,0 -0.5524954190222414,0.1768915859406412 l -3.7684364877144056 -12.128668968069366" fill="#ff870c" stroke="none" /><path d="M 105.88484417918355 120.15858648285463 l 7.234892684110926 24.78318973724408 a46.81763284468276,46.81763284468276 0 0,0 -0.7755426309422494,0.21917609419023554 l -6.80721888506407 -24.904054624772836" fill="#cdff1d" stroke="none" /><path d="M 104.83641907484287 120.43548508189849 l 2.8515650633437093 12.048814300468079 a33.38165374082342,33.38165374082342 0 0,0 -0.5603028725516498,0.12752310960321736 l -2.6437420413991974 -12.09611414364898" fill="#ff820c" stroke="none" /><path d="M 103.7750983002368 120.6578951692458 l 2.2466582754728996 12.294045729332762 a33.49764112949624,33.49764112949624 0 0,0 -0.5681056829300117,0.09877245499674359 l -2.0347036210708382 -12.33089676285051" fill="#ff840c" stroke="none" /><path d="M 103.41894727170886 120.7198165907248 l 1.2085478584550682 7.324152137563179 a28.42319287506041,28.42319287506041 0 0,0 -0.48341643508140475,0.07549970519859775 l -1.0822955597651465 -7.3438701501088826" fill="#ff3b05" stroke="none" /><path d="M 103.06178313531738 120.77559828337769 l 2.3421552348042627 15.892593996720008 a37.06425333118542,37.06425333118542 0 0,0 -0.6319833050907512,0.0875871274405871 l -2.068243338526681 -15.930555689653199" fill="#ffb510" stroke="none" /><path d="M 102.34483914955558 120.86867818915974 l 0.6702161470434818 5.964812167384623 a27.00234736381838,27.00234736381838 0 0,0 -0.46234113938865357,0.04792354949649991 l -0.5674424110492255 -5.975465085336881" fill="#ff2603" stroke="none" /><line stroke="#e1ed5e" stroke-width="0.3" x1="102.19456741930631" x2="102.32365962044197" y1="184.97166512339345" y2="189.96999836594603" /><path d="M 102.22038585953345 185.97133177190398 a86.0,86.0 0 0,1 -42.740103519485714,-10.115201625700543" fill="none" id="id31" stroke="none" /><text fill="#e1ed5e" style="font-size:6.75px; font-family:Arial;" text-anchor="middle"><textPath startOffset="22.20632615414155" xlink:href="#id31">July</textPath></text><line stroke="#e1ed5e" stroke-width="0.3" x1="58.666819895761336" x2="56.23545636021788" y1="174.27360380694188" y2="178.64263932499728" /><path d="M 58.180547188652646 175.14741091055294 a86.0,86.0 0 0,1 -31.652253787137756,-30.449443065178592" fill="none" id="id32" stroke="none" /><text fill="#e1ed5e" style="font-size:6.75px; font-family:Arial;" text-anchor="middle"><textPath startOffset="22.20632615414155" xlink:href="#id32">August</textPath></text><path d="M 84.9287848128048 114.62390073753433 l -11.612185222361974 11.267534961743701 a37.18024071985823,37.18024071985823 0 0,0 -0.4417250703694258,-0.4631469702887836 l 11.804416844110358 -11.065980874872418" fill="#ffb610" stroke="none" /><path d="M 83.72743513129214 113.27417163493432 l -8.066440689295726 6.580113157123453 a31.409868133385498,31.409868133385498 0 0,0 -0.3381527890322515,-0.4218975976859635 l 8.178511390382837 -6.440287725859229" fill="#ff6709" stroke="none" /><line stroke="#e1ed5e" stroke-width="0.3" x1="26.63291911575756" x2="22.317208475507996" y1="142.92168965132927" y2="145.44649492493687" /><path d="M 25.769776987707644 143.4266507060508 a86.0,86.0 0 0,1 -11.730757126820373,-40.83630448921669" fill="none" id="id33" stroke="none" /><text fill="#e1ed5e" style="font-size:6.75px; font-family:Arial;" text-anchor="middle"><textPath startOffset="21.46611528233685" xlink:href="#id33">September</textPath></text><path d="M 79.97269907076064 106.31721596034903 l -13.660948600618008 4.3090760376670225 a35.32444250109313,35.32444250109313 0 0,0 -0.17792287108391625,-0.5814622372506655 l 13.733098244208055 -4.07328682786431" fill="#ff9d0e" stroke="none" /><path d="M 79.58551787078972 104.9243191809786 l -14.263311565204344 3.4405525587303614 a35.67240466711159,35.67240466711159 0 0,0 -0.13884962711361545,-0.5981605595730949 l 14.320421758248514 -3.1945233418086922" fill="#ffa20f" stroke="none" /><line stroke="#e1ed5e" stroke-width="0.3" x1="15.007084014347285" x2="10.007500721073583" y1="101.09737516637583" y2="101.16192664675087" /><path d="M 14.007167355692545 101.11028546245083 a86.0,86.0 0 0,1 10.666146001902534,-42.60595125391555" fill="none" id="id34" stroke="none" /><text fill="#e1ed5e" style="font-size:6.75px; font-family:Arial;" text-anchor="middle"><textPath startOffset="22.20632615414155" xlink:href="#id34">October</textPath></text><path d="M 79.01574976396665 99.18683210126434 l -17.182234216235166 -0.6658346681935554 a38.1951303707454,38.1951303707454 0 0,0 0.031113374461645662,-0.6567541599029693 l 17.168227233540023 0.9614999347195338" fill="#ffc412" stroke="none" /><path d="M 79.16333360222342 97.38593545837743 l -15.996851564444958 -2.006885441937926 a37.12224702552183,37.12224702552183 0 0,0 0.08499934099764361,-0.6333438195518679 l 15.95993622438948 2.2819476035544533" fill="#ffb610" stroke="none" /><path d="M 80.14247586403 93.16781622104843 l -14.285462557025339 -4.915059142752538 a36.10735737463466,36.10735737463466 0 0,0 0.207268128171972,-0.5859749093684811 l 14.198741348043557 5.16023167854763" fill="#ffa80f" stroke="none" /><path d="M 81.6062741919709 89.86733742301443 l -12.292679388423476 -6.7717423707376 a35.034474029411086,35.034474029411086 0 0,0 0.2955280650309029,-0.5257114517823317 l 12.174293682100142 6.982337332454716" fill="#ff990e" stroke="none" /><line stroke="#e1ed5e" stroke-width="0.3" x1="26.266209847984243" x2="21.928928074336255" y1="57.711370442889674" y2="55.22380399835377" /><path d="M 25.398753493254645 57.213857153982495 a86.0,86.0 0 0,1 29.58750427330803,-30.492523968695096" fill="none" id="id35" stroke="none" /><text fill="#e1ed5e" style="font-size:6.75px; font-family:Arial;" text-anchor="middle"><textPath startOffset="21.46611528233685" xlink:href="#id35">November</textPath></text><path d="M 82.15384107792192 88.93136811851018 l -8.945051925594564 -5.547943810067158 a31.525855522058315,31.525855522058315 0 0,0 0.28999644245707124,-0.4587047291707955 l 8.84822788689153 5.70109618695217" fill="#ff6809" stroke="none" /><path d="M 82.7489923806493 88.02491185347247 l -10.290339389537442 -7.143218759533138 a33.526637976664446,33.526637976664446 0 0,0 0.3331707736254242,-0.47124643160387086 l 10.165855996108139 7.319291691468795" fill="#ff840c" stroke="none" /><path d="M 83.39014120810768 87.1503855733568 l -7.20156812278212 -5.571231809034085 a30.105010010816287,30.105010010816287 0 0,0 0.3206125067903197,-0.4071453249138794 l 7.10460153539783 5.694369527901012" fill="#ff5407" stroke="none" /><path d="M 84.07557802195018 86.31012108654704 l -6.7944395892813745 -5.841031805753755 a29.96002577497526,29.96002577497526 0 0,0 0.339558566755316,-0.38817414043474435 l 6.692889158948215 5.957121502391442" fill="#ff5207" stroke="none" /><path d="M 84.31358615837235 86.03803664274999 l -11.154815264913692 -9.928535837319071 a35.933376291625436,35.933376291625436 0 0,0 0.4152124891095024,-0.45848800101596443 l 10.982259135188144 10.119076625604592" fill="#ffa50f" stroke="none" /><path d="M 84.5562425177563 85.77008943001954 l -8.935080733288995 -8.232802147821989 a33.14967896347778,33.14967896347778 0 0,0 0.3902706621885835,-0.4163135315877824 l 8.792042749129957 8.385385096287822" fill="#ff7f0b" stroke="none" /><path d="M 85.31137513191541 84.99185889309783 l -6.0846258630134304 -6.216982485081334 a29.699054150461418,29.699054150461418 0 0,0 0.36843339309795614,-0.3544326322508352 l 5.976709226303047 6.3207982040944835" fill="#ff4e07" stroke="none" /><line stroke="#e1ed5e" stroke-width="0.3" x1="56.762969772571076" x2="54.21961505331055" y1="26.818313649435495" y2="22.513508569990535" /><path d="M 56.25429882871897 25.957352633546506 a86.0,86.0 0 0,1 42.265352541879196,-11.944610805530505" fill="none" id="id36" stroke="none" /><text fill="#e1ed5e" style="font-size:6.75px; font-family:Arial;" text-anchor="middle"><textPath startOffset="22.20632615414155" xlink:href="#id36">December</textPath></text><path d="M 90.58718382345135 81.22770947309562 l -1.5466712885314537 -3.084577689966108 a24.45062481301636,24.45062481301636 0 0,0 0.37785382339864954,-0.18541123014057864 l 1.4933461981223783 3.1107440802415165" fill="#ff0000" stroke="none" /><path d="M 90.91171255644093 81.06846463323043 l -5.772598749044491 -12.02472501605965 a34.33854969737418,34.33854969737418 0 0,0 0.535062935873908,-0.25121922280347825 l 5.564757601870975 12.122309221503135" fill="#ff900d" stroke="none" /><path d="M 92.57280143429618 80.3572730644239 l -3.548400391779882 -9.384461629405568 a31.032909120198838,31.032909120198838 0 0,0 0.5012814883935747,-0.184626202663858 l 3.3863365776137377 9.444151099875748" fill="#ff6109" stroke="none" /></svg>