<?xml version="1.0" encoding="utf-8" ?>
<svg baseProfile="full" height="200mm" version="1.1" viewBox="0,0,200,200" width="200mm" xmlns="http://www.w3.org/2000/svg" xmlns:ev="http://www.w3.org/2001/xml-events" xmlns:xlink="http://www.w3.org/1999/xlink"><defs /><rect fill="#1a1a1a" height="200" width="200" x="0" y="0" /><text alignment-baseline="middle" fill="#e1ed5e" style="dominant-baseline: central; font-size:9.0px; font-family:Arial;" text-anchor="middle" x="100.0" y="100.0">2020</text><line stroke="#e1ed5e" stroke-width="0.3" x1="100.0" x2="100.0" y1="15.0" y2="10.0" /><path d="M 100.0 14.0 a86.0,86.0 0 0,1 42.35913384403234,11.155469271406648" fill="none" id="id37" stroke="none" /><text fill="#e1ed5e" style="font-size:6.75px; font-family:Arial;" text-anchor="middle"><textPath startOffset="22.145653131862478" xlink:href="#id37">January</textPath></text><line stroke="#e1ed5e" stroke-width="0.3" x1="143.13028292997686" x2="145.6673583964461" y1="26.7553504044142" y2="22.446841604673864" /><path d="M 143.63769802327073 25.89364864446614 a86.0,86.0 0 0,1 29.32050498858742,28.57503671076993" fill="none" id="id38" stroke="none" /><text fill="#e1ed5e" style="font-size:6.75px; font-family:Arial;" text-anchor="middle"><textPath startOffset="20.669276256404974" xlink:href="#id38">February</textPath></text><line stroke="#e1ed5e" stroke-width="0.3" x1="172.87174338648825" x2="177.1583165268699" y1="56.24261187166439" y2="53.66864786411523" /><path d="M 173.72905801456457 55.72781907015455 a86.0,86.0 0 0,1 12.242430191666344,42.057860355516425" fill="none" id="id39" stroke="none" /><text fill="#e1ed5e" style="font-size:6.75px; font-family:Arial;" text-anchor="middle"><textPath startOffset="22.145653131862474" xlink:href="#id39">March</textPath></text><line stroke="#e1ed5e" stroke-width="0.3" x1="184.99686870605535" x2="189.99668451229388" y1="99.2704041080226" y2="99.22748670261217" /><path d="M 185.99683186730306 99.26182062694052 a86.0,86.0 0 0,1 -10.086455211305974,41.156179273409016" fill="none" id="id40" stroke="none" /><text fill="#e1ed5e" style="font-size:6.75px; font-family:Arial;" text-anchor="middle"><textPath startOffset="21.40746469413373" xlink:href="#id40">April</textPath></text><line stroke="#e1ed5e" stroke-width="0.3" x1="174.33088141563837" x2="178.70328620479359" y1="141.23008692659167" y2="143.65538615756765" /><path d="M 175.20536237346943 141.71514677278685 a86.0,86.0 0 0,1 -30.301960400862466,31.631185727798858" fill="none" id="id41" stroke="none" /><text fill="#e1ed5e" style="font-size:6.75px; font-family:Arial;" text-anchor="middle"><textPath startOffset="22.145653131862474" xlink:href="#id41">May</textPath></text><line stroke="#e1ed5e" stroke-width="0.3" x1="143.1302829299769" x2="145.66735839644613" y1="173.24464959558577" y2="177.55315839532614" /><path d="M 143.63769802327073 174.10635135553383 a86.0,86.0 0 0,1 -40.68552437913181,11.842963189579606" fill="none" id="id42" stroke="none" /><text fill="#e1ed5e" style="font-size:6.75px; font-family:Arial;" text-anchor="middle"><textPath startOffset="21.407464694133747" xlink:href="#id42">June</textPath></text><path d="M 110.34350942703117 118.27599006163325 l 7.731428946985136 13.660694138109411 a36.696800880983886,36.696800880983886 0 0,0 -0.5508990358956535,0.3055744087137188 l -7.495785722933388 -13.791401462256275" fill="#ff5f08" stroke="none" /><path d="M 109.3889696526874 118.78422872680471 l 8.454425667491014 16.914514730214712 a39.909736167535,39.909736167535 0 0,0 -0.6154456672624338,0.30104531623373465 l -8.162819750966511 -17.05715379654567" fill="#ff920d" stroke="none" /><path d="M 108.73861861582097 119.09545874513695 l 16.294146289031175 35.605650266748725 a60.15688361203394,60.15688361203394 0 0,0 -0.9427059106044928,0.42166036307829013 l -15.680526975571057 -35.88011438073686" fill="#57ff2a" stroke="none" /><path d="M 108.07796709384702 119.3841803445677 l 11.334839326611181 27.199488080495794 a50.466773396507534,50.466773396507534 0 0,0 -0.8025311349465063,0.3263824260271869 l -10.866253730474234 -27.39005776310227" fill="#d2ff1c" stroke="none" /><path d="M 107.407793817531 119.65005319985036 l 3.5058160078321743 9.299593476772817 a30.938469938275603,30.938469938275603 0 0,0 -0.4985673265873874,0.1830808281999376 l -3.3456595295906597 -9.358405153981476" fill="#ff0000" stroke="none" /><path d="M 106.72888874123015 119.89276391827305 l 18.070504472624222 53.42223555509314 a77.39573018943003,77.39573018943003 0 0,0 -1.2622037044300287,0.41491142819733123 l -17.15077803054646 -53.724567904692485" fill="#43ffe2" stroke="none" /><path d="M 105.69591212413111 120.21278271476187 l 4.986644270397493 17.695841318607513 a39.38503252792404,39.38503252792404 0 0,0 -0.6523260399049525,0.17779436294114717 l -4.682136829557845 -17.778836175692803" fill="#ff8a0c" stroke="none" /><path d="M 104.9986988182912 120.39639698878246 l 4.538476772010128 18.518533988797298 a40.06656425537428,40.06656425537428 0 0,0 -0.6694318622536151,0.15798409672339533 l -4.219912756016634 -18.593714229166917" fill="#ff950d" stroke="none" /><path d="M 104.29559338865022 120.5559693870025 l 6.89578271824183 32.99881660823146 a54.711625840960195,54.711625840960195 0 0,0 -0.9209881912902214,0.1842234320366702 l -6.328298041420649 -33.11232943693099" fill="#9aff22" stroke="none" /><path d="M 103.58742460773223 120.69131181640829 l 2.634870270185282 15.197231528902126 a36.423954988386186,36.423954988386186 0 0,0 -0.6169914389119637,0.1015257064801819 l -2.3736013282202464 -15.240223233877979" fill="#ff5b08" stroke="none" /><path d="M 102.875027216393 120.80226474461374 l 1.3967139280497392 10.105926211102874 a31.20198776616911,31.20198776616911 0 0,0 -0.5312096489284839,0.06877572424146573 l -1.2230264572304799 -10.128413531544734" fill="#ff0400" stroke="none" /><path d="M 102.51750503828377 120.84855314841334 l 2.2952975531119595 19.008356408335363 a40.14643580940395,40.14643580940395 0 0,0 -0.6849060299617853,0.0767451492344873 l -1.968655621549375 -19.04495731807682" fill="#ff960d" stroke="none" /><path d="M 102.15924093988457 120.88869738790638 l 2.1251721657430775 20.559112902787952 a41.66865936831974,41.66865936831974 0 0,0 -0.7121380971643346,0.0674402182086509 l -1.7719345051937279 -20.59256487650179" fill="#ffad10" stroke="none" /><line stroke="#e1ed5e" stroke-width="0.3" x1="101.45913802915013" x2="101.54496967792366" y1="184.9874750549273" y2="189.98673829345242" /><path d="M 101.47630435890484 185.9873277026323 a86.0,86.0 0 0,1 -42.54439059252881,-10.42667462771756" fill="none" id="id43" stroke="none" /><text fill="#e1ed5e" style="font-size:6.75px; font-family:Arial;" text-anchor="middle"><textPath startOffset="22.145653131862474" xlink:href="#id43">July</textPath></text><path d="M 100.0 121.0 l 1.4916345568248947e-15 12.180120487502428 a33.18012048750243,33.18012048750243 0 0,0 -0.5695808895893845,-0.0048891669013171575 l 0.2090879647405308 -12.178325718795547" fill="#ff2603" stroke="none" /><path d="M 99.63950707515114 120.99690560180557 l -0.5397836194849956 31.439689720622148 a52.44432311379684,52.44432311379684 0 0,0 -0.9000112287040156,-0.023181096691795373 l 1.079408162259755 -31.425790906580303" fill="#b8ff1f" stroke="none" /><path d="M 98.19965949673042 120.92268563240118 l -1.523927650438816 17.710349291564363 a38.775793301931316,38.775793301931316 0 0,0 -0.6626975783883595,-0.06275814967745247 l 1.8277247922121906 -17.681579386381724" fill="#ff800b" stroke="none" /><path d="M 96.76829788921471 120.74984581791261 l -8.203261651162718 52.67082442331288 a74.30580875616549,74.30580875616549 0 0,0 -1.2586784680192726,-0.20711506292923665 l 9.106217622235054 -52.52224336188797" fill="#3fffbd" stroke="none" /><path d="M 95.70440661134978 120.55596938700252 l -2.6581868564888325 12.720386382773233 a33.995160141031455,33.995160141031455 0 0,0 -0.5702082407010656,-0.12427423212084326 l 2.8761575138090345 -12.672880692518671" fill="#ff3304" stroke="none" /><path d="M 95.00130118170881 120.39639698878247 l -3.3035237144600296 13.479504085228712 a34.87841126770991,34.87841126770991 0 0,0 -0.5803015370307691,-0.14751038146171455 l 3.5344305447161775 -13.420808471931734" fill="#ff4206" stroke="none" /><path d="M 94.30408787586889 120.21278271476187 l -10.394389973871531 36.886023066308155 a59.322604825052515,59.322604825052515 0 0,0 -0.9778059856968815,-0.2846250717392331 l 11.026055971950019 -36.7021543002664" fill="#61ff29" stroke="none" /><path d="M 93.27111125876986 119.89276391827306 l -6.0535153198534815 17.89614240396549 a39.89224604621464,39.89224604621464 0 0,0 -0.6468133104236136,-0.22499524524157674 l 6.359834402322117 -17.789588726155326" fill="#ff920d" stroke="none" /><path d="M 92.93061703081489 119.77432235084164 l -3.3635192713160453 9.408362030206758 a30.991523306280712,30.991523306280712 0 0,0 -0.4994222711242668,-0.1833947756760945 l 3.5245306940944308 -9.349236405521944" fill="#ff0100" stroke="none" /><path d="M 92.59220618246901 119.65005319985036 l -6.276412198218458 16.64892903840146 a38.79270041920767,38.79270041920767 0 0,0 -0.6211038997007883,-0.24025633123569665 l 6.5612883604127745 -16.53873281902772" fill="#ff810b" stroke="none" /><path d="M 91.92203290615298 119.3841803445677 l -16.36389917464662 39.267400950826364 a63.54063908348063,63.54063908348063 0 0,0 -1.0032308200636675,-0.42821958129309373 l 17.035565069880718 -38.980706719873865" fill="#30ff2f" stroke="none" /><path d="M 91.26138138417905 119.09545874513695 l -5.405423641622046 11.811826180594196 a33.98991310463534,33.98991310463534 0 0,0 -0.5284804877709898,-0.24735555282098645 l 5.607392843264526 -11.717294396202682" fill="#ff3304" stroke="none" /><path d="M 90.6110303473126 118.78422872680471 l -8.181517276127892 16.36851513340464 a39.29933093345426,39.29933093345426 0 0,0 -0.6008545413143578,-0.30680061005321707 l 8.461299039155831 -16.225656571678584" fill="#ff890c" stroke="none" /><path d="M 90.28995756902619 118.62028667847754 l -13.126766812530045 25.17230619210808 a49.38938192317302,49.38938192317302 0 0,0 -0.748393033778222,-0.39847713708163834 l 13.556948662094829 -24.94325858730387" fill="#e1ff1b" stroke="none" /><line stroke="#e1ed5e" stroke-width="0.3" x1="58.13341422392154" x2="55.67067388415222" y1="173.97424548756322" y2="178.32567169271397" /><path d="M 57.64086615596768 174.84453072859336 a86.0,86.0 0 0,1 -31.369924170532247,-30.572349798747897" fill="none" id="id44" stroke="none" /><text fill="#e1ed5e" style="font-size:6.75px; font-family:Arial;" text-anchor="middle"><textPath startOffset="22.145653131862474" xlink:href="#id44">August</textPath></text><path d="M 88.72937992617639 117.7192867562869 l -9.901908445865445 15.567444740177917 a39.449745976809396,39.449745976809396 0 0,0 -0.5682911886569558,-0.3683594825880853 l 10.16768526677941 -15.395171415885937" fill="#ff8b0c" stroke="none" /><path d="M 88.1277618465304 117.32195027204791 l -21.28018019842341 31.048418875389867 a58.64107309760227,58.64107309760227 0 0,0 -0.8254566222137751,-0.5762328304971719 l 21.81003191181095 -30.678541229087568" fill="#69ff28" stroke="none" /><path d="M 87.83215693770417 117.11559508785305 l -25.327255941700304 35.62595730115963 a64.7113112038571,64.7113112038571 0 0,0 -0.8998538911965231,-0.6514248224729953 l 25.935090843270782 -35.18593170731357" fill="#31ff40" stroke="none" /><path d="M 86.96720088162412 116.46651593811092 l -27.64035007218391 34.9226793772066 a65.53742793422234,65.53742793422234 0 0,0 -0.876170590734784,-0.7057810070340846 l 28.235771433273957 -34.4430500763791" fill="#32ff4b" stroke="none" /><path d="M 86.40962598614128 116.0094264158162 l -18.914290253340756 22.280986359129066 a50.22657573037451,50.22657573037451 0 0,0 -0.6525162152614645,-0.5636279655746538 l 19.293985948365084 -21.953014261089688" fill="#d6ff1c" stroke="none" /><path d="M 85.86807049272751 115.53346607816431 l -25.50354182231096 28.03286002566339 a58.89817788101165,58.89817788101165 0 0,0 -0.7420335424366613,-0.6868151689618237 l 25.98100513606159 -27.59092711056919" fill="#66ff29" stroke="none" /><path d="M 85.60350026404147 115.28858382429668 l -25.526172679406898 27.107910803333933 a58.23471927892579,58.23471927892579 0 0,0 -0.7219095098197142,-0.6915729801535109 l 25.987754675091928 -26.66572569287484" fill="#6eff28" stroke="none" /><path d="M 85.08716467003676 114.78537596483092 l -22.091244214976047 21.902431296418133 a52.10851278444582,52.10851278444582 0 0,0 -0.6243423613794454,-0.6406302643353389 l 22.463973377506303 -21.519978340015054" fill="#bcff1f" stroke="none" /><path d="M 84.83555147118756 114.52719865689866 l -13.805751212889374 13.225597363221082 a40.11845161529136,40.11845161529136 0 0,0 -0.4721448226787457,-0.5014014400112848 l 14.030751869304375 -12.986654463265307" fill="#ff950d" stroke="none" /><path d="M 84.1078160697243 113.72728997021213 l -26.36260373868003 22.771389223682405 a55.83565763781567,55.83565763781567 0 0,0 -0.6203220227170491,-0.7307377829831427 l 26.74962032490419 -22.31548465824971" fill="#8cff24" stroke="none" /><path d="M 83.64595745247003 113.17365903436017 l -30.16026204800626 24.294972172944316 a59.728375639684984,59.728375639684984 0 0,0 -0.6363448892308724,-0.8040009797957703 l 30.572873367878692 -23.773651249233865" fill="#5cff2a" stroke="none" /><path d="M 81.99639281039703 110.81064883170644 l -20.373077224588155 12.23344750731124 a44.7638278379804,44.7638278379804 0 0,0 -0.38992766413292723,-0.6621824200274705 l 20.580078598850854 -11.881913918990211" fill="#ffdb14" stroke="none" /><line stroke="#e1ed5e" stroke-width="0.3" x1="26.387840678322732" x2="22.057713659400548" y1="142.50000000000003" y2="145.00000000000006" /><path d="M 25.521815274538298 143.00000000000003 a86.0,86.0 0 0,1 -11.493303480769221,-40.785679425670985" fill="none" id="id45" stroke="none" /><text fill="#e1ed5e" style="font-size:6.75px; font-family:Arial;" text-anchor="middle"><textPath startOffset="21.40746469413373" xlink:href="#id45">September</textPath></text><path d="M 81.63589988554817 110.18625677009913 l -35.847900781435456 19.88422627588353 a61.9933463506723,61.9933463506723 0 0,0 -0.5082115651036081,-0.9350520387291096 l 36.183957696154394 -19.265919403679835" fill="#41ff2d" stroke="none" /><path d="M 81.29705330413844 109.54985784667822 l -20.505550686546417 10.470280288383865 a44.02399570612894,44.02399570612894 0 0,0 -0.33789483088952293,-0.6760160085528722 l 20.68226543064768 -10.116732423667239" fill="#ffd013" stroke="none" /><path d="M 80.68587082218212 108.24405325689762 l -13.660786104050471 5.830977267265172 a35.853194029298265,35.853194029298265 0 0,0 -0.23675768584202173,-0.568132257411639 l 13.758869634428978 -5.595612500412251" fill="#ff5207" stroke="none" /><path d="M 80.41425534168474 107.57618678355246 l -32.54400725394412 12.588721130727516 a55.893958042216894,55.893958042216894 0 0,0 -0.3384760201492062,-0.8978478568160633 l 32.75531395790777 -12.028204993717306" fill="#8bff24" stroke="none" /><path d="M 79.94057633289273 106.21446072829308 l -31.341863317518722 9.709789372345288 a53.8114675970054,53.8114675970054 0 0,0 -0.2657868307222304,-0.8847179169924865 l 31.503926468244583 -9.170333851762077" fill="#a6ff21" stroke="none" /><path d="M 79.73907114497094 105.5222062557868 l -41.082843626663056 11.197311717737843 a63.58144936656147,63.58144936656147 0 0,0 -0.2779736132157911,-1.055511086162707 l 41.26900672068358 -10.490420127202334" fill="#2fff30" stroke="none" /><path d="M 79.56144815229197 104.8234425847677 l -26.388865477314404 6.227700399490794 a48.11376907487437,48.11376907487437 0 0,0 -0.1828074372236962,-0.8054832986434327 l 26.491883776095765 -5.773782766908335" fill="#f3ff19" stroke="none" /><path d="M 79.407916724674 104.11899336999214 l -41.76689843964014 8.354549438140284 a63.59427545552975,63.59427545552975 0 0,0 -0.20493620998597728,-1.0723128484460918 l 41.90416094190827 -7.636334024660877" fill="#2fff30" stroke="none" /><path d="M 79.0935383218832 101.97986365728391 l -56.27918647667324 5.329697472590517 a77.53098712764087,77.53098712764087 0 0,0 -0.11410485432302239,-1.3260713691636705 l 56.362384953694004 -4.362805056051185" fill="#44ffe4" stroke="none" /><path d="M 79.03789590574601 101.26102812881392 l -52.69633321472483 3.1700805496588718 a73.79159918934675,73.79159918934675 0 0,0 -0.06521213297199696,-1.2650979580954094 l 52.742986937153404 -2.2650107981867316" fill="#3effb7" stroke="none" /><path d="M 79.00696218219943 100.54070618675478 l -28.850881014276624 0.7430963538072386 a49.86044919073487,49.86044919073487 0 0,0 -0.014693561920861894,-0.8558263181889881 l 28.85938600779615 -0.24772311964919813" fill="#dbff1b" stroke="none" /><line stroke="#e1ed5e" stroke-width="0.3" x1="15.003131293944662" x2="10.003315487706104" y1="100.72959589197737" y2="100.7725132973878" /><path d="M 14.003168132696942 100.73817937305945 a86.0,86.0 0 0,1 10.791469493833604,-42.45332614584628" fill="none" id="id46" stroke="none" /><text fill="#e1ed5e" style="font-size:6.75px; font-family:Arial;" text-anchor="middle"><textPath startOffset="22.145653131862435" xlink:href="#id46">October</textPath></text><path d="M 79.00696218219943 99.45929381324524 l -57.73381662031102 -1.4870183201926714 a78.75296360389041,78.75296360389041 0 0,0 0.04640917021541843,-1.35115235397572 l 57.69978276309875 2.4778769387325297" fill="#45fff2" stroke="none" /><path d="M 79.01933749520258 99.09900007780938 l -58.145370166958706 -2.497012379098874 a79.19896169755972,79.19896169755972 0 0,0 0.06999080218079401,-1.3578028641142337 l 58.093937775321336 3.4947870365898193" fill="#46fff7" stroke="none" /><path d="M 79.22317932658666 96.9465228501225 l -57.77310108130816 -8.490656332952573 a79.39368504825978,79.39368504825978 0 0,0 0.20974491333913298,-1.346712804485832 l 57.61883467583076 9.481157319369855" fill="#46fffa" stroke="none" /><path d="M 79.48165901384962 95.52812308129327 l -47.790430970888416 -10.415701997447867 a69.91229028048973,69.91229028048973 0 0,0 0.2656305432386159,-1.1704171856337988 l 47.60458956609214 11.234553517020673" fill="#39ff86" stroke="none" /><path d="M 79.73907114497095 94.47779374421319 l -56.739638067203124 -15.464640665179381 a79.80936693164045,79.80936693164045 0 0,0 0.37161334500708526,-1.318724663028387 l 56.46580623012146 16.436373252110783" fill="#47fffe" stroke="none" /><path d="M 79.94057633289273 93.78553927170692 l -31.30622225049099 -9.698747678673811 a53.77415533818862,53.77415533818862 0 0,0 0.28074022877810634,-0.8794147681058727 l 31.135117305935626 10.234731480471076" fill="#a6ff21" stroke="none" /><path d="M 80.9802524753101 91.09779779509293 l -25.595633249141265 -11.98004875988558 a49.26053802944632,49.26053802944632 0 0,0 0.36504578483032174,-0.7628052908915843 l 25.386208206351036 12.417666552842253" fill="#e3ff1b" stroke="none" /><path d="M 81.63589988554816 89.8137432299009 l -55.092300343355525 -30.558770310297323 a84.0,84.0 0 0,0 0.710266539914524,-1.254972919603579 l 54.55960043841963 31.500000000000007" fill="#4dd2ff" stroke="none" /><line stroke="#e1ed5e" stroke-width="0.3" x1="26.387840678322718" x2="22.05771365940052" y1="57.49999999999999" y2="54.99999999999999" /><path d="M 25.521815274538284 56.99999999999999 a86.0,86.0 0 0,1 29.574782752854787,-30.34633250058573" fill="none" id="id47" stroke="none" /><text fill="#e1ed5e" style="font-size:6.75px; font-family:Arial;" text-anchor="middle"><textPath startOffset="21.40746469413373" xlink:href="#id47">November</textPath></text><path d="M 82.576782715395 88.27688183743585 l -27.101510477576557 -18.23510575129714 a53.66513358195833,53.66513358195833 0 0,0 0.5208335713895378,-0.7599117459571912 l 26.784487169371705 18.697652232324366" fill="#a8ff21" stroke="none" /><path d="M 82.98947788004972 87.6856937992154 l -47.25075070686814 -34.205899637783375 a79.3324696236385,79.3324696236385 0 0,0 0.808050239710682,-1.0962753407094974 l 46.65659844757364 35.011981287761735" fill="#46fff9" stroke="none" /><path d="M 85.08716467003674 85.21462403516908 l -42.95991221662682 -42.59273568606659 a81.49541462692369,81.49541462692369 0 0,0 0.9934992674690553,-0.9850078717626567 l 42.22242102902779 43.32392356805792" fill="#49edff" stroke="none" /><path d="M 86.68645165197937 83.75963576809568 l -38.16059353119229 -46.54971928233945 a81.19225252403734,81.19225252403734 0 0,0 1.0854601118688503,-0.8743698304318218 l 37.35588264896819 47.19793740656467" fill="#49f0ff" stroke="none" /><path d="M 87.25179093698888 83.31218511350988 l -12.327283752891615 -16.1368101436597 a41.30661385698818,41.30661385698818 0 0,0 0.567173268756202,-0.42561739460978104 l 12.04845749522466 16.346046565533484" fill="#ffa80f" stroke="none" /><line stroke="#e1ed5e" stroke-width="0.3" x1="56.869717070023135" x2="54.33264160355391" y1="26.7553504044142" y2="22.446841604673864" /><path d="M 56.362301976729285 25.89364864446614 a86.0,86.0 0 0,1 42.16139366436587,-11.88097634709845" fill="none" id="id48" stroke="none" /><text fill="#e1ed5e" style="font-size:6.75px; font-family:Arial;" text-anchor="middle"><textPath startOffset="22.145653131862474" xlink:href="#id48">December</textPath></text><path d="M 89.65649057296885 81.72400993836675 l -15.450510120804305 -27.29957094417535 a52.368532588075254,52.368532588075254 0 0,0 0.7861659169584411,-0.4360729817486192 l 14.97960001568976 27.560776841357114" fill="#b9ff1f" stroke="none" /><path d="M 89.97174638481275 81.54914285379989 l -14.559486338082184 -26.787814992948835 a51.488779485660885,51.488779485660885 0 0,0 0.7802050235160348,-0.4154152297995702 l 14.097492498779587 27.03380069047098" fill="#c5ff1e" stroke="none" /><path d="M 90.28995756902619 81.37971332152246 l -9.10287835969843 -17.455969514223344 a40.68688055820324,40.68688055820324 0 0,0 0.6220690371728547,-0.31763288279783763 l 8.801882100811993 17.609660348694018" fill="#ff9e0e" stroke="none" /><path d="M 91.26138138417902 80.90454125486306 l -12.807464875387634 -27.986622132127305 a51.777949491490915,51.777949491490915 0 0,0 0.8114013907270661,-0.36292952146318713 l 12.325150081804948 28.202355404500338" fill="#c1ff1e" stroke="none" /><path d="M 91.5904679813234 80.7573450057729 l -11.409495463286252 -26.107158444800945 a49.49140763087515,49.49140763087515 0 0,0 0.7814102309924128,-0.33353756208613605 l 10.959650157123408 26.299170656546487" fill="#e0ff1b" stroke="none" /><path d="M 92.25597844496254 80.48000691201159 l -13.505044429242425 -34.04153410966493 a57.622565032713,57.622565032713 0 0,0 0.9225859366794552,-0.35687605971084213 l 12.91868623006944 34.268350057513814" fill="#75ff27" stroke="none" /><path d="M 93.27111125876988 80.10723608172694 l -9.944727296787534 -29.39981919071449 a52.03622028298831,52.03622028298831 0 0,0 0.8486296316988517,-0.2789614158657094 l 9.438574927440921 29.566201527982226" fill="#bdff1f" stroke="none" /><path d="M 95.35216902796891 79.52079915486377 l -12.06902274098767 -53.17834108093499 a75.53070025263509,75.53070025263509 0 0,0 1.2668929203835204,-0.27611341545401463 l 11.154367403985031 53.377685954522725" fill="#41ffcc" stroke="none" /><path d="M 95.70440661134978 79.44403061299748 l -2.8992005683310893 -13.873724241884258 a35.17341131398007,35.17341131398007 0 0,0 0.5920916435884028,-0.11843491121127148 l 2.6606124392117096 13.921448549758395" fill="#ff4706" stroke="none" /><path d="M 96.41257539226777 79.30868818359171 l -8.24123998780206 -47.53328222533994 a69.24241863391973,69.24241863391973 0 0,0 1.1729088595763029,-0.19300170649911513 l 7.424053625172686 47.66774993033472" fill="#38ff7d" stroke="none" /><path d="M 97.12497278360702 79.19773525538626 l -2.0361261960425594 -14.732394859433922 a35.87243316275067,35.87243316275067 0 0,0 0.6107233542106444,-0.07907036531008359 l 1.782925019941121 14.7651768209444" fill="#ff5207" stroke="none" /><path d="M 97.84075906011542 79.11130261209362 l -3.5869923291700054 -34.70089692759298 a55.88579598560073,55.88579598560073 0 0,0 0.955116027609907,-0.09045048084504861 l 2.990776738175083 34.75735916394321" fill="#8bff24" stroke="none" /><path d="M 98.1996594967304 79.07731436759882 l -4.165335602895066 -48.40751358676256 a69.5863910198869,69.5863910198869 0 0,0 1.1910241178210834,-0.09219279928231428 l 3.3337424902987656 48.47188415303993" fill="#38ff82" stroke="none" /></svg>